<svg width="384" height="80" viewBox="0 0 384 80" fill="none" xmlns="http://www.w3.org/2000/svg">
<path d="M159.677 50.5553C160.912 50.5553 162.027 50.5071 163.138 50.5553C163.957 50.6035 164.215 50.3523 164.209 49.5058C164.178 43.1434 164.191 36.7741 164.191 30.422C164.191 30.1467 164.16 29.8714 164.147 29.6064H159.673V37.4003H151.656V29.6168H147.354V50.5002H151.7V41.3093H159.677V50.5553Z" fill="#B50000"/>
<path d="M223.865 35.7039C224.057 33.0577 222.01 30.3634 219.391 29.5514C217.004 28.7924 214.438 28.7996 212.055 29.572C211.081 29.8876 210.201 30.4408 209.494 31.1817C208.787 31.9225 208.276 32.8277 208.007 33.8156C207.738 34.8034 207.718 35.8428 207.951 36.8399C208.184 37.837 208.661 38.7604 209.34 39.5268C210.266 40.5901 211.542 40.9032 212.781 41.2473C214.746 41.8254 216.749 42.2796 218.724 42.8164C219.622 43.0676 220.314 43.6044 220.413 44.6264C220.475 45.1138 220.37 45.6076 220.115 46.0274C219.86 46.4473 219.47 46.7685 219.009 46.9388C218.491 47.1764 217.936 47.3252 217.368 47.3792C214.474 47.596 212.207 47.4102 211.604 44.2238H207.53C207.668 46.6979 208.377 48.1638 210.046 49.3853C211.123 50.1733 212.351 50.4899 213.662 50.7617C216.027 51.3201 218.507 51.114 220.747 50.1733C224.477 48.6249 225.117 45.435 224.295 42.2796C223.789 40.3252 222.027 39.3101 220.124 38.756C218.841 38.3844 217.53 38.1229 216.239 37.7754C215.166 37.4898 214.089 37.2076 213.05 36.8291C211.536 36.2751 211.704 33.9318 212.829 33.3055C214.512 32.3627 216.229 32.4108 217.939 33.0681C219.092 33.512 219.601 34.5443 219.78 35.6763L223.865 35.7039Z" fill="#B50000"/>
<path d="M168.469 29.5927C168.435 29.6654 168.41 29.7415 168.393 29.8198C168.393 34.6062 168.366 39.3926 168.393 44.1791C168.393 46.605 169.374 48.5595 171.49 49.8464C173.475 51.0577 175.702 51.2848 177.928 51.0405C179.306 50.8883 180.646 50.4958 181.889 49.8808C184.483 48.5629 185.072 46.0407 185.123 43.4255C185.209 39.1002 185.147 34.7679 185.147 30.4391C185.147 30.1639 185.12 29.8886 185.11 29.6133H180.667V30.5733C180.667 34.9021 180.667 39.2309 180.667 43.5597C180.65 46.6566 177.488 48.4494 174.731 46.9801C173.169 46.1439 172.787 44.7297 172.777 43.1537C172.746 38.9419 172.777 34.7266 172.777 30.5114V29.5927H168.469Z" fill="#B50000"/>
<path d="M235.548 38.4946C235.321 38.0679 235.173 37.8064 235.042 37.538C233.844 35.0192 232.654 32.4969 231.436 29.9884C231.382 29.8878 231.306 29.8003 231.215 29.732C231.123 29.6636 231.018 29.6161 230.906 29.5927C229.344 29.5583 227.778 29.572 226.15 29.572C228.129 33.2367 230.015 36.8395 232 40.3768C232.847 41.8771 233.514 43.3361 233.311 45.122C233.243 46.1805 233.235 47.242 233.287 48.3015V50.514H237.616C237.616 48.1397 237.616 45.8239 237.616 43.5081C237.607 43.1146 237.687 42.7241 237.85 42.3657C239.264 39.6129 240.709 36.8601 242.151 34.1073C242.925 32.6311 243.71 31.1549 244.56 29.5686C242.946 29.5686 241.463 29.5686 239.987 29.5892C239.875 29.6121 239.77 29.6599 239.679 29.729C239.589 29.7981 239.515 29.8868 239.464 29.9884C238.961 31.0207 238.497 32.053 238.022 33.0853C237.22 34.8265 236.411 36.5779 235.548 38.4946Z" fill="#B50000"/>
<path d="M199.083 50.514C199.083 48.1053 199.083 45.7688 199.083 43.4461C199.072 43.0506 199.151 42.6579 199.313 42.2968C200.882 39.2619 202.479 36.2407 204.069 33.216L206.006 29.5582C204.447 29.5582 203.043 29.5273 201.639 29.5823C201.473 29.6069 201.314 29.6681 201.174 29.7615C201.034 29.8549 200.917 29.9783 200.831 30.1226C200.077 31.6848 199.396 33.2814 198.677 34.8574C198.143 36.0308 197.589 37.1973 197.004 38.4498C196.902 38.3203 196.808 38.1847 196.722 38.0438C195.504 35.4424 194.286 32.841 193.054 30.2499C192.923 29.978 192.634 29.5995 192.404 29.5892C190.845 29.5307 189.283 29.5582 187.624 29.5582C187.779 29.9023 187.868 30.1432 187.985 30.3634C189.919 33.9146 191.795 37.4966 193.818 40.9927C194.551 42.2143 194.893 43.6315 194.795 45.0531C194.726 46.2815 194.795 47.5169 194.795 48.7487V50.514H199.083Z" fill="#B50000"/>
<path d="M144.701 29.3518H127.871V33.0337H132.923C133.955 33.0337 134.034 33.1059 134.034 34.1692C134.034 39.1828 134.034 44.1929 134.017 49.2064C134.017 49.9531 134.258 50.2387 134.987 50.2078C135.789 50.1734 136.591 50.2078 137.396 50.2078C138.428 50.2078 138.518 50.1183 138.518 49.0688C138.518 45.0291 138.518 40.9904 138.518 36.953C138.518 35.9792 138.518 35.0054 138.518 34.0316C138.518 33.3434 138.762 32.9373 139.577 32.9993C140.393 33.0612 141.178 32.9993 141.986 32.9993H144.708L144.701 29.3518Z" fill="#B50000"/>
<path d="M73.0044 41.471H79.9965C79.9724 41.8151 79.9587 42.0801 79.938 42.3382C79.7694 44.4853 79.1328 46.4364 77.3848 47.8438C76.5375 48.5163 75.5501 48.9901 74.4953 49.2301C73.4405 49.4701 72.3452 49.4703 71.2904 49.2305C70.2355 48.9907 69.248 48.5172 68.4005 47.8448C67.5531 47.1724 66.8675 46.3183 66.3942 45.3456C65.2449 43.0573 65.2449 40.6589 65.4961 38.2365C65.6785 36.4712 66.1533 34.7473 67.2854 33.3193C69.2881 30.7901 71.9721 30.2465 74.9726 30.9106C75.9363 31.0853 76.8368 31.511 77.5835 32.1447C78.3302 32.7784 78.8966 33.5978 79.2257 34.5202C79.5698 35.5009 80.0447 35.7314 80.9462 35.6075C81.1389 35.58 81.3385 35.58 81.5346 35.5697C81.4968 33.8148 80.1789 31.5437 78.4377 30.477C75.3718 28.5604 72.1304 28.5604 68.8339 29.7372C67.169 30.3568 65.7819 31.5534 64.9249 33.1094C63.5485 35.5181 63.2732 38.233 63.4349 40.9893C63.5795 43.4358 63.9924 45.8067 65.5443 47.8025C67.7465 50.6275 70.7058 51.4259 74.1468 50.9476C76.6794 50.6035 78.6717 49.3888 80.2098 47.0076V50.4039H81.8478V39.5716H73.0044V41.471Z" fill="#B50000"/>
<path d="M272.944 29.4894V50.5071H274.878V32.3455C275.109 32.6276 275.222 32.724 275.281 32.8375C276.846 35.2463 278.378 37.679 279.971 40.0843C282.18 43.4542 284.404 46.8115 286.643 50.1561C286.71 50.2541 286.795 50.338 286.894 50.403C286.994 50.4679 287.105 50.5127 287.221 50.5347C287.865 50.5828 288.518 50.5553 289.169 50.5553V29.5342H287.166V47.4274L286.932 47.479C284.905 44.3443 282.892 41.1992 280.848 38.0748C279.066 35.3541 277.262 32.6449 275.436 29.9471C275.235 29.7011 274.948 29.5401 274.634 29.4963C274.071 29.4574 273.507 29.4551 272.944 29.4894Z" fill="#B50000"/>
<path d="M57.479 47.2244L57.2519 47.3035C57.0592 47.0283 56.8631 46.7564 56.6807 46.4811L46.1237 30.5493C45.3908 29.4413 44.4927 29.1729 43.1816 29.7131V42.7649C43.1816 45.029 43.1816 47.2932 43.1988 49.5574C43.1988 49.8293 43.4053 50.2663 43.6152 50.3385C44.6475 50.6826 45.1017 50.3385 45.1017 49.2546C45.1017 44.038 45.1017 38.8215 45.1017 33.6049C45.1017 33.309 45.1258 33.0096 45.1465 32.49C45.4286 32.8341 45.5903 33.0268 45.7211 33.2229L52.6272 43.6595C53.9692 45.6828 55.3043 47.7096 56.6532 49.7295C57.0489 50.3213 58.3737 50.7377 59.0378 50.3179C59.3337 50.1321 59.4232 49.4473 59.4266 48.9862C59.4507 42.8233 59.4266 36.6605 59.4576 30.5011C59.4576 29.689 59.1754 29.4688 58.4253 29.4688C57.6751 29.4688 57.4618 29.7406 57.4652 30.5011C57.4962 35.7727 57.4825 41.0478 57.4825 46.3297L57.479 47.2244Z" fill="#B50000"/>
<path d="M86.7061 29.541V50.1871H88.6433V40.1256H100.938V50.218H102.844V29.5445H100.924V38.3672H88.5952V29.541H86.7061Z" fill="#B50000"/>
<path d="M253.544 29.6202C253.616 29.8404 253.692 30.0985 253.781 30.3566C254.47 32.3455 255.158 34.3309 255.846 36.3233C257.408 40.8998 258.943 45.4798 260.546 50.046C260.624 50.1743 260.728 50.2841 260.853 50.3678C260.977 50.4516 261.118 50.5074 261.266 50.5312C261.814 50.5775 262.365 50.5856 262.914 50.5553C265.323 43.5253 267.704 36.5607 270.14 29.4894C269.805 29.5122 269.47 29.5122 269.135 29.4894C268.371 29.3759 267.976 29.6305 267.721 30.4185C266.324 34.7817 264.868 39.1243 263.423 43.4737C262.941 44.9189 262.432 46.3538 261.882 47.947C261.745 47.7001 261.621 47.4462 261.51 47.1866C260.942 45.5211 260.374 43.8522 259.82 42.1799C258.588 38.4842 257.384 34.7783 256.128 31.0895C255.543 29.369 255.498 29.369 253.719 29.4963C253.675 29.5032 253.654 29.5342 253.544 29.6202Z" fill="#B50000"/>
<path d="M252.928 46.7186C253.107 44.8088 251.552 42.6823 248.991 42.6513C247.954 42.6793 246.966 43.1004 246.228 43.8293C245.489 44.5583 245.055 45.5406 245.014 46.5775C245.028 47.6139 245.44 48.6053 246.164 49.3469C246.888 50.0884 247.87 50.5235 248.905 50.5622C251.228 50.5828 252.928 48.9552 252.928 46.7186Z" fill="#B50000"/>
<path d="M0.013764 29.5651C2.44656 29.5651 4.87935 29.5135 7.31214 29.5342C8.99883 29.4909 10.6773 29.7833 12.25 30.3944C13.016 30.7161 13.7111 31.1856 14.2956 31.776C14.8801 32.3664 15.3426 33.0662 15.6566 33.8354C17.1706 37.2111 17.2601 40.6418 16.4033 44.1998C15.6944 47.1453 12.6182 50.0701 9.29072 50.2043C6.19381 50.3282 3.09691 50.3316 0 50.3901L0.013764 29.5651ZM1.94761 31.0551V37.1354C1.94761 40.6888 1.94761 44.2445 1.94761 47.8025C1.94761 48.1845 1.82718 48.6421 2.48785 48.6283C4.57998 48.5733 6.71341 48.797 8.74704 48.4425C12.2087 47.8335 13.53 46.9629 14.4694 43.5976C15.3813 40.3389 15.2333 37.1147 13.4371 34.0625C12.6732 32.7722 11.6306 31.85 10.2611 31.6745C7.55301 31.3132 4.80709 31.2512 1.94761 31.0551Z" fill="#B50000"/>
<path d="M303.855 0H383.545C383.545 0.344101 383.586 0.688202 383.586 1.01166C383.586 26.989 383.586 52.9674 383.586 78.947C383.586 79.7591 383.394 80 382.554 80C356.687 79.9748 330.823 79.969 304.963 79.9828C303.841 79.9828 303.841 79.9828 303.841 78.8473V0H303.855ZM348.932 57.1896V45.2905H360.848V34.7542H348.932V22.9068H338.585V34.7748H326.768V45.3009H338.654V57.1896H348.932ZM377.988 38.5393H366.57V41.5398H377.988V38.5393ZM364.2 29.9024L374.196 24.1146L372.654 21.5166L362.675 27.2906C363.205 28.1956 363.677 28.9974 364.2 29.8955V29.9024ZM374.178 55.9336L364.182 50.1458C363.663 51.0508 363.188 51.8663 362.679 52.7713L372.658 58.5384L374.178 55.9336ZM356.45 59.0305L353.849 60.5445L359.62 70.5407L362.211 68.9784C360.287 65.6338 358.391 62.3786 356.454 59.0202L356.45 59.0305ZM359.599 9.5075C357.638 12.9175 355.752 16.1934 353.849 19.5071L356.433 21.0211C358.384 17.6386 360.273 14.3628 362.19 11.0422L359.599 9.5075ZM342.394 5.66734V17.1293H345.24V5.66734H342.394ZM345.295 74.2604V72.6053C345.295 69.6013 345.295 66.5973 345.295 63.5933C345.295 63.3421 345.095 62.9051 344.951 62.8775C344.111 62.8122 343.261 62.8431 342.421 62.8431V74.257L345.295 74.2604Z" fill="#B50000"/>
<path d="M159.677 50.5553V41.3093H151.7V50.5002H147.354V29.6168H151.656V37.4141H159.656V29.6202H164.129C164.129 29.8852 164.174 30.1604 164.174 30.4357C164.174 36.7981 164.174 43.1675 164.191 49.5196C164.191 50.366 163.94 50.6172 163.121 50.5691C162.01 50.5071 160.895 50.5553 159.677 50.5553Z" fill="#B50000"/>
<path d="M223.865 35.7039H219.78C219.601 34.5718 219.092 33.5395 217.939 33.0956C216.219 32.4384 214.498 32.3902 212.829 33.333C211.704 33.9593 211.536 36.3026 213.05 36.8566C214.082 37.2351 215.166 37.5173 216.239 37.8029C217.53 38.147 218.841 38.4119 220.124 38.7836C222.027 39.3376 223.789 40.3527 224.295 42.3072C225.117 45.4626 224.477 48.6524 220.747 50.2008C218.507 51.1416 216.027 51.3476 213.662 50.7893C212.351 50.5002 211.123 50.1836 210.046 49.4129C208.377 48.1913 207.668 46.7254 207.53 44.2513H211.598C212.189 47.4377 214.464 47.6235 217.358 47.4067C217.926 47.3528 218.481 47.2039 218.999 46.9663C219.46 46.7961 219.849 46.4749 220.104 46.055C220.359 45.6351 220.465 45.1413 220.403 44.6539C220.303 43.6216 219.612 43.0952 218.714 42.844C216.738 42.2968 214.736 41.853 212.771 41.2749C211.536 40.9136 210.259 40.6073 209.33 39.5544C208.651 38.7879 208.174 37.8645 207.941 36.8674C207.708 35.8703 207.727 34.8309 207.997 33.8431C208.266 32.8553 208.777 31.9501 209.484 31.2092C210.191 30.4683 211.071 29.9151 212.045 29.5995C214.428 28.8271 216.993 28.8199 219.381 29.5789C222.01 30.3634 224.057 33.0577 223.865 35.7039Z" fill="#B50000"/>
<path d="M168.468 29.5927H172.752V30.5114C172.752 34.7266 172.732 38.9419 172.752 43.1537C172.752 44.7297 173.145 46.1439 174.707 46.9801C177.46 48.4494 180.625 46.6601 180.643 43.5597C180.667 39.2309 180.643 34.9021 180.643 30.5733V29.5927H185.078C185.078 29.8679 185.113 30.1432 185.116 30.4185C185.116 34.7473 185.178 39.0795 185.092 43.4049C185.04 46.02 184.452 48.5423 181.857 49.8602C180.621 50.4756 179.286 50.8704 177.914 51.0267C175.688 51.271 173.461 51.0439 171.476 49.8327C169.363 48.5457 168.379 46.5912 168.379 44.1653C168.355 39.3789 168.379 34.5924 168.379 29.806C168.401 29.7319 168.431 29.6604 168.468 29.5927V29.5927Z" fill="#B50000"/>
<path d="M235.547 38.4945C236.421 36.5779 237.22 34.8264 238.021 33.0749C238.496 32.0426 238.961 31.0103 239.463 29.978C239.516 29.879 239.591 29.793 239.681 29.7264C239.772 29.6597 239.876 29.614 239.986 29.5926C241.466 29.5582 242.945 29.572 244.559 29.572C243.72 31.1583 242.935 32.6345 242.151 34.1107C240.709 36.8635 239.264 39.6163 237.849 42.3691C237.686 42.7274 237.606 43.118 237.615 43.5115C237.595 45.8273 237.615 48.1431 237.615 50.5174H233.283V48.3048C233.231 47.2454 233.239 46.1839 233.307 45.1254C233.51 43.3395 232.843 41.8805 231.996 40.3802C229.997 36.8428 228.111 33.2401 226.146 29.5754C227.774 29.5754 229.34 29.5754 230.902 29.5961C231.018 29.6186 231.128 29.6672 231.222 29.7381C231.317 29.809 231.395 29.9005 231.449 30.0056C232.667 32.5141 233.858 35.0363 235.055 37.5551C235.172 37.8063 235.32 38.0678 235.547 38.4945Z" fill="#B50000"/>
<path d="M199.083 50.514H194.775V48.7488C194.775 47.5169 194.719 46.2816 194.775 45.0531C194.872 43.6316 194.531 42.2143 193.797 40.9928C191.781 37.507 189.905 33.9146 187.972 30.3635C187.855 30.1433 187.765 29.9058 187.61 29.5583C189.269 29.5583 190.831 29.5308 192.39 29.5893C192.62 29.5893 192.91 29.9781 193.04 30.2499C194.286 32.841 195.504 35.4424 196.732 38.0438C196.818 38.1848 196.912 38.3203 197.015 38.4499C197.6 37.1973 198.154 36.0411 198.687 34.8574C199.406 33.2815 200.087 31.6848 200.841 30.1226C200.929 29.9794 201.048 29.8576 201.189 29.7659C201.33 29.6743 201.49 29.6151 201.657 29.5927C203.06 29.5376 204.464 29.5686 206.023 29.5686L204.065 33.2161C202.475 36.2407 200.879 39.2619 199.31 42.2969C199.148 42.6579 199.069 43.0507 199.079 43.4462C199.072 45.7654 199.083 48.0916 199.083 50.514Z" fill="#B50000"/>
<path d="M144.701 29.3518V33.0337H141.979C141.177 33.0337 140.372 33.0956 139.571 33.0337C138.769 32.9717 138.514 33.3537 138.511 34.066C138.511 35.0398 138.511 36.0136 138.511 36.9874C138.511 41.0226 138.511 45.0612 138.511 49.1032C138.511 50.1355 138.421 50.2387 137.389 50.2422C136.584 50.2422 135.782 50.2147 134.98 50.2422C134.251 50.2731 134.006 49.9875 134.01 49.2408C134.041 44.2273 134.027 39.2172 134.027 34.2036C134.027 33.1404 133.951 33.0681 132.916 33.0681H127.871V29.3518H144.701Z" fill="#B50000"/>
<path d="M73.0044 41.471V39.5716H81.8478V50.3901H80.2099V46.9938C78.6718 49.375 76.6794 50.5794 74.1469 50.9338C70.7058 51.4121 67.7397 50.6138 65.5443 47.7887C63.9924 45.7964 63.5795 43.4221 63.435 40.9755C63.2733 38.2227 63.5623 35.5043 64.925 33.0956C65.7845 31.5448 67.1713 30.3533 68.8339 29.7372C72.1373 28.5466 75.3719 28.5638 78.4412 30.4563C80.1617 31.5231 81.4865 33.7941 81.5381 35.549C81.342 35.549 81.1424 35.549 80.9497 35.5869C80.0654 35.7108 79.6009 35.4802 79.2292 34.4995C78.9001 33.5771 78.3337 32.7578 77.587 32.124C76.8403 31.4903 75.9398 31.0646 74.9761 30.8899C71.9756 30.2361 69.2916 30.7798 67.2889 33.2986C66.1568 34.7266 65.682 36.4506 65.4996 38.2158C65.2484 40.6245 65.2484 43.0332 66.3977 45.3249C66.8704 46.2977 67.5555 47.1519 68.4023 47.8246C69.2492 48.4973 70.2362 48.9713 71.2907 49.2118C72.3451 49.4522 73.4401 49.4528 74.4948 49.2137C75.5496 48.9745 76.5372 48.5017 77.3848 47.83C79.1329 46.433 79.7695 44.4819 79.9381 42.3244C79.9587 42.0663 79.9725 41.8117 79.9966 41.4573L73.0044 41.471Z" fill="#B50000"/>
<path d="M272.944 29.4895C273.507 29.4597 274.072 29.4666 274.634 29.5101C274.948 29.5539 275.235 29.7149 275.436 29.9609C277.271 32.6586 279.075 35.3679 280.848 38.0886C282.892 41.213 284.905 44.3581 286.932 47.4928L287.166 47.4412V29.548H289.169V50.5691C288.518 50.5691 287.865 50.5966 287.221 50.5485C287.105 50.5265 286.994 50.4817 286.894 50.4168C286.795 50.3518 286.71 50.268 286.643 50.1699C284.409 46.8184 282.185 43.4611 279.971 40.0981C278.391 37.6894 276.846 35.2807 275.281 32.8513C275.209 32.7378 275.109 32.6414 274.878 32.3593V50.5209H272.944V29.4895Z" fill="#B50000"/>
<path d="M57.4781 47.2244V46.3126C57.4781 41.041 57.4781 35.7659 57.4609 30.4839C57.4609 29.7338 57.688 29.4757 58.421 29.4516C59.1539 29.4275 59.4533 29.6684 59.4533 30.4839C59.4223 36.6433 59.4533 42.8062 59.4223 48.969C59.4223 49.4301 59.3294 50.1149 59.0335 50.3007C58.3659 50.7205 57.0446 50.3007 56.6489 49.7123C55.3 47.6924 53.9649 45.6657 52.6229 43.6424L45.7271 33.223C45.5963 33.0268 45.4346 32.8513 45.1524 32.49C45.1318 33.0096 45.1077 33.309 45.1077 33.6049C45.1077 38.8215 45.1077 44.0381 45.1077 49.2546C45.1077 50.3351 44.6501 50.693 43.6212 50.3386C43.4113 50.2663 43.2117 49.8293 43.2048 49.5575C43.1739 47.2933 43.1876 45.0291 43.1876 42.7649V29.7131C44.4986 29.1798 45.3968 29.4413 46.1297 30.5493L56.6833 46.4812C56.8656 46.7565 57.0618 47.0283 57.2545 47.3036L57.4781 47.2244Z" fill="#B50000"/>
<path d="M19.9031 40.1462C19.8282 37.383 20.6623 34.6715 22.2774 32.4281C22.9409 31.4919 23.7975 30.7088 24.7894 30.1319C25.7813 29.5549 26.8855 29.1974 28.0273 29.0834C30.288 28.7875 32.535 29.0318 34.5652 30.2121C37.287 31.788 38.5636 34.2965 39.0832 37.3005C39.4612 39.3791 39.4073 41.5132 38.925 43.5701C37.6621 48.8382 32.8172 51.7803 27.5283 50.7033C23.055 49.788 21.0317 46.5362 20.1508 42.61C20.0179 41.7946 19.9352 40.9718 19.9031 40.1462V40.1462ZM37.3559 39.9914C37.4042 38.3241 37.0896 36.6663 36.4337 35.1327C35.1639 32.2147 32.9204 30.7729 29.7891 30.6938C26.6578 30.6147 24.3798 32.0358 23.0413 34.823C21.7027 37.6102 21.5995 40.6039 22.4391 43.5528C23.2959 46.5637 25.1919 48.5354 28.4264 49.1066C29.9725 49.3812 31.5658 49.1526 32.9724 48.4546C34.3789 47.7566 35.5246 46.6259 36.241 45.2286C37.0634 43.5735 37.3077 41.8048 37.3559 39.9914Z" fill="#B50000"/>
<path d="M106.637 40.0086C106.604 37.1884 107.501 34.4359 109.19 32.1769C110.379 30.613 112.103 29.5413 114.031 29.166C116.86 28.5638 119.568 28.9182 121.946 30.5734C124.516 32.3455 125.61 34.9951 125.954 38.0059C126.183 39.6472 126.125 41.3156 125.782 42.9369C125.373 44.7331 124.75 46.3779 123.415 47.7543C122.08 49.1307 120.624 50.2284 118.684 50.6276C114.289 51.5325 109.3 49.8499 107.7 45.0669C107.387 44.2804 107.122 43.4761 106.905 42.6582C106.767 41.7806 106.677 40.8961 106.637 40.0086ZM124.096 39.606C124.119 38.0182 123.798 36.4442 123.157 34.9916C121.061 29.8301 113.883 29.1866 110.694 33.3262C108.815 35.7624 108.519 38.6116 108.808 41.5639C109.032 43.866 109.813 45.9616 111.602 47.4653C115.043 50.3729 121.061 49.6331 123.133 44.9293C123.845 43.2484 124.174 41.4299 124.096 39.606Z" fill="#B50000"/>
<path d="M86.7061 29.541H88.5952V38.3672H100.924V29.5445H102.844V50.218H100.938V40.1256H88.6433V50.2008H86.7061V29.541Z" fill="#B50000"/>
<path d="M253.544 29.6202C253.654 29.5342 253.675 29.5032 253.699 29.5032C255.485 29.3897 255.529 29.3759 256.108 31.0964C257.363 34.7852 258.568 38.4911 259.8 42.1868C260.354 43.8591 260.921 45.528 261.489 47.1934C261.6 47.4531 261.724 47.7069 261.861 47.9539C262.411 46.347 262.921 44.9121 263.402 43.4806C264.848 39.1312 266.303 34.7886 267.7 30.4254C267.955 29.6374 268.351 29.3931 269.115 29.4963C269.449 29.5191 269.785 29.5191 270.119 29.4963C267.711 36.5676 265.302 43.5322 262.893 50.5622C262.344 50.5925 261.793 50.5844 261.245 50.5381C261.097 50.5143 260.956 50.4585 260.832 50.3747C260.708 50.2909 260.603 50.1811 260.526 50.0529C258.936 45.4867 257.388 40.9067 255.825 36.3302C255.137 34.3378 254.449 32.3524 253.761 30.3635C253.692 30.0985 253.616 29.8404 253.544 29.6202Z" fill="#B50000"/>
<path d="M252.928 46.7186C252.928 48.9552 251.207 50.5725 248.902 50.5622C247.867 50.5226 246.886 50.0872 246.163 49.3457C245.439 48.6043 245.028 47.6134 245.014 46.5775C245.06 45.5425 245.496 44.5635 246.236 43.8379C246.975 43.1124 247.963 42.6945 248.998 42.6685C251.552 42.6685 253.114 44.8088 252.928 46.7186Z" fill="#B50000"/>
</svg>
