<svg width="26" height="25" viewBox="0 0 26 25" fill="none" xmlns="http://www.w3.org/2000/svg">
<path d="M0.874023 23.999C2.10358 21.8712 3.87137 20.1045 5.99985 18.8761C8.12832 17.6478 10.5425 17.0012 13 17.0012C15.4575 17.0012 17.8717 17.6478 20.0002 18.8761C22.1287 20.1045 23.8965 21.8712 25.126 23.999M13 17C15.1218 17 17.1566 16.1571 18.6569 14.6569C20.1572 13.1566 21 11.1217 21 9C21 6.87827 20.1572 4.84344 18.6569 3.34315C17.1566 1.84285 15.1218 1 13 1C10.8783 1 8.84346 1.84285 7.34317 3.34315C5.84288 4.84344 5.00002 6.87827 5.00002 9C5.00002 11.1217 5.84288 13.1566 7.34317 14.6569C8.84346 16.1571 10.8783 17 13 17V17Z" stroke="white" stroke-linecap="round" stroke-linejoin="round"/>
</svg>
