<svg width="28" height="24" viewBox="0 0 28 24" fill="none" xmlns="http://www.w3.org/2000/svg">
<path d="M14.7067 22.485L24.8367 12.356C27.3247 9.86699 27.6917 5.77299 25.3367 3.15699C24.7467 2.50009 24.029 1.97027 23.2274 1.59986C22.4259 1.22945 21.5573 1.02621 20.6746 1.00254C19.7919 0.978861 18.9137 1.13525 18.0934 1.46216C17.2732 1.78908 16.5281 2.27966 15.9037 2.90399L13.9997 4.80799L12.3557 3.16399C9.86672 0.674988 5.77272 0.307988 3.15672 2.66399C2.49984 3.25395 1.97005 3.97155 1.59965 4.77301C1.22925 5.57447 1.02601 6.443 1.00234 7.32559C0.978663 8.20819 1.13505 9.08636 1.46195 9.90652C1.78885 10.7267 2.27941 11.4717 2.90372 12.096L13.2927 22.486C13.4802 22.6735 13.7346 22.7788 13.9997 22.7788C14.2649 22.7788 14.5192 22.6735 14.7067 22.486V22.485Z" stroke="white" stroke-linecap="round" stroke-linejoin="round"/>
</svg>
