<svg width="72" height="51" viewBox="0 0 72 51" fill="none" xmlns="http://www.w3.org/2000/svg">
<g clip-path="url(#clip0_2383_23024)">
<path opacity="0.08" d="M13.0021 33.1644C11.3905 33.1644 9.87465 33.1644 8.37477 33.1644C3.58791 33.1644 0.316895 29.891 0.316895 25.1327C0.316895 19.4164 0.316895 13.716 0.316895 7.99969C0.316895 3.30526 3.58791 0.0319349 8.26307 0.0159674C13.9435 0 19.6239 0.0159674 25.3043 0C26.517 0 27.3626 0.463056 28.0168 1.469C29.9475 4.50282 31.7825 7.56857 32.6441 11.0974C33.9366 16.3028 33.6653 21.4922 32.325 26.6177C30.8251 32.4139 28.2562 37.7151 24.3948 42.3297C20.4696 47.0241 15.3636 49.6268 9.38001 50.505C7.38548 50.7924 5.37501 50.8882 3.36453 50.984C1.70508 51.0639 0.699843 50.3134 0.396675 48.9242C0.12542 47.6468 0.779624 46.577 2.29546 45.9224C4.78463 44.8525 7.08232 43.5113 8.85345 41.4195C10.8958 39.0404 11.949 36.1503 13.0021 33.1644ZM13.3371 44.118C15.922 43.1919 18.108 41.675 19.943 39.6791C23.3098 36.0066 25.4958 31.6475 26.9318 26.953C29.1976 19.5601 29.1338 12.3588 24.6182 5.66844C24.3469 5.26925 24.0916 5.10958 23.6129 5.10958C18.491 5.10958 13.3691 5.10958 8.26307 5.10958C6.42811 5.10958 5.42287 6.14746 5.42287 7.98372C5.42287 13.716 5.42287 19.4483 5.42287 25.1807C5.42287 27.0169 6.44407 28.0548 8.27903 28.0548C11.0075 28.0548 13.736 28.0388 16.4805 28.0548C18.3474 28.0708 19.5441 29.6356 18.9697 31.4239C17.5177 35.8469 16.1295 40.2858 13.3371 44.118Z" fill="#B50000"/>
<path opacity="0.08" d="M51.2331 33.1644C49.5737 33.1644 48.0259 33.1644 46.4941 33.1644C41.819 33.1484 38.5479 29.8751 38.532 25.1807C38.516 19.4483 38.516 13.716 38.532 7.96775C38.532 3.3372 41.8349 0.0159674 46.4303 0.0159674C52.1426 0 57.8549 0.0159674 63.5513 0C64.732 0 65.5777 0.447088 66.2 1.43707C68.1147 4.47088 69.9816 7.53663 70.8592 11.0654C72.1038 16.0632 71.8964 21.077 70.6996 26.0429C69.2795 31.9189 66.7266 37.284 62.913 41.9944C58.9559 46.8964 53.7382 49.6108 47.5632 50.505C45.5527 50.7924 43.4944 50.8882 41.4679 50.984C39.9042 51.0639 38.899 50.2655 38.6118 48.9083C38.3565 47.6947 39.0107 46.593 40.4148 45.9862C42.8082 44.9324 45.074 43.671 46.8452 41.691C49.0152 39.2639 50.1321 36.294 51.2331 33.1644ZM51.4884 44.0861C51.6001 44.1021 51.6639 44.134 51.7118 44.118C51.9033 44.0382 52.1107 43.9743 52.3022 43.8785C54.5679 42.8726 56.5465 41.4674 58.19 39.6312C61.8121 35.6074 64.1417 30.8491 65.5298 25.6756C67.3967 18.6819 67.0776 11.9117 62.8652 5.66844C62.578 5.23732 62.3067 5.07765 61.7961 5.07765C56.7061 5.09361 51.6161 5.09361 46.5101 5.09361C44.6751 5.09361 43.638 6.11553 43.638 7.93582C43.638 13.7001 43.638 19.4643 43.638 25.2126C43.638 27.0329 44.6751 28.0388 46.526 28.0388C49.095 28.0388 51.6799 28.1346 54.2488 28.0069C56.3391 27.8951 57.8868 29.6036 57.0571 31.9189C55.5413 36.1503 54.2329 40.4296 51.4884 44.0861Z" fill="#B50000"/>
</g>
<defs>
<clipPath id="clip0_2383_23024">
<rect width="71.388" height="51" fill="white" transform="translate(0.316895)"/>
</clipPath>
</defs>
</svg>
