<svg width="72" height="51" viewBox="0 0 72 51" fill="none" xmlns="http://www.w3.org/2000/svg">
<g clip-path="url(#clip0_2383_23021)">
<path opacity="0.08" d="M58.8666 33.1644C60.4782 33.1644 61.994 33.1644 63.4939 33.1644C68.2807 33.1644 71.5518 29.891 71.5518 25.1327C71.5518 19.4164 71.5518 13.716 71.5518 7.99969C71.5518 3.30526 68.2807 0.0319349 63.6056 0.0159674C57.9252 0 52.2448 0.0159674 46.5644 0C45.3517 0 44.506 0.463056 43.8518 1.469C41.9211 4.50282 40.0862 7.56857 39.2245 11.0974C37.9321 16.3028 38.2033 21.4922 39.5436 26.6177C41.0435 32.4139 43.6125 37.7151 47.4739 42.3297C51.3991 47.0241 56.5051 49.6268 62.4886 50.505C64.4832 50.7924 66.4936 50.8882 68.5041 50.984C70.1636 51.0639 71.1688 50.3134 71.472 48.9242C71.7432 47.6468 71.089 46.577 69.5732 45.9224C67.084 44.8525 64.7863 43.5113 63.0152 41.4195C60.9728 39.0404 59.9197 36.1503 58.8666 33.1644ZM58.5315 44.118C55.9466 43.1919 53.7606 41.675 51.9256 39.6791C48.5589 36.0066 46.3729 31.6475 44.9368 26.953C42.6711 19.5601 42.7349 12.3588 47.2505 5.66844C47.5217 5.26925 47.777 5.10958 48.2557 5.10958C53.3777 5.10958 58.4996 5.10958 63.6056 5.10958C65.4405 5.10958 66.4458 6.14746 66.4458 7.98372C66.4458 13.716 66.4458 19.4483 66.4458 25.1807C66.4458 27.0169 65.4246 28.0548 63.5896 28.0548C60.8611 28.0548 58.1326 28.0388 55.3881 28.0548C53.5213 28.0708 52.3246 29.6356 52.899 31.4239C54.351 35.8469 55.7392 40.2858 58.5315 44.118Z" fill="#B50000"/>
<path opacity="0.08" d="M20.6355 33.1644C22.295 33.1644 23.8427 33.1644 25.3745 33.1644C30.0497 33.1484 33.3207 29.8751 33.3367 25.1807C33.3526 19.4483 33.3526 13.716 33.3367 7.96775C33.3367 3.33719 30.0337 0.0159674 25.4384 0.0159674C19.726 0 14.0137 0.0159674 8.31738 0C7.13662 0 6.29094 0.447088 5.66865 1.43707C3.75391 4.47088 1.88703 7.53663 1.00944 11.0654C-0.235141 16.0632 -0.027711 21.077 1.169 26.0429C2.5891 31.9189 5.1421 37.284 8.95562 41.9944C12.9128 46.8964 18.1304 49.6108 24.3055 50.505C26.3159 50.7924 28.3743 50.8882 30.4007 50.984C31.9644 51.0639 32.9697 50.2655 33.2569 48.9083C33.5122 47.6947 32.858 46.593 31.4538 45.9862C29.0604 44.9324 26.7946 43.6709 25.0235 41.691C22.8535 39.2639 21.7365 36.294 20.6355 33.1644ZM20.3802 44.0861C20.2686 44.1021 20.2047 44.134 20.1569 44.118C19.9654 44.0382 19.758 43.9743 19.5665 43.8785C17.3007 42.8726 15.3221 41.4674 13.6786 39.6312C10.0566 35.6074 7.72699 30.8491 6.33881 25.6756C4.47193 18.6819 4.79106 11.9117 9.00349 5.66844C9.2907 5.23732 9.56196 5.07765 10.0726 5.07765C15.1626 5.09361 20.2526 5.09361 25.3586 5.09361C27.1935 5.09361 28.2307 6.11553 28.2307 7.93582C28.2307 13.7001 28.2307 19.4643 28.2307 25.2126C28.2307 27.0329 27.1935 28.0388 25.3426 28.0388C22.7737 28.0388 20.1888 28.1346 17.6198 28.0069C15.5296 27.8951 13.9818 29.6036 14.8115 31.9189C16.3274 36.1503 17.6358 40.4296 20.3802 44.0861Z" fill="#B50000"/>
</g>
<defs>
<clipPath id="clip0_2383_23021">
<rect width="71.388" height="51" fill="white" transform="matrix(-1 0 0 1 71.5518 0)"/>
</clipPath>
</defs>
</svg>
