<svg xmlns="http://www.w3.org/2000/svg" xmlns:xlink="http://www.w3.org/1999/xlink" class="hidden">
	<symbol id="icon-header-location" viewBox="0 0 19 24">
		<path d="M9.5,13.3c-1,0-2-0.4-2.7-1.1C6,11.5,5.6,10.5,5.6,9.5c0-1,0.4-2,1.1-2.7c1.5-1.5,4-1.5,5.5,0
		c0.7,0.7,1.1,1.7,1.1,2.7s-0.4,2-1.1,2.7C11.5,12.9,10.5,13.3,9.5,13.3z M9.5,6.6c-0.8,0-1.5,0.3-2,0.8s-0.8,1.3-0.8,2
		c0,0.8,0.3,1.5,0.8,2c1.1,1.1,3,1.1,4.1,0c0.5-0.5,0.8-1.3,0.8-2S12,8,11.5,7.4C11,6.9,10.2,6.6,9.5,6.6z"/>
		<path d="M9.5,23.5c-0.1,0-0.2,0-0.3-0.1c-0.4-0.2-8.7-6.2-8.7-13.9c0-2.4,0.9-4.6,2.6-6.3c1.7-1.7,3.9-2.6,6.3-2.6
		c2.4,0,4.6,0.9,6.3,2.6c1.7,1.7,2.6,3.9,2.6,6.3c0,7.8-8.3,13.7-8.7,13.9C9.7,23.5,9.6,23.5,9.5,23.5z M9.5,1.5
		c-2.1,0-4.1,0.8-5.6,2.3C2.3,5.3,1.5,7.3,1.5,9.5c0,6.5,6.5,11.8,8,12.9c1.5-1.1,8-6.4,8-12.9c0-2.1-0.8-4.1-2.3-5.6
		C13.6,2.3,11.6,1.5,9.5,1.5z"/>
	</symbol>

	<symbol id="icon-header-phone" viewBox="0 0 24 24">
		<path d="M17.2,23.5c-4.5,0-8.7-1.7-11.9-4.9c-3.2-3.2-4.9-7.4-4.9-11.9c0-1.5,0.6-3,1.6-4.1c1-1.1,2.4-1.9,3.9-2.1
		c0.3,0,0.6,0,0.9,0.2s0.5,0.4,0.6,0.7L9.8,7c0.1,0.2,0.1,0.5,0.1,0.7c0,0.2-0.1,0.5-0.2,0.7l-2,3c0,0.1-0.1,0.1-0.1,0.2
		c0,0.1,0,0.2,0,0.2c0.9,1.9,2.5,3.5,4.4,4.4c0.1,0,0.1,0,0.2,0c0.1,0,0.2,0,0.2-0.1l3-2c0.2-0.1,0.4-0.2,0.7-0.2
		c0.2,0,0.5,0,0.7,0.1l5.6,2.4c0.3,0.1,0.5,0.3,0.7,0.6c0.2,0.3,0.2,0.6,0.2,0.9c-0.2,1.5-0.9,2.9-2.1,3.9
		C20.2,22.9,18.7,23.5,17.2,23.5z M6.1,1.5C6,1.5,6,1.5,6.1,1.5C4.7,1.7,3.6,2.3,2.7,3.2c-0.8,1-1.3,2.2-1.3,3.5
		c0,4.2,1.6,8.2,4.6,11.2c3,3,6.9,4.6,11.2,4.6c1.3,0,2.5-0.5,3.5-1.3c1-0.8,1.6-2,1.7-3.3c0-0.1,0-0.2-0.1-0.3
		c0-0.1-0.1-0.2-0.2-0.2L16.5,15c-0.1,0-0.1,0-0.2,0c-0.1,0-0.1,0-0.2,0.1l-3,2c-0.2,0.1-0.5,0.2-0.7,0.2c-0.2,0-0.5,0-0.7-0.1
		c-2.1-1-3.9-2.8-4.9-4.9c0,0,0,0,0,0c-0.1-0.2-0.2-0.5-0.1-0.7c0-0.3,0.1-0.5,0.2-0.7l2-3c0-0.1,0.1-0.1,0.1-0.2c0-0.1,0-0.2,0-0.2
		L6.5,1.8c0-0.1-0.1-0.2-0.2-0.2C6.2,1.5,6.1,1.5,6.1,1.5z"/>
	</symbol>
	<symbol id="icon-header-search" viewBox="0 0 23 24">
		<path d="M22.5,23.5c-0.1,0-0.3,0-0.4-0.1l-5.2-5.2c-1.8,1.6-4.2,2.6-6.8,2.6C4.5,20.8,0,16.2,0,10.6S4.5,0.5,10.1,0.5
		S20.2,5,20.2,10.6c0,2.6-1,5-2.6,6.8l5.2,5.2c0.2,0.2,0.2,0.5,0,0.7C22.8,23.5,22.6,23.5,22.5,23.5z M10.1,1.5c-5,0-9.1,4.1-9.1,9.1
		c0,5,4.1,9.1,9.1,9.1c5,0,9.1-4.1,9.1-9.1C19.2,5.6,15.2,1.5,10.1,1.5z"/>
	</symbol>

	<symbol id="icon-header-account" viewBox="0 0 27 25">
	<path fill-rule="evenodd" clip-rule="evenodd" d="M7.39724 2.59154C9.05659 0.932179 11.3072 -3.8147e-05 13.6538 -3.8147e-05C16.0005 -3.8147e-05 18.2511 0.932179 19.9105 2.59154C21.5698 4.25089 22.502 6.50146 22.502 8.84815C22.502 11.1948 21.5698 13.4454 19.9105 15.1048C19.0567 15.9585 18.0464 16.6198 16.947 17.0607C18.4374 17.3934 19.875 17.9514 21.2086 18.7211C23.5057 20.0467 25.4136 21.9535 26.7405 24.2498C26.8787 24.4889 26.7969 24.7947 26.5578 24.9329C26.3187 25.071 26.0129 24.9892 25.8747 24.7501C24.6355 22.6057 22.8539 20.8251 20.7088 19.5872C18.5637 18.3492 16.1306 17.6975 13.6538 17.6975C11.1771 17.6975 8.74404 18.3492 6.59892 19.5872C4.45379 20.8251 2.67217 22.6057 1.433 24.7501C1.29484 24.9892 0.989011 25.071 0.749917 24.9329C0.510824 24.7947 0.429004 24.4889 0.567166 24.2498C1.89413 21.9535 3.80198 20.0467 6.09909 18.7211C7.43274 17.9514 8.87033 17.3934 10.3607 17.0607C9.2613 16.6198 8.25101 15.9585 7.39724 15.1048C5.73788 13.4454 4.80566 11.1948 4.80566 8.84815C4.80566 6.50146 5.73788 4.25089 7.39724 2.59154ZM13.6538 0.999962C11.5724 0.999962 9.57616 1.82682 8.10434 3.29864C6.63252 4.77046 5.80566 6.76668 5.80566 8.84815C5.80566 10.9296 6.63252 12.9258 8.10434 14.3977C9.57616 15.8695 11.5724 16.6963 13.6538 16.6963C15.7353 16.6963 17.7315 15.8695 19.2034 14.3977C20.6752 12.9258 21.502 10.9296 21.502 8.84815C21.502 6.76668 20.6752 4.77046 19.2034 3.29864C17.7315 1.82682 15.7353 0.999962 13.6538 0.999962Z"/>
	</symbol>

	<symbol id="icon-header-wishlist" viewBox="0 0 30 25">
		<path d="M15.1,25c-0.4,0-0.8-0.2-1.1-0.5L2.6,13.1c-0.7-0.7-1.3-1.6-1.7-2.6c-0.4-1-0.6-2-0.5-3c0-1,0.3-2.1,0.7-3
		c0.4-1,1.1-1.8,1.8-2.5c3-2.7,7.8-2.4,10.8,0.6L15.1,4l1.7-1.7c0.7-0.7,1.6-1.3,2.6-1.7c1-0.4,2-0.6,3-0.5c1,0,2.1,0.3,3,0.7
		c1,0.4,1.8,1.1,2.5,1.8c2.7,3,2.4,7.8-0.6,10.8L16.3,24.5C16,24.8,15.6,25,15.1,25z M15.6,23.8l0.4,0.4L15.6,23.8l11.2-11.2
		c2.6-2.6,2.9-6.9,0.5-9.4c-0.6-0.7-1.3-1.2-2.2-1.6C24.3,1.2,23.4,1,22.5,1c-0.9,0-1.8,0.1-2.6,0.5C19,1.8,18.2,2.3,17.6,3L15.5,5
		c-0.1,0.1-0.2,0.1-0.4,0.1l0,0c-0.1,0-0.3-0.1-0.4-0.1L13,3.2c-2.6-2.6-6.9-2.9-9.4-0.5C2.8,3.3,2.3,4,1.9,4.9
		C1.5,5.7,1.3,6.6,1.3,7.5c0,0.9,0.1,1.8,0.5,2.6c0.3,0.8,0.8,1.6,1.5,2.2l11.4,11.5C14.9,24,15.3,24,15.6,23.8z"/>
	</symbol>

	<symbol id="icon-header-cart" viewBox="0 0 23 25">
		<path d="M21.3,25h-19c-0.8,0-1.4-0.7-1.4-1.5V6.8c0-0.9,0.6-1.5,1.4-1.5h19c0.8,0,1.4,0.7,1.4,1.5v16.7
		C22.7,24.3,22.1,25,21.3,25z M2.3,6.2c-0.2,0-0.4,0.2-0.4,0.5v16.7c0,0.3,0.2,0.5,0.4,0.5h19c0.2,0,0.4-0.2,0.4-0.5V6.8
		c0-0.3-0.2-0.5-0.4-0.5H2.3z"/>
	<path d="M17.1,11.4c-0.3,0-0.5-0.2-0.5-0.5c0-0.2,0-0.5,0-0.8c0.1-2,0.3-6.1-1.4-7.7C14.3,1.5,13.1,1,11.9,1
		S9.4,1.5,8.5,2.4c-1.7,1.7-1.5,5.8-1.4,7.7c0,0.3,0,0.6,0,0.8c0,0.3-0.2,0.5-0.5,0.5s-0.5-0.2-0.5-0.5c0-0.2,0-0.5,0-0.8
		C6,8,5.9,3.7,7.8,1.7c1.1-1.1,2.5-1.7,4-1.7c1.5,0,3,0.6,4,1.7c2,2,1.8,6.4,1.7,8.5c0,0.3,0,0.6,0,0.8
		C17.6,11.2,17.4,11.4,17.1,11.4z"/>
	</symbol>

	<symbol id="icon-theme-arr-right" viewBox="0 0 8 16">
		<path d="M0.1,1.3l0.6-0.6L7.9,8l-7.3,7.3l-0.6-0.6L6.7,8L0.1,1.3z"/>
	</symbol>

	<symbol id="icon-theme-arr-left" viewBox="0 0 10 16">
		<path d="M9.05444 14.8909L8.44537 15.5L0.945366 8L8.44537 0.5L9.05444 1.10908L2.16352 8L9.05444 14.8909Z" />
	</symbol>

	<symbol id="icon-theme-arr-up" viewBox="0 0 16 8">
		<path d="M14.7,0.1l0.6,0.6L8,7.9L0.7,0.7l0.6-0.6L8,6.7L14.7,0.1z"/>
	</symbol>

	<symbol id="icon-theme-arr-down" viewBox="0 0 16 8">
		<mask id="mask0_1012_788" style="mask-type:alpha" maskUnits="userSpaceOnUse" x="0" y="0" width="16" height="8">
		<path d="M1.33327 7.92261L0.744013 7.33335L7.99994 0.0774299L15.2559 7.33335L14.6666 7.92261L7.99994 1.25594L1.33327 7.92261Z" fill="white"/>
		</mask>
		<g mask="url(#mask0_1012_788)">
		<path d="M1.33327 7.92261L0.744013 7.33335L7.99994 0.0774299L15.2559 7.33335L14.6666 7.92261L7.99994 1.25594L1.33327 7.92261Z" />
		<path d="M-2.00012 14L17.9999 14L17.9999 -6L-2.00012 -6L-2.00012 14Z" />
		</g>
	</symbol>

	<symbol id="icon-sticky-phone" viewBox="0 0 20 20">
		<path d="M14.9056 19.1889C14.7187 19.1884 14.5325 19.1679 14.35 19.1278C10.8759 18.4091 7.67534 16.7241 5.11667 14.2667C2.6126 11.8038 0.875888 8.6681 0.116669 5.23889C0.0271477 4.8115 0.0491198 4.36827 0.180472 3.95184C0.311823 3.53541 0.548134 3.15978 0.866669 2.86111L3.08889 0.72222C3.20239 0.61488 3.33726 0.532681 3.48468 0.480988C3.6321 0.429295 3.78876 0.40927 3.94445 0.42222C4.10587 0.439061 4.26165 0.491061 4.40082 0.574564C4.53999 0.658067 4.65918 0.771045 4.75 0.905554L7.52778 5.01111C7.63195 5.17041 7.68223 5.35894 7.67123 5.54896C7.66023 5.73898 7.58852 5.92045 7.46667 6.06666L6.07222 7.73333C6.62759 8.96247 7.41408 10.0734 8.38889 11.0056C9.35739 11.9716 10.5021 12.7429 11.7611 13.2778L13.4889 11.9056C13.634 11.7909 13.8106 11.7231 13.9952 11.7112C14.1797 11.6992 14.3636 11.7438 14.5222 11.8389L18.7167 14.55C18.8606 14.6359 18.9832 14.7533 19.0754 14.8934C19.1675 15.0335 19.2267 15.1926 19.2486 15.3588C19.2705 15.525 19.2546 15.694 19.2019 15.8531C19.1492 16.0123 19.0612 16.1575 18.9444 16.2778L16.7778 18.4222C16.5317 18.6671 16.2395 18.8609 15.9182 18.9925C15.5969 19.1241 15.2528 19.1908 14.9056 19.1889ZM3.85556 1.52222L1.63334 3.66111C1.45414 3.82808 1.32149 4.03882 1.24844 4.2726C1.17538 4.50638 1.16443 4.75515 1.21667 4.99444C1.92263 8.2123 3.5454 11.1568 5.88889 13.4722C8.29678 15.7842 11.3087 17.3691 14.5778 18.0444C14.8252 18.0962 15.0816 18.0857 15.324 18.0139C15.5664 17.9422 15.7872 17.8114 15.9667 17.6333L18.1333 15.4889L14.0833 12.8722L12.2278 14.35C12.1567 14.4062 12.073 14.4442 11.984 14.4607C11.8949 14.4771 11.8031 14.4716 11.7167 14.4444C10.1759 13.8768 8.7797 12.9757 7.62778 11.8056C6.43631 10.6929 5.51146 9.32556 4.92222 7.80555C4.8973 7.71353 4.89647 7.61665 4.91982 7.52421C4.94317 7.43178 4.98992 7.34691 5.05556 7.27778L6.55556 5.48333L3.85556 1.52222Z" />
	</symbol>


	<symbol id="icon-sticky-mess" viewBox="0 0 21 20">
		<path d="M3.8475 14.3675C3.97725 14.4977 4.07667 14.655 4.13868 14.8281C4.20069 15.0011 4.22376 15.1857 4.20625 15.3687C4.1184 16.2157 3.95185 17.0527 3.70875 17.8687C5.4525 17.465 6.5175 16.9975 7.00125 16.7525C7.27563 16.6135 7.59161 16.5806 7.88875 16.66C8.74054 16.8871 9.61846 17.0014 10.5 17C15.495 17 19.25 13.4913 19.25 9.5C19.25 5.51 15.495 2 10.5 2C5.505 2 1.75 5.51 1.75 9.5C1.75 11.335 2.52125 13.0375 3.8475 14.3675ZM3.23125 19.2487C2.93509 19.3075 2.63796 19.3612 2.34 19.41C2.09 19.45 1.9 19.19 1.99875 18.9575C2.10974 18.6957 2.21147 18.4302 2.30375 18.1612L2.3075 18.1488C2.6175 17.2487 2.87 16.2138 2.9625 15.25C1.42875 13.7125 0.5 11.7 0.5 9.5C0.5 4.6675 4.9775 0.75 10.5 0.75C16.0225 0.75 20.5 4.6675 20.5 9.5C20.5 14.3325 16.0225 18.25 10.5 18.25C9.50956 18.2513 8.52323 18.1227 7.56625 17.8675C6.91625 18.1963 5.5175 18.795 3.23125 19.2487Z" />
	</symbol>

	<symbol id="icon-sticky-up" viewBox="0 0 17 19">
		<path d="M8.5,18.5c-0.6,0-1-0.4-1-1v-16c0-0.6,0.4-1,1-1c0.6,0,1,0.4,1,1v16C9.5,18.1,9.1,18.5,8.5,18.5z"/>
		<path d="M15.5,9.5c-0.3,0-0.5-0.1-0.7-0.3L8.5,2.9L2.2,9.2c-0.4,0.4-1,0.4-1.4,0s-0.4-1,0-1.4l7-7c0.4-0.4,1-0.4,1.4,0
			l7,7c0.4,0.4,0.4,1,0,1.4C16,9.4,15.8,9.5,15.5,9.5z"/>
	</symbol>

	<symbol id="icon-theme-filter" viewBox="0 0 15 13">
		<path d="M5.25 10.4067L6.75 11.0733V6.68C6.74917 6.50511 6.67106 6.33751 6.5325 6.21333L1.6725 1.83333H13.3425L8.49 6.21333C8.35144 6.33751 8.27333 6.50511 8.2725 6.68L8.25 11.8333L9.75 12.5V6.95333L14.685 2.5C14.8824 2.32198 14.9952 2.08327 15 1.83333V1.16667C15 0.989856 14.921 0.820287 14.7803 0.695262C14.6397 0.570238 14.4489 0.5 14.25 0.5H0.75C0.551088 0.5 0.360322 0.570238 0.21967 0.695262C0.0790178 0.820287 0 0.989856 0 1.16667V1.83333C0.00479813 2.08327 0.117589 2.32198 0.315 2.5L5.25 6.95333V10.4067Z" />
	</symbol>

	<symbol id="icon-theme-sort" viewBox="0 0 16 12">
		<path d="M3.49828 1.71L0.854278 4.354C0.760524 4.44789 0.633314 4.50068 0.500632 4.50078C0.36795 4.50087 0.240665 4.44825 0.146778 4.3545C0.0528916 4.26075 9.38933e-05 4.13354 1.25111e-07 4.00085C-9.36431e-05 3.86817 0.0525242 3.74089 0.146278 3.647L3.61528 0.18C3.66203 0.123765 3.72057 0.0784931 3.78675 0.0473881C3.85294 0.016283 3.92515 0.000105382 3.99828 0H4.00028C4.06605 1.39347e-05 4.13118 0.0130056 4.19192 0.0382304C4.25267 0.0634553 4.30784 0.100417 4.35428 0.147L4.36428 0.157L7.85428 3.647C7.94536 3.7413 7.99576 3.8676 7.99462 3.9987C7.99348 4.1298 7.94089 4.25521 7.84819 4.34791C7.75548 4.44061 7.63008 4.4932 7.49898 4.49434C7.36788 4.49548 7.24158 4.44508 7.14728 4.354L4.49728 1.705V11.5C4.49728 11.6326 4.4446 11.7598 4.35083 11.8536C4.25706 11.9473 4.12989 12 3.99728 12C3.86467 12 3.73749 11.9473 3.64373 11.8536C3.54996 11.7598 3.49728 11.6326 3.49728 11.5V1.71H3.49828Z" />
		<path d="M12.5023 10.29L15.1473 7.646C15.2416 7.55492 15.3679 7.50452 15.499 7.50566C15.6301 7.5068 15.7555 7.55939 15.8482 7.65209C15.9409 7.7448 15.9935 7.8702 15.9946 8.0013C15.9958 8.1324 15.9454 8.2587 15.8543 8.353L12.3853 11.821C12.3384 11.877 12.2798 11.922 12.2136 11.953C12.1475 11.9839 12.0753 12 12.0023 12H12.0013C11.9354 12.0001 11.87 11.9872 11.8091 11.962C11.7482 11.9367 11.6929 11.8997 11.6463 11.853L11.6363 11.843L8.1463 8.353C8.09854 8.30688 8.06045 8.25171 8.03425 8.1907C8.00804 8.1297 7.99425 8.06409 7.99367 7.9977C7.99309 7.93131 8.00575 7.86547 8.03089 7.80402C8.05603 7.74258 8.09315 7.68675 8.1401 7.6398C8.18705 7.59286 8.24287 7.55573 8.30432 7.53059C8.36577 7.50545 8.43161 7.4928 8.498 7.49338C8.56439 7.49395 8.63 7.50775 8.691 7.53395C8.752 7.56015 8.80717 7.59825 8.8533 7.646L11.5033 10.295V0.5C11.5033 0.367392 11.556 0.240215 11.6497 0.146447C11.7435 0.0526785 11.8707 0 12.0033 0C12.1359 0 12.2631 0.0526785 12.3568 0.146447C12.4506 0.240215 12.5033 0.367392 12.5033 0.5V10.29H12.5023Z" />
	</symbol>


	<symbol id="icon-theme-camera" viewBox="0 0 16 14">
		<g clip-path="url(#clip0_3489_4261)">
		<path d="M2.36093 0.926745C2.20009 0.926745 2.03806 0.922049 1.87839 0.926745C1.76744 0.927436 1.6609 0.970268 1.58035 1.04657C1.49981 1.12286 1.45127 1.22693 1.44457 1.33767C1.4293 1.55869 1.5972 1.77795 1.83142 1.79116C2.17681 1.81004 2.52294 1.81102 2.86843 1.79409C3.1144 1.78177 3.27495 1.57249 3.26204 1.33444C3.25 1.1052 3.07184 0.934376 2.8288 0.925864C2.67294 0.922049 2.51709 0.926451 2.36093 0.926745Z" fill="white"/>
		<path d="M15.5003 11.8918C15.4609 12.0109 15.4339 12.1357 15.3805 12.2481C15.1436 12.7471 14.7512 13.0471 14.1935 13.0644C13.5058 13.0855 12.8172 13.0729 12.1292 13.0732C8.8001 13.0732 5.4712 13.0739 2.14249 13.0752C1.84897 13.0752 1.55545 13.0785 1.28512 12.9382C0.79259 12.6825 0.507877 12.2777 0.506116 11.7233C0.49731 9.19903 0.49731 6.67554 0.506116 4.15285C0.508171 3.39116 1.11605 2.79591 1.88096 2.78446C2.3591 2.77712 2.83754 2.77888 3.31598 2.78446C3.40374 2.78738 3.49111 2.77139 3.57214 2.73756C3.65318 2.70372 3.72598 2.65285 3.78561 2.58839C4.18656 2.18186 4.59514 1.78268 4.99491 1.37498C5.29518 1.06855 5.65328 0.920907 6.08094 0.922374C7.36479 0.926483 8.64845 0.926483 9.93191 0.922374C10.3563 0.922374 10.7103 1.06767 11.0074 1.36882C11.4083 1.77534 11.8166 2.17482 12.2167 2.58222C12.2797 2.64989 12.3568 2.70299 12.4424 2.73782C12.5281 2.77265 12.6203 2.78836 12.7127 2.78387C13.1471 2.77624 13.5815 2.78123 14.0159 2.78152C14.8002 2.78152 15.2972 3.17601 15.4803 3.94151C15.4854 3.95519 15.4921 3.9682 15.5003 3.98026V11.8918ZM7.99498 12.1944C10.0105 12.1944 12.026 12.1944 14.0415 12.1944C14.4278 12.1944 14.6207 12.0036 14.6203 11.622C14.6203 9.15646 14.6203 6.69159 14.6203 4.2274C14.6203 3.8649 14.421 3.66472 14.0597 3.66355C13.6059 3.66208 13.1518 3.65709 12.698 3.66355C12.2578 3.6703 11.8935 3.51239 11.5868 3.19773C11.1949 2.79591 10.7919 2.40523 10.3983 2.00487C10.3372 1.93876 10.2627 1.88646 10.1797 1.85149C10.0967 1.81651 10.0072 1.79965 9.91724 1.80205C8.63847 1.80616 7.3597 1.80616 6.08094 1.80205C5.9933 1.79927 5.90607 1.81521 5.82509 1.84882C5.7441 1.88243 5.67122 1.93293 5.6113 1.99695C5.20742 2.40787 4.79649 2.81117 4.39114 3.22034C4.09586 3.52149 3.7407 3.6703 3.31598 3.66443C2.8622 3.65768 2.40812 3.66179 1.95434 3.66237C1.58363 3.66237 1.38198 3.86285 1.38169 4.23063C1.38169 6.7003 1.38169 9.17007 1.38169 11.6399C1.38 11.6983 1.38532 11.7566 1.39754 11.8137C1.46064 12.0679 1.64938 12.1953 1.96285 12.1953L7.99498 12.1944Z" />
		<path d="M2.36093 0.926456C2.51709 0.926456 2.67295 0.922054 2.8288 0.926456C3.07184 0.934968 3.25 1.1058 3.26204 1.33503C3.27495 1.57308 3.11528 1.78236 2.86843 1.79468C2.52294 1.81161 2.17681 1.81063 1.83143 1.79175C1.59661 1.77913 1.42931 1.55928 1.44457 1.33826C1.45127 1.22752 1.49981 1.12346 1.58036 1.04716C1.66091 0.97086 1.76744 0.928028 1.87839 0.927337C2.03924 0.922053 2.20009 0.92675 2.36093 0.926456Z" />
		<path d="M11.2625 7.46291C11.2625 7.89215 11.1777 8.31717 11.013 8.71353C10.8482 9.10989 10.6067 9.46979 10.3025 9.77254C9.99817 10.0753 9.63706 10.3149 9.23988 10.4777C8.84269 10.6405 8.41726 10.7231 7.98802 10.721C6.19755 10.7163 4.74053 9.25338 4.7417 7.46291C4.7417 5.65659 6.20695 4.19105 8.00915 4.19281C9.80226 4.19545 11.2646 5.66628 11.2625 7.46291ZM10.382 7.47054C10.3853 6.8386 10.1377 6.23117 9.6934 5.78174C9.24913 5.3323 8.64461 5.07762 8.01268 5.07366C6.70299 5.06515 5.62578 6.13474 5.62079 7.44882C5.61617 7.76346 5.67397 8.07589 5.79084 8.36805C5.90772 8.66021 6.08136 8.9263 6.30171 9.15094C6.52207 9.37558 6.78477 9.5543 7.07462 9.67678C7.36448 9.79926 7.67574 9.86306 7.9904 9.86449C8.30507 9.86593 8.6169 9.80497 8.90786 9.68514C9.19882 9.56532 9.46315 9.38899 9.68554 9.16638C9.90793 8.94376 10.084 8.67926 10.2035 8.38818C10.3231 8.0971 10.3837 7.78521 10.382 7.47054Z" />
		</g>
		<defs>
		<clipPath id="clip0_3489_4261">
		<rect width="15" height="12.1535" fill="white" transform="translate(0.5 0.923279)"/>
		</clipPath>
		</defs>
	</symbol>

	<symbol id="icon-theme-360" viewBox="0 0 25 18">
		<path d="M15.6,15.8c-0.3,0-0.7-0.3-0.7-0.6c0-0.4,0.2-0.7,0.6-0.8c2.2-0.3,4.2-0.9,5.6-1.7c1.3-0.7,2-1.6,2-2.5
			c0-0.9-0.8-1.7-1.5-2.2c-0.3-0.2-0.4-0.7-0.2-1c0.2-0.3,0.7-0.4,1-0.2c1.4,1,2.1,2.1,2.1,3.3c0,1.4-0.9,2.7-2.7,3.7
			C20.3,14.9,18.1,15.5,15.6,15.8C15.7,15.8,15.6,15.8,15.6,15.8z"/>
		<path d="M12.3,14.8L10.5,13c-0.3-0.3-0.7-0.3-1,0c-0.3,0.3-0.3,0.7,0,1l0.5,0.5c-2.1-0.2-4-0.7-5.5-1.4
			c-1.7-0.8-2.6-1.8-2.6-2.8c0-0.8,0.7-1.7,1.9-2.4c0.3-0.2,0.4-0.6,0.2-1c-0.2-0.3-0.6-0.4-1-0.2C1,7.9,0.5,9.3,0.5,10.3
			c0,1.6,1.2,3,3.4,4.1c1.7,0.8,3.9,1.4,6.3,1.6l-0.8,0.8c-0.3,0.3-0.3,0.7,0,1c0.1,0.1,0.3,0.2,0.5,0.2c0.2,0,0.4-0.1,0.5-0.2
			l1.9-1.9C12.6,15.5,12.6,15.1,12.3,14.8z"/>
		<path d="M7.9,8.9V8.7C7.9,8.1,7.5,8,7,8C6.7,8,6.6,7.7,6.6,7.5c0-0.3,0.1-0.5,0.4-0.5c0.3,0,0.7,0,0.7-0.8
			c0-0.5-0.3-0.6-0.7-0.6C6.6,5.5,6.4,5.6,6.4,6c0,0.3-0.1,0.5-0.7,0.5C5.1,6.5,5,6.3,5,5.9c0-0.7,0.5-1.6,2-1.6c1.1,0,2,0.4,2,1.6
			c0,0.7-0.2,1.3-0.7,1.5C8.9,7.6,9.3,8,9.3,8.7v0.2c0,1.5-1,2-2.3,2c-1.5,0-2.1-0.9-2.1-1.7c0-0.4,0.2-0.5,0.7-0.5
			c0.6,0,0.7,0.1,0.7,0.5c0,0.4,0.4,0.5,0.8,0.5C7.7,9.7,7.9,9.5,7.9,8.9z"/>
		<path d="M14.7,8.7L14.7,8.7c0,1.6-1,2.2-2.2,2.2s-2.2-0.6-2.2-2.1V6.4c0-1.5,1-2.1,2.3-2.1c1.5,0,2.1,0.9,2.1,1.7
			c0,0.4-0.2,0.6-0.7,0.6c-0.4,0-0.7-0.1-0.7-0.5c0-0.3-0.4-0.5-0.8-0.5c-0.5,0-0.8,0.3-0.8,0.9v0.8c0.3-0.3,0.7-0.4,1.1-0.4
			C13.8,6.8,14.7,7.3,14.7,8.7z M11.7,8.9c0,0.6,0.3,0.9,0.8,0.9s0.8-0.3,0.8-0.9V8.8c0-0.7-0.3-0.9-0.8-0.9c-0.5,0-0.8,0.2-0.8,0.8
			V8.9z"/>
		<path d="M15.7,8.8V6.4c0-1.5,1-2.1,2.2-2.1c1.2,0,2.2,0.6,2.2,2.1v2.4c0,1.5-1,2.1-2.2,2.1
			C16.7,10.9,15.7,10.3,15.7,8.8z M18.7,6.4c0-0.6-0.3-0.9-0.8-0.9s-0.8,0.3-0.8,0.9v2.4c0,0.6,0.3,0.9,0.8,0.9s0.8-0.3,0.8-0.9V6.4
			z"/>
		<path d="M21.8,4.3c-1.2,0-2.1-0.9-2.1-2.1s0.9-2.1,2.1-2.1c1.2,0,2.1,0.9,2.1,2.1S23,4.3,21.8,4.3z M21.8,1.5
			c-0.4,0-0.7,0.3-0.7,0.7c0,0.4,0.3,0.7,0.7,0.7c0.4,0,0.7-0.3,0.7-0.7C22.5,1.8,22.2,1.5,21.8,1.5z"/>
	</symbol>

	<symbol id="icon-theme-video" viewBox="0 0 15 12">
		<path d="M9.76819 5.65219L6.48694 3.60141C6.36048 3.52238 6.20112 3.5182 6.07071 3.59047C5.94029 3.66274 5.85938 3.80011 5.85938 3.94922V8.05078C5.85938 8.19989 5.94029 8.33724 6.07071 8.40953C6.13268 8.44388 6.20114 8.46094 6.26953 8.46094C6.34508 8.46094 6.42052 8.44008 6.48691 8.3986L9.76816 6.34781C9.88809 6.27287 9.96094 6.14142 9.96094 6C9.96094 5.85858 9.88812 5.72714 9.76819 5.65219ZM6.67972 7.31075V4.68922L8.77693 6L6.67972 7.31075Z" />
		<path d="M12.4492 0.667969H2.55078C1.41998 0.667969 0.5 1.58795 0.5 2.71875V9.28125C0.5 10.4121 1.41998 11.332 2.55078 11.332H12.4492C13.58 11.332 14.5 10.4121 14.5 9.28125V2.71875C14.5 1.58795 13.58 0.667969 12.4492 0.667969ZM13.6797 9.28125C13.6797 9.95973 13.1277 10.5117 12.4492 10.5117H2.55078C1.8723 10.5117 1.32031 9.95973 1.32031 9.28125V2.71875C1.32031 2.04027 1.8723 1.48828 2.55078 1.48828H12.4492C13.1277 1.48828 13.6797 2.04027 13.6797 2.71875V9.28125Z" />
	</symbol>

	<symbol id="icon-theme-eye" viewBox="0 0 21 12">
		<path d="M20.8158 5.82318C18.3584 2.56517 14.7351 0.696655 10.875 0.696655C7.01488 0.696655 3.3916 2.56521 0.93418 5.82318C0.855273 5.92783 0.855273 6.07205 0.93418 6.17673C3.3916 9.43474 7.01488 11.3033 10.875 11.3033C14.7351 11.3033 18.3584 9.43478 20.8158 6.17677C20.8947 6.07208 20.8947 5.92783 20.8158 5.82318ZM10.875 10.7162C7.27098 10.7162 3.88031 9.00029 1.53852 5.99998C3.88031 2.99966 7.27098 1.28373 10.875 1.28373C14.479 1.28373 17.8696 2.99966 20.2115 5.99998C17.8696 9.00029 14.479 10.7162 10.875 10.7162Z" />
		<path d="M14.3653 2.88664C14.2574 2.7657 14.0718 2.75512 13.9508 2.86309C13.8299 2.97105 13.8194 3.15664 13.9273 3.27758C14.5963 4.02719 14.9649 4.99406 14.9649 5.99992C14.9649 8.25515 13.1301 10.0899 10.8748 10.0899C8.61955 10.0899 6.78479 8.25511 6.78479 5.99992C6.78479 3.74472 8.61955 1.90988 10.8748 1.90988C11.5351 1.90988 12.1653 2.06231 12.7477 2.36285C12.8917 2.43711 13.0688 2.38066 13.1431 2.2366C13.2175 2.09254 13.161 1.91547 13.0169 1.84113C12.3598 1.50203 11.6191 1.32281 10.8749 1.32281C8.29588 1.32281 6.19775 3.42094 6.19775 5.99992C6.19775 8.5789 8.29584 10.677 10.8748 10.677C13.4538 10.677 15.5519 8.57886 15.5519 5.99992C15.5519 4.84961 15.1305 3.74398 14.3653 2.88664Z" />
		<path d="M10.8747 4.14087C9.84965 4.14087 9.01562 4.97486 9.01562 5.99998C9.01562 7.02506 9.84965 7.85909 10.8747 7.85909C11.8998 7.85909 12.7338 7.02506 12.7338 5.99998C12.7338 4.9749 11.8998 4.14087 10.8747 4.14087ZM10.8747 7.27198C10.1734 7.27198 9.6027 6.70135 9.6027 5.99994C9.6027 5.29853 10.1734 4.7279 10.8747 4.7279C11.5761 4.7279 12.1468 5.29853 12.1468 5.99994C12.1468 6.70135 11.5761 7.27198 10.8747 7.27198Z" />
	</symbol>

	<symbol id="icon-check-white" viewBox="0 0 7 4">
		<path d="M5.2175 0.136662C5.30332 0.0500396 5.41994 0.000911061 5.54188 1.29308e-05C5.66381 -0.0008852 5.78114 0.0465201 5.86823 0.131869C5.95531 0.217217 6.00507 0.333569 6.00664 0.455495C6.0082 0.577422 5.96143 0.695008 5.87655 0.782558L3.42077 3.8526C3.37858 3.89802 3.32767 3.93448 3.27108 3.95979C3.21449 3.9851 3.15338 3.99875 3.0914 3.99992C3.02942 4.00109 2.96783 3.98975 2.91033 3.9666C2.85282 3.94344 2.80058 3.90893 2.7567 3.86513L1.12849 2.23755C1.04197 2.15098 0.993379 2.03359 0.993408 1.9112C0.993437 1.78881 1.04209 1.67144 1.12865 1.58492C1.21522 1.49839 1.33261 1.4498 1.455 1.44983C1.57739 1.44986 1.69476 1.49851 1.78128 1.58507L3.069 2.87311L5.20529 0.151071C5.20917 0.146118 5.21335 0.14141 5.21781 0.136975L5.2175 0.136662Z"/>
	</symbol>

	<symbol id="icon-check-circle" viewBox="0 0 15 16">
		<g clip-path="url(#clip0_3292_4897)">
		<path d="M14.5711 2.55069C14.3504 2.32964 13.9924 2.32926 13.7717 2.54975L6.98967 9.31387L4.54274 6.65626C4.33131 6.42675 3.97383 6.41187 3.74393 6.62328C3.51422 6.83471 3.49951 7.19237 3.71094 7.42208L6.55643 10.5123C6.66064 10.6256 6.80648 10.6914 6.96026 10.6946C6.96439 10.6947 6.96838 10.6947 6.97233 10.6947C7.12177 10.6947 7.26553 10.6354 7.37144 10.5299L14.5699 3.35023C14.7912 3.12977 14.7915 2.77173 14.5711 2.55069Z"/>
		<path d="M14.4347 7.43469C14.1224 7.43469 13.8693 7.68776 13.8693 8.00003C13.8693 11.5122 11.0122 14.3694 7.5 14.3694C3.98801 14.3694 1.13065 11.5122 1.13065 8.00003C1.13065 4.48804 3.98801 1.63068 7.5 1.63068C7.81225 1.63068 8.06534 1.37762 8.06534 1.06537C8.06534 0.753097 7.81225 0.500031 7.5 0.500031C3.36445 0.500031 0 3.86448 0 8.00003C0 12.1354 3.36445 15.5 7.5 15.5C11.6354 15.5 15 12.1354 15 8.00003C15 7.68778 14.7469 7.43469 14.4347 7.43469Z"/>
		</g>
		<defs>
		<clipPath id="clip0_3292_4897">
		<rect width="15" height="15" fill="white" transform="translate(0 0.500031)"/>
		</clipPath>
		</defs>
	</symbol>

	<symbol id="icon-theme-calendar" viewBox="0 0 22 22">
		<path d="M19.3459 2.02924V1.5083C19.3448 1.10861 19.1856 0.7256 18.903 0.442979C18.6203 0.160359 18.2373 0.00111685 17.8376 6.10352e-05C17.4378 0.000497002 17.0544 0.15954 16.7716 0.442294C16.4889 0.725049 16.3298 1.10842 16.3294 1.5083V2.00477H14.7859V1.5083C14.7859 1.10869 14.6273 0.725425 14.345 0.442644C14.0626 0.159863 13.6796 0.000684439 13.28 6.10352e-05C12.8801 0.000559143 12.4968 0.159622 12.2141 0.442363C11.9313 0.725104 11.7723 1.10844 11.7718 1.5083V2.00477H10.2282V1.5083C10.2282 1.31039 10.1893 1.11441 10.1135 0.93157C10.0378 0.748725 9.92677 0.582588 9.78683 0.442645C9.64688 0.302702 9.48075 0.191692 9.2979 0.115956C9.11506 0.0402188 8.91909 0.00123731 8.72118 0.00123731C8.52327 0.00123731 8.32729 0.0402188 8.14445 0.115956C7.9616 0.191692 7.79547 0.302702 7.65552 0.442645C7.51558 0.582588 7.40457 0.748725 7.32884 0.93157C7.2531 1.11441 7.21412 1.31039 7.21412 1.5083V2.00477H5.67059V1.5083C5.66953 1.10861 5.51029 0.7256 5.22767 0.442979C4.94505 0.160359 4.56204 0.00111685 4.16235 6.10352e-05C3.7625 0.000559143 3.37916 0.159622 3.09642 0.442363C2.81368 0.725104 2.65462 1.10844 2.65412 1.5083V2.02924C1.92251 2.11945 1.24903 2.47378 0.760284 3.02561C0.271536 3.57745 0.00116907 4.28879 0 5.02594V18.9789C0.000934087 19.7799 0.319535 20.5478 0.885914 21.1141C1.45229 21.6805 2.2202 21.9991 3.02118 22.0001H18.9788C19.7798 21.9991 20.5477 21.6805 21.1141 21.1141C21.6805 20.5478 21.9991 19.7799 22 18.9789V5.02594C21.9988 4.28879 21.7285 3.57745 21.2397 3.02561C20.751 2.47378 20.0775 2.11945 19.3459 2.02924ZM17.1529 1.5083C17.1532 1.32678 17.2254 1.15276 17.3538 1.02441C17.4821 0.896058 17.6561 0.823839 17.8376 0.82359C18.0189 0.824701 18.1924 0.897196 18.3206 1.02536C18.4487 1.15353 18.5212 1.32704 18.5224 1.5083V3.32477C18.5224 3.50636 18.4502 3.68052 18.3218 3.80893C18.1934 3.93733 18.0192 4.00947 17.8376 4.00947C17.6561 4.00947 17.4819 3.93733 17.3535 3.80893C17.2251 3.68052 17.1529 3.50636 17.1529 3.32477V1.5083ZM12.5953 1.5083C12.5955 1.32676 12.6677 1.15271 12.796 1.02434C12.9244 0.895976 13.0985 0.823777 13.28 0.82359C13.4612 0.824151 13.6348 0.896545 13.7627 1.0249C13.8906 1.15325 13.9624 1.32709 13.9624 1.5083V3.32477C13.9624 3.50605 13.8903 3.67991 13.7622 3.8081C13.634 3.93628 13.4601 4.0083 13.2788 4.0083C13.0975 4.0083 12.9237 3.93628 12.7955 3.8081C12.6673 3.67991 12.5953 3.50605 12.5953 3.32477V1.5083ZM8.03765 1.5083C8.03765 1.32701 8.10966 1.15315 8.23785 1.02497C8.36604 0.896781 8.53989 0.824767 8.72118 0.824767C8.90246 0.824767 9.07632 0.896781 9.2045 1.02497C9.33269 1.15315 9.40471 1.32701 9.40471 1.5083V3.32477C9.40471 3.50605 9.33269 3.67991 9.2045 3.8081C9.07632 3.93628 8.90246 4.0083 8.72118 4.0083C8.53989 4.0083 8.36604 3.93628 8.23785 3.8081C8.10966 3.67991 8.03765 3.50605 8.03765 3.32477V1.5083ZM3.47765 1.5083C3.47783 1.32676 3.55003 1.15271 3.6784 1.02434C3.80677 0.895976 3.98081 0.823777 4.16235 0.82359C4.34361 0.824701 4.51712 0.897196 4.64529 1.02536C4.77345 1.15353 4.84595 1.32704 4.84706 1.5083V3.32477C4.84706 3.50636 4.77492 3.68052 4.64651 3.80893C4.51811 3.93733 4.34395 4.00947 4.16235 4.00947C3.98076 4.00947 3.8066 3.93733 3.67819 3.80893C3.54979 3.68052 3.47765 3.50636 3.47765 3.32477V1.5083ZM2.65412 2.86147V3.32477C2.65412 3.72478 2.81302 4.1084 3.09587 4.39125C3.37872 4.6741 3.76234 4.833 4.16235 4.833C4.56236 4.833 4.94599 4.6741 5.22884 4.39125C5.51168 4.1084 5.67059 3.72478 5.67059 3.32477V2.8283H7.21412V3.32477C7.21412 3.72446 7.3729 4.10779 7.65552 4.39042C7.93815 4.67305 8.32148 4.83183 8.72118 4.83183C9.12087 4.83183 9.5042 4.67305 9.78683 4.39042C10.0695 4.10779 10.2282 3.72446 10.2282 3.32477V2.8283H11.7718V3.32477C11.7718 3.72446 11.9305 4.10779 12.2132 4.39042C12.4958 4.67305 12.8791 4.83183 13.2788 4.83183C13.6785 4.83183 14.0618 4.67305 14.3445 4.39042C14.6271 4.10779 14.7859 3.72446 14.7859 3.32477V2.8283H16.3294V3.32477C16.3294 3.72478 16.4883 4.1084 16.7712 4.39125C17.054 4.6741 17.4376 4.833 17.8376 4.833C18.2377 4.833 18.6213 4.6741 18.9041 4.39125C19.187 4.1084 19.3459 3.72478 19.3459 3.32477V2.86147C19.8573 2.94849 20.3215 3.21345 20.6565 3.60956C20.9914 4.00567 21.1756 4.50742 21.1765 5.02618V6.26547H0.823529V5.02594C0.824448 4.50723 1.00866 4.00553 1.34363 3.60947C1.67859 3.21341 2.14275 2.94848 2.65412 2.86147ZM18.9788 21.1765H3.02118C2.43853 21.1758 1.87995 20.9441 1.46796 20.5321C1.05597 20.1201 0.824214 19.5615 0.823529 18.9789V7.08947H21.1765V18.9789C21.1758 19.5615 20.944 20.1201 20.532 20.5321C20.12 20.9441 19.5615 21.1758 18.9788 21.1765Z" />
		<path d="M5.74922 9.14948H4.08664C3.7972 9.14985 3.51972 9.26499 3.31506 9.46966C3.11039 9.67433 2.99525 9.95181 2.99487 10.2412V11.9038C2.99525 12.1933 3.11039 12.4708 3.31506 12.6754C3.51972 12.8801 3.7972 12.9952 4.08664 12.9956H5.74922C6.03866 12.9952 6.31614 12.8801 6.52081 12.6754C6.72547 12.4708 6.84062 12.1933 6.84099 11.9038V10.2412C6.84062 9.95181 6.72547 9.67433 6.52081 9.46966C6.31614 9.26499 6.03866 9.14985 5.74922 9.14948ZM6.01746 11.9038C6.0174 11.975 5.98912 12.0432 5.93883 12.0934C5.88854 12.1437 5.82035 12.172 5.74922 12.1721H4.08664C4.01552 12.172 3.94733 12.1437 3.89704 12.0934C3.84674 12.0432 3.81846 11.975 3.8184 11.9038V10.2412C3.81846 10.1701 3.84674 10.1019 3.89704 10.0516C3.94733 10.0014 4.01552 9.97307 4.08664 9.97301H5.74922C5.82035 9.97307 5.88854 10.0014 5.93883 10.0516C5.98912 10.1019 6.0174 10.1701 6.01746 10.2412V11.9038Z" />
		<path d="M11.8313 9.14948H10.1687C9.87923 9.14985 9.60175 9.26499 9.39709 9.46966C9.19242 9.67433 9.07728 9.95181 9.0769 10.2412V11.9038C9.07728 12.1933 9.19242 12.4708 9.39709 12.6754C9.60175 12.8801 9.87923 12.9952 10.1687 12.9956H11.8313C12.1207 12.9952 12.3982 12.8801 12.6029 12.6754C12.8075 12.4708 12.9227 12.1933 12.923 11.9038V10.2412C12.9227 9.95181 12.8075 9.67433 12.6029 9.46966C12.3982 9.26499 12.1207 9.14985 11.8313 9.14948ZM12.0995 11.9038C12.0994 11.975 12.0712 12.0432 12.0209 12.0934C11.9706 12.1437 11.9024 12.172 11.8313 12.1721H10.1687C10.0976 12.172 10.0294 12.1437 9.97907 12.0934C9.92878 12.0432 9.9005 11.975 9.90044 11.9038V10.2412C9.9005 10.1701 9.92878 10.1019 9.97907 10.0516C10.0294 10.0014 10.0976 9.97307 10.1687 9.97301H11.8313C11.9024 9.97307 11.9706 10.0014 12.0209 10.0516C12.0712 10.1019 12.0994 10.1701 12.0995 10.2412V11.9038Z" />
		<path d="M18.4474 9.71274L16.6003 11.5588L15.7166 10.6751C15.6389 10.6001 15.5349 10.5586 15.4269 10.5596C15.3189 10.5605 15.2157 10.6039 15.1393 10.6802C15.063 10.7566 15.0197 10.8599 15.0188 10.9678C15.0179 11.0758 15.0594 11.1798 15.1344 11.2574L16.3093 12.4322C16.3475 12.4705 16.3929 12.5009 16.4428 12.5216C16.4928 12.5423 16.5464 12.553 16.6004 12.553C16.6545 12.553 16.7081 12.5423 16.7581 12.5216C16.808 12.5009 16.8534 12.4705 16.8916 12.4322L19.0297 10.2941C19.107 10.2169 19.1504 10.1122 19.1504 10.003C19.1504 9.89376 19.107 9.78902 19.0297 9.7118C18.9525 9.63457 18.8478 9.59119 18.7386 9.59119C18.6294 9.59119 18.5246 9.63457 18.4474 9.7118V9.71274Z" />
		<path d="M5.74922 14.8214H4.08664C3.7972 14.8218 3.51972 14.9369 3.31506 15.1416C3.11039 15.3463 2.99525 15.6237 2.99487 15.9132V17.5758C2.99525 17.8652 3.11039 18.1427 3.31506 18.3473C3.51972 18.552 3.7972 18.6672 4.08664 18.6675H5.74922C6.03866 18.6672 6.31614 18.552 6.52081 18.3473C6.72547 18.1427 6.84062 17.8652 6.84099 17.5758V15.9132C6.84062 15.6237 6.72547 15.3463 6.52081 15.1416C6.31614 14.9369 6.03866 14.8218 5.74922 14.8214ZM6.01746 17.5758C6.0174 17.6469 5.98912 17.7151 5.93883 17.7654C5.88854 17.8157 5.82035 17.8439 5.74922 17.844H4.08664C4.01552 17.8439 3.94733 17.8157 3.89704 17.7654C3.84674 17.7151 3.81846 17.6469 3.8184 17.5758V15.9132C3.81846 15.8421 3.84674 15.7739 3.89704 15.7236C3.94733 15.6733 4.01552 15.645 4.08664 15.6449H5.74922C5.82035 15.645 5.88854 15.6733 5.93883 15.7236C5.98912 15.7739 6.0174 15.8421 6.01746 15.9132V17.5758Z" />
		<path d="M11.8313 14.8214H10.1687C9.87923 14.8218 9.60175 14.9369 9.39709 15.1416C9.19242 15.3463 9.07728 15.6237 9.0769 15.9132V17.5758C9.07728 17.8652 9.19242 18.1427 9.39709 18.3473C9.60175 18.552 9.87923 18.6672 10.1687 18.6675H11.8313C12.1207 18.6672 12.3982 18.552 12.6029 18.3473C12.8075 18.1427 12.9227 17.8652 12.923 17.5758V15.9132C12.9227 15.6237 12.8075 15.3463 12.6029 15.1416C12.3982 14.9369 12.1207 14.8218 11.8313 14.8214ZM12.0995 17.5758C12.0994 17.6469 12.0712 17.7151 12.0209 17.7654C11.9706 17.8157 11.9024 17.8439 11.8313 17.844H10.1687C10.0976 17.8439 10.0294 17.8157 9.97907 17.7654C9.92878 17.7151 9.9005 17.6469 9.90044 17.5758V15.9132C9.9005 15.8421 9.92878 15.7739 9.97907 15.7236C10.0294 15.6733 10.0976 15.645 10.1687 15.6449H11.8313C11.9024 15.645 11.9706 15.6733 12.0209 15.7236C12.0712 15.7739 12.0994 15.8421 12.0995 15.9132V17.5758Z" />
		<path d="M17.9133 14.8214H16.2507C15.9613 14.8218 15.6838 14.9369 15.4791 15.1416C15.2745 15.3463 15.1593 15.6237 15.1589 15.9132V17.5758C15.1593 17.8652 15.2745 18.1427 15.4791 18.3473C15.6838 18.552 15.9613 18.6672 16.2507 18.6675H17.9133C18.2027 18.6672 18.4802 18.552 18.6849 18.3473C18.8895 18.1427 19.0047 17.8652 19.0051 17.5758V15.9132C19.0047 15.6237 18.8895 15.3463 18.6849 15.1416C18.4802 14.9369 18.2027 14.8218 17.9133 14.8214ZM18.1815 17.5758C18.1815 17.6469 18.1532 17.7151 18.1029 17.7654C18.0526 17.8157 17.9844 17.8439 17.9133 17.844H16.2507C16.1796 17.8439 16.1114 17.8157 16.0611 17.7654C16.0108 17.7151 15.9825 17.6469 15.9825 17.5758V15.9132C15.9825 15.8421 16.0108 15.7739 16.0611 15.7236C16.1114 15.6733 16.1796 15.645 16.2507 15.6449H17.9133C17.9844 15.645 18.0526 15.6733 18.1029 15.7236C18.1532 15.7739 18.1815 15.8421 18.1815 15.9132V17.5758Z" />
	</symbol>

	<symbol id="icon-checkout-calendar" viewBox="0 0 18 20">
		<path d="M15.585 2.16643H14.9825V1.50904C14.9825 0.676599 14.3256 0 13.5173 0C12.7085 0 12.0522 0.676599 12.0522 1.50904V2.16588H10.5486V1.50904C10.5486 0.676599 9.89177 0 9.08348 0C8.27518 0 7.61833 0.676599 7.61833 1.50904V2.16588H6.11478V1.50904C6.11478 0.676599 5.45794 0 4.64964 0C3.84134 0 3.1845 0.676599 3.1845 1.50904V2.16588H2.41516C1.12946 2.16588 0.0830078 3.21234 0.0830078 4.49804V17.6678C0.0830078 18.9536 1.12946 20 2.41516 20H15.585C16.8712 20 17.9171 18.9536 17.9171 17.6678V4.49804C17.9171 3.21288 16.8707 2.16643 15.585 2.16643ZM12.8753 1.50904C12.8753 1.13096 13.1634 0.823113 13.5173 0.823113C13.8718 0.823113 14.1593 1.13096 14.1593 1.50904V4.19568C14.1593 4.57376 13.8718 4.88161 13.5173 4.88161C13.1634 4.88161 12.8753 4.57376 12.8753 4.19568V1.50904ZM8.44145 1.50904C8.44145 1.13096 8.72954 0.823113 9.08348 0.823113C9.43741 0.823113 9.7255 1.13096 9.7255 1.50904V4.19568C9.7255 4.57376 9.43741 4.88161 9.08348 4.88161C8.72954 4.88161 8.44145 4.57376 8.44145 4.19568V1.50904ZM4.00706 1.50904C4.00706 1.13096 4.29515 0.823113 4.64909 0.823113C5.00303 0.823113 5.29112 1.13096 5.29112 1.50904V4.19568C5.29112 4.57376 5.00303 4.88161 4.64909 4.88161C4.29515 4.88161 4.00706 4.57376 4.00706 4.19568V1.50904ZM16.5453 17.6684C16.5453 18.1979 16.1145 18.6287 15.585 18.6287H2.41516C1.88563 18.6287 1.45486 18.1979 1.45486 17.6684V5.59607H16.5453V17.6684Z" />
		<path d="M5.21092 8.02588H2.68945V10.2697H5.21092V8.02588Z" />
		<path d="M8.57719 8.02588H6.05518V10.2697H8.57719V8.02588Z" />
		<path d="M11.9448 8.02588H9.42334V10.2697H11.9448V8.02588Z" />
		<path d="M15.3106 8.02588H12.7886V10.2697H15.3106V8.02588Z" />
		<path d="M5.21092 11.0209H2.68945V13.2631H5.21092V11.0209Z" />
		<path d="M8.57719 11.0209H6.05518V13.2631H8.57719V11.0209Z" />
		<path d="M11.9448 11.0209H9.42334V13.2631H11.9448V11.0209Z" />
		<path d="M15.3106 11.0209H12.7886V13.2631H15.3106V11.0209Z" />
		<path d="M5.21092 14.0149H2.68945V16.2571H5.21092V14.0149Z" />
		<path d="M8.57719 14.0149H6.05518V16.2571H8.57719V14.0149Z" />
		<path d="M11.9448 14.0149H9.42334V16.2571H11.9448V14.0149Z" />
		<path d="M15.3106 14.0149H12.7886V16.2571H15.3106V14.0149Z" />
	</symbol>

	<symbol id="icon-theme-gift" viewBox="0 0 15 15">
		<path d="M5.86017 6.5127H1.71069V13.9839H5.86017V6.5127Z" fill="#219653"/>
		<path d="M6.52485 2.54437C6.39234 2.10575 6.16133 1.70322 5.84946 1.36754C5.73252 1.23521 5.57684 1.14311 5.40454 1.10434C5.23225 1.06558 5.05212 1.08212 4.88977 1.15161C4.73185 1.21441 4.5959 1.32228 4.49885 1.46179C4.40179 1.60129 4.34792 1.76626 4.34394 1.93616C4.34088 2.08423 4.37404 2.2308 4.44052 2.36314C4.507 2.49548 4.6048 2.60958 4.72542 2.69552C5.13337 3.01599 5.60424 3.24693 6.10738 3.3733C6.31012 3.43208 6.52005 3.46447 6.74438 3.51126C6.74438 3.44648 6.74438 3.41649 6.73598 3.3913C6.6676 3.10579 6.61842 2.81908 6.52485 2.54437Z" fill="#219653"/>
		<path d="M5.86013 4.93762H1.02808V6.11804H5.86013V4.93762Z" fill="#219653"/>
		<path d="M6.25732 6.11804H8.74173V4.93762H6.25732V6.11804Z" fill="#219653"/>
		<path d="M6.25732 13.9311H8.74173V6.5127H6.25732V13.9311Z" fill="#219653"/>
		<path d="M9.14575 13.9311H13.336V6.5127H9.14575V13.9311Z" fill="#219653"/>
		<path d="M10.6477 1.74543C10.6143 1.58434 10.5343 1.4366 10.4176 1.32058C10.301 1.20457 10.1528 1.12537 9.99151 1.09284C9.83615 1.05193 9.67239 1.05579 9.51913 1.10397C9.36588 1.15216 9.22937 1.2427 9.12538 1.36516C8.81918 1.71171 8.58764 2.11761 8.4452 2.55757C8.32952 2.86598 8.25725 3.18897 8.23047 3.51727C8.29687 3.51636 8.36307 3.50994 8.42841 3.49807C8.69472 3.43209 8.96223 3.37811 9.22255 3.28694C9.65329 3.15057 10.0494 2.92263 10.3838 2.61875C10.5056 2.51284 10.595 2.37467 10.6417 2.22016C10.6884 2.06564 10.6905 1.90108 10.6477 1.74543Z" fill="#219653"/>
		<path d="M14.0439 4.93762H9.13989V6.11804H14.0439V4.93762Z" fill="#219653"/>
		<path d="M14.5561 3.89875C13.1406 3.89875 11.7266 3.89875 10.3143 3.89875H10.156C10.1511 3.8891 10.1471 3.87907 10.144 3.86876C10.2003 3.83997 10.2555 3.80758 10.3107 3.77519C10.7126 3.54127 11.1024 3.28335 11.3808 2.90187C11.5681 2.64678 11.6855 2.34714 11.7212 2.03269C11.757 1.71823 11.7099 1.39989 11.5847 1.10924C11.4594 0.818599 11.2603 0.565759 11.0072 0.375809C10.754 0.185859 10.4556 0.0654029 10.1416 0.0263916C10.1085 0.0204013 10.076 0.0115715 10.0444 0L9.75168 0C9.55257 0.0428339 9.35594 0.0964965 9.16267 0.160749C8.65643 0.359885 8.33733 0.773752 8.06742 1.21881C7.88268 1.52351 7.74232 1.8606 7.58757 2.1785C7.56118 2.23488 7.53839 2.29007 7.5084 2.36084C7.38756 2.06915 7.25059 1.7844 7.09813 1.50792C6.89478 1.17002 6.66451 0.849084 6.40955 0.548225C6.13545 0.249225 5.75919 0.0638787 5.35509 0.0287908C5.3167 0.0239923 5.27831 0.00839731 5.24352 0H4.95082C4.75547 0.0385999 4.56274 0.0894847 4.3738 0.152351C4.09143 0.270262 3.84345 0.457651 3.65292 0.697099C3.46239 0.936547 3.33549 1.22028 3.28402 1.52192C3.23255 1.82356 3.25817 2.13332 3.35852 2.42241C3.45887 2.71149 3.63067 2.97051 3.85797 3.17538C4.15667 3.4417 4.49976 3.65523 4.82486 3.90235H4.6953C3.27735 3.90235 1.85861 3.90235 0.439059 3.90235C0.239923 3.89875 0.0791747 3.95873 0 4.15907V6.91819C0.119962 7.22289 0.395873 7.15811 0.650192 7.1761V7.36924C0.650192 9.75888 0.650192 12.1493 0.650192 14.5405C0.650192 14.7625 0.71737 14.9268 0.939299 15H14.0631C14.2862 14.9268 14.3534 14.7601 14.3498 14.5405C14.3498 12.1493 14.3498 9.75888 14.3498 7.36924V7.17131C14.6077 7.15691 14.88 7.21809 15 6.91339V4.15427C14.916 3.95873 14.7613 3.89875 14.5561 3.89875ZM8.1118 2.63076C8.30062 2.04465 8.60857 1.5039 9.01632 1.04247C9.15512 0.879712 9.33715 0.759551 9.54136 0.695868C9.74557 0.632185 9.96363 0.627579 10.1703 0.682582C10.3854 0.725431 10.583 0.83083 10.7383 0.985555C10.8937 1.14028 10.9999 1.33744 11.0437 1.5523C11.0995 1.75825 11.0961 1.97577 11.034 2.17989C10.9718 2.38402 10.8533 2.56648 10.6922 2.70633C10.2473 3.11208 9.71975 3.41658 9.14587 3.59885C8.79918 3.71881 8.4429 3.79199 8.08781 3.88076C8.00059 3.89592 7.91239 3.90474 7.8239 3.90715C7.85981 3.47033 7.95672 3.04069 8.1118 2.63076ZM4.43858 2.8215C4.11108 2.55398 3.90595 2.22169 3.92035 1.78983C3.92525 1.55928 3.99825 1.33534 4.13018 1.1462C4.2621 0.957069 4.44704 0.8112 4.66171 0.726967C4.88143 0.634658 5.12449 0.613246 5.35696 0.665719C5.58943 0.718193 5.79973 0.841934 5.95849 1.01967C6.38121 1.47545 6.69463 2.02147 6.875 2.61636C6.99496 2.98824 7.06814 3.37692 7.16171 3.7608C7.16947 3.81645 7.17348 3.87256 7.1737 3.92874C6.869 3.86396 6.58469 3.81958 6.30998 3.7404C5.62862 3.5688 4.991 3.25571 4.43858 2.8215ZM14.3426 6.49712H13.6756V14.3246H1.31958V6.50072H0.658589V4.55854H14.3342L14.3426 6.49712Z" fill="#219653"/>
	</symbol>

	<symbol id="icon-theme-like" viewBox="0 0 12 13">
		<path d="M11.4824 8.47499C11.7283 8.16131 11.8463 7.82505 11.8312 7.47875C11.8162 7.09732 11.6455 6.7987 11.505 6.61551C11.6681 6.20899 11.7308 5.56909 11.1863 5.07223C10.7873 4.70836 10.1098 4.54525 9.17125 4.59042C8.51127 4.62053 7.9592 4.74349 7.93661 4.74851H7.93411C7.80863 4.7711 7.67564 4.7987 7.54013 4.82881C7.53009 4.66821 7.55769 4.26922 7.8538 3.37085C8.20512 2.30184 8.18505 1.48377 7.78856 0.936719C7.372 0.362064 6.707 0.316895 6.51127 0.316895C6.32306 0.316895 6.14991 0.394686 6.02695 0.537723C5.74841 0.861437 5.78103 1.45868 5.81616 1.73471C5.48492 2.62304 4.55644 4.80121 3.77099 5.40598C3.75594 5.41602 3.74339 5.42856 3.73084 5.44111C3.49998 5.68452 3.34439 5.94801 3.239 6.17888C3.09094 6.09858 2.92281 6.05341 2.74214 6.05341H1.2114C0.634231 6.05341 0.16748 6.52267 0.16748 7.09732V11.1751C0.16748 11.7523 0.63674 12.219 1.2114 12.219H2.74214C2.96547 12.219 3.17375 12.1488 3.34439 12.0283L3.93411 12.0986C4.02444 12.1111 5.63047 12.3144 7.27915 12.2818C7.57777 12.3043 7.85882 12.3169 8.1198 12.3169C8.56899 12.3169 8.96045 12.2818 9.28668 12.2115C10.0546 12.0484 10.579 11.7222 10.845 11.2429C11.0483 10.8765 11.0483 10.5126 11.0157 10.2818C11.515 9.83007 11.6029 9.3307 11.5853 8.97938C11.5753 8.77612 11.5301 8.60297 11.4824 8.47499ZM1.2114 11.5415C1.00813 11.5415 0.845021 11.3759 0.845021 11.1751V7.09481C0.845021 6.89155 1.01064 6.72844 1.2114 6.72844H2.74214C2.9454 6.72844 3.10851 6.89406 3.10851 7.09481V11.1726C3.10851 11.3759 2.94289 11.539 2.74214 11.539H1.2114V11.5415ZM10.84 8.18139C10.7346 8.2918 10.7145 8.45993 10.7948 8.59042C10.7948 8.59293 10.8977 8.76859 10.9103 9.00949C10.9278 9.33822 10.7697 9.62932 10.4385 9.87775C10.3206 9.96809 10.2729 10.1237 10.3231 10.2642C10.3231 10.2667 10.431 10.5979 10.2553 10.9116C10.0872 11.2128 9.71328 11.4286 9.14615 11.549C8.69195 11.6469 8.07463 11.6644 7.31679 11.6042C7.30675 11.6042 7.29421 11.6042 7.28166 11.6042C5.66811 11.6394 4.03699 11.4286 4.01943 11.4261H4.01692L3.76347 11.3959C3.77852 11.3257 3.78605 11.2504 3.78605 11.1751V7.09481C3.78605 6.98691 3.76848 6.88151 3.73837 6.78365C3.78354 6.61551 3.90901 6.24161 4.20512 5.92292C5.33185 5.02957 6.43348 2.01577 6.48116 1.88528C6.50123 1.83258 6.50625 1.77486 6.49621 1.71715C6.45355 1.43609 6.46861 1.0923 6.52884 0.989416C6.66183 0.991926 7.02068 1.02957 7.23649 1.32819C7.49245 1.68201 7.48241 2.31439 7.20638 3.15253C6.7848 4.42982 6.74966 5.10234 7.08342 5.39845C7.24904 5.54651 7.46986 5.55403 7.63047 5.49632C7.78354 5.46119 7.92909 5.43107 8.0671 5.40849C8.07714 5.40598 8.08969 5.40347 8.09973 5.40096C8.87012 5.23283 10.2503 5.12994 10.7296 5.56658C11.1361 5.93797 10.8475 6.42982 10.8149 6.48252C10.7221 6.62304 10.7497 6.80623 10.8751 6.91915C10.8776 6.92166 11.1411 7.17009 11.1537 7.50385C11.1637 7.72718 11.0583 7.95554 10.84 8.18139Z" />
	</symbol>

	<symbol id="icon-theme-liked" viewBox="0 0 72 75">
		<path d="M69.7771 51.1479C71.2934 49.2176 72.0205 47.1482 71.928 45.0172C71.8349 42.67 70.7829 40.8323 69.9164 39.705C70.9222 37.2033 71.3089 33.2655 67.9511 30.2078C65.4906 27.9687 61.3123 26.9649 55.5232 27.2429C52.9636 27.3662 50.4178 27.6915 47.9096 28.2158H47.8942C47.1204 28.3547 46.3019 28.5246 45.4647 28.7099C45.4028 27.7216 45.573 25.2662 47.399 19.7378C49.5654 13.1593 49.4416 8.12505 46.9967 4.75855C44.4279 1.22221 40.327 0.944239 39.12 0.944239C38.553 0.939568 37.9918 1.05879 37.4759 1.29356C36.9599 1.52832 36.5017 1.87292 36.1334 2.30319C34.4157 4.29527 35.2834 8.80129 35.5 10.5C33.4574 15.9666 27.0653 28.5401 22.2216 32.2617C22.1322 32.3254 22.0492 32.3978 21.9741 32.4779C20.7188 33.8138 19.694 35.3479 18.941 37.018C18.0006 36.5085 16.947 36.243 15.877 36.2458H6.43745C4.73052 36.2471 3.09385 36.9243 1.88685 38.1288C0.679857 39.3333 0.00122964 40.9665 0 42.67V67.7643C0.00122964 69.4677 0.679857 71.1009 1.88685 72.3052C3.09385 73.5095 4.73052 74.1871 6.43745 74.1883H15.877C17.2069 74.1901 18.5046 73.7797 19.5909 73.0148L23.2275 73.4468C23.7846 73.5243 33.6884 74.7748 43.8553 74.5742C45.6968 74.7132 47.4299 74.7902 49.0393 74.7902C51.8092 74.7902 54.2233 74.5741 56.2351 74.1415C60.9703 73.1378 64.2042 71.1305 65.8446 68.1809C66.8306 66.376 67.2 64.2997 66.8972 62.2665C69.9769 59.4868 70.5183 56.4138 70.4098 54.2518C70.3592 53.191 70.1458 52.1442 69.7771 51.1479Z"/>
	</symbol>


	<symbol id="icon-theme-reply" viewBox="0 0 13 13">
		<path d="M10.9039 2.07503C9.76986 0.940996 8.26542 0.316895 6.66203 0.316895C5.05865 0.316895 3.55421 0.940996 2.42017 2.07503C0.228206 4.267 0.0759861 7.77567 2.04216 10.1427C1.84935 10.5308 1.53983 10.9824 1.08064 11.2082C0.859919 11.3173 0.735606 11.5533 0.773661 11.7968C0.811716 12.0404 0.999453 12.2306 1.24301 12.2687C1.35717 12.2865 1.51954 12.3042 1.71742 12.3042C2.24766 12.3042 3.02905 12.1799 3.82821 11.604C4.71869 12.0835 5.6929 12.3169 6.6595 12.3169C8.21214 12.3169 9.74956 11.7156 10.9064 10.5588C12.0405 9.42472 12.6646 7.92028 12.6646 6.31689C12.6646 4.71351 12.0379 3.20907 10.9039 2.07503ZM10.4193 10.0742C8.70685 11.7867 6.05569 12.1266 3.97028 10.9012C3.83328 10.8201 3.6633 10.8454 3.55421 10.9545C3.54406 10.9596 3.53391 10.9672 3.5263 10.9748C2.83878 11.5076 2.16394 11.6192 1.71742 11.6192H1.71489C2.2299 11.2437 2.55463 10.6856 2.74491 10.2518C2.77535 10.1782 2.78043 10.1021 2.76267 10.0311C2.75506 9.96256 2.72715 9.89406 2.67895 9.83825C0.821864 7.74015 0.91827 4.54353 2.9022 2.5596C4.97493 0.486874 8.3466 0.486874 10.4168 2.5596C12.4921 4.63233 12.4921 8.00146 10.4193 10.0742Z" />
		<path d="M6.66211 6.73802C6.8947 6.73802 7.08325 6.54947 7.08325 6.31689C7.08325 6.0843 6.8947 5.89575 6.66211 5.89575C6.42952 5.89575 6.24097 6.0843 6.24097 6.31689C6.24097 6.54947 6.42952 6.73802 6.66211 6.73802Z" />
		<path d="M8.83374 6.73802C9.06633 6.73802 9.25488 6.54947 9.25488 6.31689C9.25488 6.0843 9.06633 5.89575 8.83374 5.89575C8.60115 5.89575 8.4126 6.0843 8.4126 6.31689C8.4126 6.54947 8.60115 6.73802 8.83374 6.73802Z" />
		<path d="M4.49023 6.73802C4.72282 6.73802 4.91137 6.54947 4.91137 6.31689C4.91137 6.0843 4.72282 5.89575 4.49023 5.89575C4.25764 5.89575 4.06909 6.0843 4.06909 6.31689C4.06909 6.54947 4.25764 6.73802 4.49023 6.73802Z" />
	</symbol>
	<symbol id="icon-theme-reply" viewBox="0 0 13 13">
		<path d="M10.9039 2.07503C9.76986 0.940996 8.26542 0.316895 6.66203 0.316895C5.05865 0.316895 3.55421 0.940996 2.42017 2.07503C0.228206 4.267 0.0759861 7.77567 2.04216 10.1427C1.84935 10.5308 1.53983 10.9824 1.08064 11.2082C0.859919 11.3173 0.735606 11.5533 0.773661 11.7968C0.811716 12.0404 0.999453 12.2306 1.24301 12.2687C1.35717 12.2865 1.51954 12.3042 1.71742 12.3042C2.24766 12.3042 3.02905 12.1799 3.82821 11.604C4.71869 12.0835 5.6929 12.3169 6.6595 12.3169C8.21214 12.3169 9.74956 11.7156 10.9064 10.5588C12.0405 9.42472 12.6646 7.92028 12.6646 6.31689C12.6646 4.71351 12.0379 3.20907 10.9039 2.07503ZM10.4193 10.0742C8.70685 11.7867 6.05569 12.1266 3.97028 10.9012C3.83328 10.8201 3.6633 10.8454 3.55421 10.9545C3.54406 10.9596 3.53391 10.9672 3.5263 10.9748C2.83878 11.5076 2.16394 11.6192 1.71742 11.6192H1.71489C2.2299 11.2437 2.55463 10.6856 2.74491 10.2518C2.77535 10.1782 2.78043 10.1021 2.76267 10.0311C2.75506 9.96256 2.72715 9.89406 2.67895 9.83825C0.821864 7.74015 0.91827 4.54353 2.9022 2.5596C4.97493 0.486874 8.3466 0.486874 10.4168 2.5596C12.4921 4.63233 12.4921 8.00146 10.4193 10.0742Z" />
		<path d="M6.66211 6.73802C6.8947 6.73802 7.08325 6.54947 7.08325 6.31689C7.08325 6.0843 6.8947 5.89575 6.66211 5.89575C6.42952 5.89575 6.24097 6.0843 6.24097 6.31689C6.24097 6.54947 6.42952 6.73802 6.66211 6.73802Z" />
		<path d="M8.83374 6.73802C9.06633 6.73802 9.25488 6.54947 9.25488 6.31689C9.25488 6.0843 9.06633 5.89575 8.83374 5.89575C8.60115 5.89575 8.4126 6.0843 8.4126 6.31689C8.4126 6.54947 8.60115 6.73802 8.83374 6.73802Z" />
		<path d="M4.49023 6.73802C4.72282 6.73802 4.91137 6.54947 4.91137 6.31689C4.91137 6.0843 4.72282 5.89575 4.49023 5.89575C4.25764 5.89575 4.06909 6.0843 4.06909 6.31689C4.06909 6.54947 4.25764 6.73802 4.49023 6.73802Z" />
	</symbol>

	<symbol id="icon-theme-comment" viewBox="0 0 15 13">
		<g clip-path="url(#clip0_4711_6395)">
		<path d="M14.0251 4.5169C13.9929 4.7496 13.9461 4.98005 13.8851 5.2069C13.7313 5.74146 13.4577 6.23393 13.0851 6.64691C13.0374 6.70021 13.0061 6.76621 12.9951 6.83691C12.9513 7.07598 12.9647 7.32203 13.0342 7.55493C13.1037 7.78783 13.2274 8.00096 13.3951 8.17691C13.4398 8.21329 13.4716 8.26298 13.486 8.31875C13.5004 8.37453 13.4966 8.43346 13.4751 8.4869C13.4507 8.53919 13.4106 8.58262 13.3605 8.61126C13.3103 8.6399 13.2526 8.65236 13.1951 8.64691C12.5091 8.63611 11.8496 8.38078 11.3351 7.92691C11.3077 7.8974 11.2721 7.87684 11.2328 7.86792C11.1936 7.85899 11.1525 7.86212 11.1151 7.87689L9.91514 8.09689C9.84546 8.10636 9.7748 8.10636 9.70512 8.09689C9.63512 8.37689 9.59511 8.65689 9.51511 8.90689C9.34246 9.42039 9.06732 9.89349 8.70634 10.2975C8.34535 10.7014 7.90607 11.0278 7.41514 11.2569C6.4837 11.7071 5.43554 11.8574 4.41514 11.6869C4.11514 11.6869 3.83513 11.5569 3.53513 11.4969C3.5166 11.4873 3.49602 11.4822 3.47514 11.4822C3.45425 11.4822 3.43367 11.4873 3.41514 11.4969C2.95831 11.9058 2.3847 12.1611 1.77512 12.2269H1.44511C1.21511 12.0769 1.19511 11.9369 1.38511 11.7269C1.54871 11.5526 1.66919 11.3425 1.73692 11.1132C1.80464 10.884 1.81774 10.6421 1.77512 10.4069C1.76276 10.3287 1.72799 10.2558 1.67509 10.1969C1.0534 9.51854 0.716781 8.62686 0.735084 7.7069C0.750232 7.22433 0.865638 6.75016 1.07395 6.3146C1.28226 5.87904 1.57895 5.49161 1.94511 5.17691C2.77048 4.42154 3.82865 3.97005 4.94511 3.89691C5.10511 3.89691 5.10511 3.8969 5.13511 3.6669C5.26425 2.77397 5.71607 1.95929 6.40513 1.37689C6.88515 0.954252 7.44753 0.635674 8.0568 0.441188C8.66607 0.246703 9.309 0.180555 9.94511 0.246914C11.1373 0.320052 12.2598 0.833182 13.0951 1.68689C13.6685 2.24909 14.023 2.99711 14.0951 3.7969C14.0995 3.81667 14.0995 3.83713 14.0951 3.8569L14.0251 4.5169ZM2.02512 11.7069C2.42962 11.5876 2.79532 11.3633 3.08512 11.0569C3.12523 11.0112 3.17787 10.9783 3.23655 10.9623C3.29523 10.9463 3.35737 10.9479 3.41514 10.9669C3.87683 11.1389 4.36285 11.2368 4.85514 11.2569C5.42902 11.3118 6.00803 11.2468 6.55546 11.066C7.10288 10.8853 7.60676 10.5927 8.03513 10.2069C8.36316 9.92624 8.62806 9.57933 8.81248 9.18899C8.99689 8.79865 9.09664 8.3737 9.10514 7.94207C9.11364 7.51045 9.0307 7.08192 8.86179 6.68463C8.69289 6.28733 8.44182 5.93026 8.1251 5.6369C7.43054 4.95989 6.5137 4.5583 5.54514 4.50689C4.91288 4.4465 4.275 4.52435 3.67582 4.73501C3.07664 4.94567 2.53046 5.28411 2.07511 5.72689C1.75302 6.00515 1.49639 6.35112 1.32352 6.74008C1.15066 7.12903 1.06582 7.55136 1.07511 7.97689C1.10512 8.7249 1.40738 9.43616 1.92509 9.97689C1.98423 10.0318 2.02889 10.1005 2.05509 10.1769C2.09986 10.4176 2.11996 10.6621 2.11509 10.9069C2.11812 11.1744 2.10142 11.4418 2.0651 11.7069H2.02512ZM12.6351 8.06689C12.4433 7.68724 12.3701 7.25869 12.4251 6.83691C12.4379 6.63782 12.5152 6.44829 12.6451 6.2969C13.1719 5.73078 13.4598 4.9831 13.4486 4.20987C13.4374 3.43663 13.1281 2.69757 12.5851 2.14691C11.9405 1.50906 11.1181 1.08087 10.2259 0.918483C9.33364 0.756098 8.41318 0.867097 7.58512 1.2369C7.13687 1.42648 6.73396 1.70902 6.40299 2.06585C6.07202 2.42268 5.82053 2.84569 5.66514 3.30691C5.59514 3.51691 5.5551 3.74691 5.5051 3.96691H5.66514C6.25053 4.01646 6.82262 4.16878 7.35514 4.4169C7.43443 4.44965 7.51935 4.46665 7.60514 4.46691H11.6951C11.7588 4.47179 11.8186 4.49996 11.8628 4.54608C11.9071 4.59219 11.9328 4.65303 11.9351 4.71691C11.9334 4.78038 11.9095 4.84121 11.8674 4.88876C11.8253 4.93631 11.7679 4.96751 11.7051 4.97689H8.26511C9.02416 5.59781 9.50894 6.49202 9.61509 7.46691C9.62379 7.48465 9.63642 7.50016 9.65202 7.51229C9.66761 7.52442 9.68578 7.53283 9.70512 7.53689C10.1626 7.52095 10.6149 7.43323 11.0451 7.27691C11.1275 7.23833 11.2202 7.22819 11.3089 7.2481C11.3976 7.26802 11.4772 7.31683 11.5351 7.3869C11.8343 7.7276 12.2331 7.9655 12.6751 8.06689H12.6351Z" />
		<path d="M5.18492 8.66699H7.37492C7.43609 8.67603 7.4923 8.70578 7.53416 8.75128C7.57602 8.79679 7.60104 8.85529 7.60496 8.91699C7.60775 8.98433 7.58424 9.05013 7.53947 9.10049C7.4947 9.15086 7.4321 9.18185 7.36491 9.18698H2.97495C2.91231 9.17519 2.85586 9.14164 2.81559 9.09222C2.77533 9.04281 2.75382 8.98072 2.75492 8.91699C2.75884 8.85529 2.7838 8.79679 2.82566 8.75128C2.86753 8.70578 2.92374 8.67603 2.9849 8.66699H5.18492Z" />
		<path d="M5.70514 7.09689H7.26514C7.35135 7.09889 7.43496 7.12678 7.50513 7.17691C7.54092 7.20863 7.56597 7.2507 7.57672 7.2973C7.58748 7.3439 7.5834 7.39269 7.56512 7.43689C7.5476 7.48461 7.51646 7.52615 7.47559 7.55637C7.43471 7.58658 7.3859 7.60415 7.33514 7.6069H4.02515C3.95789 7.60695 3.89321 7.58095 3.84473 7.53433C3.79624 7.48772 3.76772 7.42411 3.76514 7.3569C3.76514 7.28529 3.7936 7.21662 3.84424 7.16599C3.89487 7.11535 3.96355 7.08691 4.03516 7.08691H5.67511L5.70514 7.09689Z" />
		<path d="M3.00512 7.09692C3.07339 7.09674 3.13922 7.12244 3.18932 7.16882C3.23942 7.21521 3.27008 7.27884 3.27514 7.34692C3.27648 7.38107 3.27105 7.41518 3.25921 7.44724C3.24736 7.47929 3.22933 7.50868 3.20611 7.53375C3.18289 7.55883 3.15495 7.57908 3.12389 7.59335C3.09284 7.60763 3.05929 7.61566 3.02514 7.61694C2.98981 7.61981 2.95427 7.61512 2.92089 7.60321C2.8875 7.5913 2.85701 7.57241 2.83147 7.54782C2.80594 7.52323 2.78592 7.49352 2.77276 7.4606C2.75959 7.42769 2.75358 7.39235 2.75512 7.35693C2.7574 7.2904 2.78417 7.22707 2.83031 7.17908C2.87646 7.13109 2.93872 7.10182 3.00512 7.09692Z" />
		<path d="M10.0451 2.92696H11.7151C11.7756 2.93766 11.8308 2.96791 11.8723 3.01308C11.9139 3.05825 11.9395 3.11584 11.9451 3.17696C11.9438 3.2416 11.9202 3.3038 11.8783 3.35301C11.8364 3.40223 11.7787 3.43541 11.7151 3.44695H8.39511C8.35969 3.44848 8.32438 3.44247 8.29147 3.42931C8.25856 3.41614 8.22878 3.39613 8.20419 3.37059C8.1796 3.34506 8.16074 3.31459 8.14883 3.28121C8.13692 3.24782 8.13223 3.21229 8.1351 3.17696C8.13507 3.14327 8.14187 3.10991 8.15505 3.0789C8.16824 3.0479 8.18753 3.01989 8.21182 2.99654C8.2361 2.97319 8.26486 2.955 8.29635 2.94304C8.32785 2.93108 8.36144 2.92561 8.39511 2.92696C8.59511 2.92696 8.79508 2.92696 8.99508 2.92696H10.0451Z" />
		<path d="M7.34497 3.44699C7.27511 3.4444 7.20895 3.41483 7.16046 3.36447C7.11197 3.31411 7.08491 3.24691 7.08496 3.177C7.08755 3.10979 7.11607 3.04619 7.16455 2.99957C7.21303 2.95296 7.27771 2.92695 7.34497 2.927C7.41223 2.92695 7.47685 2.95296 7.52533 2.99957C7.57381 3.04619 7.60239 3.10979 7.60498 3.177C7.60785 3.21233 7.60316 3.24786 7.59125 3.28125C7.57933 3.31464 7.56042 3.3451 7.53583 3.37064C7.51124 3.39617 7.48152 3.41619 7.44861 3.42935C7.4157 3.44252 7.38039 3.44853 7.34497 3.44699Z" />
		</g>
		<defs>
		<clipPath id="clip0_4711_6395">
		<rect width="13.36" height="12" fill="white" transform="translate(0.665039 0.316895)"/>
		</clipPath>
		</defs>
	</symbol>

	<symbol id="icon-checkout-location" viewBox="0 0 9 13">
		<g clip-path="url(#clip0_6550_6777)">
		<path d="M0.854999 12.5009C0.838785 12.4891 0.824886 12.4798 0.808671 12.468C0.716015 12.4048 0.67432 12.318 0.699801 12.2079C0.725281 12.1024 0.813304 12.0344 0.931441 12.0344C1.1515 12.0321 1.37156 12.0344 1.59161 12.0344C2.32823 12.0344 3.06485 12.0344 3.80378 12.0344C3.84547 12.0344 3.88485 12.0344 3.94508 12.0344C3.91497 11.9876 3.89643 11.9548 3.87559 11.9243C2.8471 10.4524 1.82326 8.9782 0.792457 7.50633C-0.493146 5.67351 -0.180432 3.07664 1.50359 1.60945C2.23094 0.976642 3.06716 0.608673 4.02384 0.521954C4.04932 0.519611 4.0748 0.510236 4.10259 0.503204C4.30412 0.503204 4.50333 0.503204 4.70486 0.503204C4.9365 0.540704 5.17045 0.568829 5.39746 0.620392C7.09307 1.00008 8.44585 2.44617 8.73308 4.18992C8.93461 5.42039 8.67749 6.54539 7.96404 7.56492C7.7324 7.89539 7.50075 8.2282 7.26911 8.55867C7.20889 8.64539 7.12781 8.69226 7.02126 8.66648C6.91934 8.64304 6.84985 8.57508 6.84521 8.4743C6.8429 8.40633 6.86838 8.32664 6.90544 8.27039C7.1255 7.94461 7.35019 7.62351 7.57951 7.30242C9.26354 4.94227 8.0011 1.64461 5.18667 1.04695C3.04863 0.594611 0.896695 2.06883 0.528387 4.23445C0.336125 5.3618 0.574715 6.38601 1.22794 7.31883C2.25642 8.78601 3.28027 10.2579 4.30644 11.7298C4.33192 11.7673 4.35971 11.8048 4.39678 11.8587C4.42689 11.8188 4.45237 11.786 4.47553 11.7532C4.85774 11.2048 5.23995 10.6563 5.62447 10.1079C5.64995 10.0727 5.67311 10.0352 5.70091 10.0048C5.78199 9.91804 5.90012 9.90867 5.99509 9.97195C6.08775 10.0352 6.1225 10.1548 6.07385 10.2626C6.05532 10.3001 6.02984 10.3352 6.00668 10.3704C5.64763 10.8837 5.29091 11.3969 4.93187 11.9102C4.9087 11.9454 4.88554 11.9805 4.85079 12.0321C4.9087 12.0321 4.94808 12.0321 4.98978 12.0321C5.93487 12.0321 6.88228 12.0321 7.82737 12.0321C7.99646 12.0321 8.1007 12.1212 8.10302 12.2641C8.10534 12.3813 8.02658 12.4446 7.94087 12.5009C5.58046 12.5009 3.21773 12.5009 0.854999 12.5009Z" />
		<path d="M2.31396 4.95313C2.31396 3.79063 3.24979 2.84375 4.39873 2.84375C5.54766 2.84375 6.48349 3.79063 6.48349 4.95313C6.48349 6.11563 5.54766 7.0625 4.39873 7.0625C3.24979 7.0625 2.31396 6.11563 2.31396 4.95313ZM4.39873 3.3125C3.50691 3.3125 2.77725 4.04609 2.77725 4.94844C2.77493 5.85078 3.49996 6.58906 4.39178 6.59141C5.29054 6.59375 6.02021 5.85781 6.02021 4.94844C6.01789 4.04844 5.29286 3.3125 4.39873 3.3125Z" />
		<path d="M6.71539 9.30758C6.71771 9.43636 6.61116 9.54641 6.48375 9.54641C6.36099 9.54641 6.25675 9.44338 6.25443 9.31928C6.25212 9.1905 6.35867 9.08045 6.48607 9.08045C6.60652 9.07811 6.71076 9.18114 6.71539 9.30758Z" />
		</g>
		<defs>
		<clipPath id="clip0_6550_6777">
		<rect width="8.8" height="12" fill="white" transform="translate(0 0.5)"/>
		</clipPath>
		</defs>
	</symbol>

	<symbol id="icon-checkout-shipping" viewBox="0 0 15 15">
		<g clip-path="url(#clip0_5815_6773)">
		<path d="M7.12727 15H6.951C6.90863 14.97 6.86459 14.9424 6.8191 14.9174C4.62258 13.8563 2.42528 12.7967 0.227194 11.7387C0.0635574 11.6599 -0.000781063 11.5589 -0.00048728 11.3767C0.00421325 8.78635 0.00421325 6.19596 -0.00048728 3.60558C-0.00048728 3.42255 0.0650257 3.32296 0.228369 3.24452C2.43625 2.18396 4.64207 1.11938 6.84583 0.0507957C6.98214 -0.0153056 7.09466 -0.0179495 7.23127 0.0481518C9.43974 1.11831 11.649 2.1868 13.859 3.25362C13.9389 3.2924 14.0041 3.36056 14.0764 3.4152V11.5686C14 11.6253 13.9295 11.6961 13.8461 11.7369C11.7046 12.775 9.56224 13.8105 7.419 14.8437C7.3197 14.8916 7.22452 14.9477 7.12727 15ZM6.80999 14.423C6.81469 14.3683 6.8191 14.3395 6.8191 14.3108C6.8191 11.8861 6.81978 9.46156 6.82115 7.03726C6.82115 6.95177 6.79383 6.90565 6.71451 6.87098C6.55352 6.80106 6.39546 6.72409 6.24034 6.64154C6.21374 6.62888 6.18998 6.61096 6.17049 6.58886C6.15101 6.56676 6.13621 6.54094 6.12698 6.51296C6.11775 6.48498 6.1143 6.45542 6.11681 6.42606C6.11933 6.39671 6.12778 6.36817 6.14163 6.34217C6.19539 6.24023 6.31026 6.20321 6.43248 6.25139C6.47891 6.26662 6.52316 6.28786 6.56409 6.31455C6.8849 6.55311 7.18868 6.5202 7.52476 6.3172C7.85321 6.1186 8.21398 5.97288 8.5624 5.80836C8.72575 5.73139 8.87881 5.80337 8.89908 5.96113C8.91524 6.08687 8.84561 6.15914 8.73809 6.21055C8.28948 6.4259 7.84411 6.64859 7.39256 6.85688C7.28445 6.90682 7.25742 6.96763 7.25742 7.07898C7.26036 9.46842 7.26114 11.8586 7.25977 14.2496V14.4218C7.3244 14.3924 7.36406 14.3777 7.40255 14.3592C9.4414 13.3751 11.4806 12.3917 13.5203 11.4091C13.6166 11.3629 13.6378 11.3062 13.6378 11.2081C13.6353 8.81299 13.6346 6.41787 13.6357 4.02275V3.85617C13.602 3.86763 13.5834 3.87174 13.5667 3.87968C12.9427 4.1808 12.3199 4.48399 11.6935 4.78071C11.6054 4.82302 11.6092 4.885 11.6092 4.95874C11.6092 5.76518 11.6063 6.57191 11.6122 7.37834C11.6122 7.54786 11.5534 7.64921 11.3992 7.7209C10.913 7.94829 10.4297 8.18478 9.94788 8.41834C9.65234 8.56082 9.52513 8.48356 9.52484 8.1601C9.52484 7.36336 9.52484 6.56662 9.52631 5.76988C9.52631 5.67793 9.50956 5.62093 9.41643 5.57628C7.27965 4.54843 5.14365 3.51871 3.00844 2.48714C2.94861 2.46292 2.88171 2.46292 2.82189 2.48714C2.49872 2.6355 2.17909 2.79356 1.85828 2.94838L0.737201 3.49071C0.799483 3.52273 0.841788 3.54535 0.884093 3.56621L4.87748 5.49578C5.07931 5.59332 5.28291 5.6885 5.48238 5.79133C5.60283 5.85331 5.6422 5.97847 5.58844 6.08805C5.53791 6.19087 5.42069 6.2323 5.29936 6.18705C5.25382 6.17001 5.21122 6.14563 5.16686 6.12448C3.64683 5.39021 2.1266 4.65575 0.606175 3.9211C0.556526 3.89701 0.505701 3.87556 0.442538 3.84707V4.01775C0.442538 6.40719 0.441558 8.79742 0.439599 11.1884C0.439599 11.3077 0.476321 11.3667 0.582377 11.4179C2.20093 12.1954 3.8182 12.9755 5.4342 13.7581C5.88633 13.9791 6.33847 14.1962 6.80999 14.423ZM13.3343 3.49423C13.2888 3.47014 13.2565 3.45163 13.2227 3.43548C11.1942 2.45483 9.16485 1.47555 7.13462 0.49764C7.07026 0.473659 6.99906 0.475874 6.93632 0.503809C6.40222 0.754994 5.87194 1.01382 5.34049 1.27088C5.30905 1.28586 5.27938 1.30466 5.23443 1.32964C5.28232 1.35608 5.31081 1.374 5.34078 1.38839C7.37395 2.37002 9.40801 3.35028 11.4429 4.32917C11.4958 4.35472 11.5845 4.34444 11.6412 4.31771C12.1701 4.06829 12.6968 3.81211 13.2236 3.5571C13.2576 3.54065 13.2894 3.5192 13.3343 3.49335V3.49423ZM3.44324 2.19688C3.4782 2.21892 3.49347 2.23096 3.51051 2.23919C5.55309 3.22591 7.59654 4.21116 9.64088 5.19495C9.70593 5.21829 9.77753 5.21523 9.84036 5.18643C10.1905 5.02514 10.536 4.85416 10.8827 4.68699C10.9191 4.66907 10.9538 4.64733 11.0046 4.61854C10.9394 4.58446 10.8936 4.55978 10.846 4.53599C10.0861 4.16895 9.32634 3.80192 8.56681 3.43489C7.32822 2.83675 6.08924 2.2389 4.84987 1.64134C4.79111 1.61343 4.70298 1.59433 4.64922 1.61842C4.2482 1.80175 3.85571 1.99682 3.44324 2.19688ZM9.97462 7.90774C10.0234 7.88806 10.0628 7.87455 10.1015 7.85604C10.4182 7.70415 10.7326 7.54756 11.0516 7.40155C11.1474 7.35749 11.1727 7.30049 11.1721 7.20061C11.168 6.53636 11.17 5.87182 11.17 5.20758V5.0648C11.1406 5.0648 11.1248 5.0601 11.1133 5.0648C10.7529 5.23754 10.3915 5.40882 10.0345 5.5892C9.99753 5.60801 9.96815 5.68057 9.96786 5.72846C9.96345 6.41708 9.96492 7.10601 9.96522 7.79464C9.96522 7.82842 9.97051 7.86133 9.97462 7.90774Z" />
		<path d="M1.19447 8.95389C1.23376 8.96545 1.27232 8.97938 1.30993 8.9956C1.9159 9.28743 2.52149 9.58014 3.12668 9.87372C3.1778 9.8984 3.24949 9.93601 3.25859 9.97861C3.27593 10.0606 3.28327 10.1675 3.24361 10.2333C3.18045 10.3376 3.06352 10.3306 2.9557 10.2786C2.53461 10.0747 2.11352 9.87098 1.69243 9.66749C1.48678 9.56789 1.27908 9.47036 1.07549 9.36724C0.972664 9.31583 0.922426 9.22769 0.95533 9.11312C0.983533 9.00912 1.05845 8.95036 1.19447 8.95389Z" />
		<path d="M2.37963 10.6476C2.37963 10.8439 2.23538 10.9599 2.09847 10.8985C1.74359 10.7396 1.3934 10.5698 1.04644 10.3929C0.939795 10.3383 0.909829 10.2272 0.970348 10.1147C1.03087 10.0022 1.12635 9.95898 1.24063 10.0119C1.58494 10.1714 1.9272 10.335 2.26505 10.5081C2.32439 10.5383 2.35789 10.6197 2.37963 10.6476Z" />
		</g>
		<defs>
		<clipPath id="clip0_5815_6773">
		<rect width="14.0763" height="15" fill="white"/>
		</clipPath>
		</defs>
	</symbol>


	<symbol id="icon-checkout-wallet" viewBox="0 0 15 15">
		<g>
			<path d="M9.7,1.2c-0.1,0-0.1,0-0.2,0c-0.1,0-0.1,0.1-0.1,0.1c0,0,0,0,0,0C9.3,1.4,9.2,1.4,9.1,1.3
				C9,1.2,8.8,1.3,8.8,1.4L8.4,1.8c-0.1,0.1,0,0.2,0.1,0.3c0,0,0.1,0,0.1,0c0.1,0,0.1,0,0.2-0.1L9,1.8c0.2,0.1,0.4,0,0.6-0.1l0.3,0.2
				c0.1,0.1,0.2,0,0.3-0.1c0.1-0.1,0-0.2-0.1-0.3L9.7,1.2z"/>
			<path d="M12.1,4l-0.2,0.3c-0.1,0.1,0,0.2,0.1,0.3c0,0,0.1,0,0.1,0c0.1,0,0.1,0,0.2-0.1l0.3-0.5c0.1-0.1,0-0.2-0.1-0.3
				c-0.1-0.1-0.1-0.2-0.1-0.3c0,0,0,0,0,0c0,0,0.1-0.1,0.1-0.2c0-0.1,0-0.1-0.1-0.2L12,2.8c-0.1-0.1-0.2,0-0.3,0.1
				c-0.1,0.1,0,0.2,0.1,0.3L12,3.4C12,3.6,12,3.8,12.1,4z"/>
			<path d="M11,8.9c0.1,0,0.2,0,0.3,0.1c0.1,0.1,0.2,0.1,0.3,0c0.1-0.1,0.1-0.2,0-0.3c-0.2-0.2-0.4-0.3-0.6-0.3
				c-0.4,0-0.8,0.4-0.8,0.8c0,0.4,0.4,0.8,0.8,0.8c0.2,0,0.4-0.1,0.6-0.2c0.1-0.1,0.1-0.2,0-0.3c-0.1-0.1-0.2-0.1-0.3,0
				c-0.1,0.1-0.2,0.1-0.3,0.1c-0.2,0-0.4-0.2-0.4-0.4C10.6,9.1,10.8,8.9,11,8.9z"/>
			<path d="M12.9,7.7V6c0-0.6-0.5-1.1-1.1-1.1h-1.2c0.1-0.6-0.1-1.1-0.5-1.4C9.8,3.2,9.3,3.2,8.9,3.4
				C8.4,3.5,8,3.8,7.7,4.3C7.6,4.5,7.5,4.7,7.4,4.9H6l3.1-4.4l4.3,3l-0.7,0.9c-0.1,0.1,0,0.2,0.1,0.3c0.1,0.1,0.2,0,0.3-0.1l0.7-1
				c0.1-0.2,0.1-0.4-0.1-0.5L9.2,0.1C9.2,0,9.1,0,9,0C8.9,0,8.8,0.1,8.8,0.1l-1,1.5V0.7c0-0.2-0.2-0.3-0.3-0.3H2.1
				c-0.2,0-0.3,0.2-0.3,0.3v1.2C1.8,2,1.9,2.1,2,2.1c0.1,0,0.2-0.1,0.2-0.2V0.8h0.6v4H2.3c0,0,0,0-0.1,0V2.8c0-0.1-0.1-0.2-0.2-0.2
				c-0.1,0-0.2,0.1-0.2,0.2V5C1.4,5.2,1.2,5.5,1.2,6v6.6c0,0.6,0.5,1.1,1.1,1.1h1.6c0.1,0,0.2-0.1,0.2-0.2c0-0.1-0.1-0.2-0.2-0.2H2.3
				c-0.4,0-0.6-0.3-0.6-0.6V6c0-0.3,0.2-0.5,0.4-0.6c0,0,0,0,0,0c0.1,0,0.1,0,0.2,0h9.5c0.4,0,0.6,0.3,0.6,0.6v1.7h-1.6
				c-0.9,0-1.6,0.7-1.6,1.6c0,0.9,0.7,1.6,1.6,1.6h1.6v1.7c0,0.4-0.3,0.6-0.6,0.6h-1.7c-0.1,0-0.2,0.1-0.2,0.2c0,0.1,0.1,0.2,0.2,0.2
				h1.7c0.6,0,1.1-0.5,1.1-1.1v-1.8c0.5-0.1,0.9-0.6,0.9-1.1V8.8C13.8,8.3,13.4,7.8,12.9,7.7z M8.1,4.5c0.5-0.7,1.3-1,1.8-0.7
				c0.3,0.2,0.4,0.6,0.3,1H7.9C7.9,4.7,8,4.6,8.1,4.5z M7.3,2.2L5.4,4.9H4.4v-4h2.9V2.2z M3.3,0.8h0.6v4H3.3V0.8z M13.3,9.7
				c0,0.4-0.3,0.7-0.7,0.7h-1.8c-0.6,0-1.1-0.5-1.1-1.1c0-0.6,0.5-1.1,1.1-1.1h1.8c0.4,0,0.7,0.3,0.7,0.7V9.7z"/>
			<path d="M7.1,9.7c-1.5,0-2.7,1.2-2.7,2.7c0,1.5,1.2,2.7,2.7,2.7c1.5,0,2.7-1.2,2.7-2.7C9.7,10.9,8.5,9.7,7.1,9.7z
				M7.1,14.6c-1.2,0-2.2-1-2.2-2.2c0-1.2,1-2.2,2.2-2.2c1.2,0,2.2,1,2.2,2.2C9.3,13.6,8.3,14.6,7.1,14.6z"/>
			<path d="M7.2,12.1H6.9c-0.1,0-0.2-0.1-0.2-0.2c0-0.1,0.1-0.2,0.2-0.2h0.7c0.1,0,0.2-0.1,0.2-0.2c0-0.1-0.1-0.2-0.2-0.2
				H7.3v-0.2c0-0.1-0.1-0.2-0.2-0.2c-0.1,0-0.2,0.1-0.2,0.2v0.2h0c-0.4,0-0.6,0.3-0.6,0.6s0.3,0.6,0.6,0.6h0.4c0.1,0,0.2,0.1,0.2,0.2
				c0,0.1-0.1,0.2-0.2,0.2H6.5c-0.1,0-0.2,0.1-0.2,0.2s0.1,0.2,0.2,0.2h0.4v0.2c0,0.1,0.1,0.2,0.2,0.2c0.1,0,0.2-0.1,0.2-0.2v-0.2
				c0.3,0,0.6-0.3,0.6-0.6C7.9,12.4,7.6,12.1,7.2,12.1z"/>
		</g>
	</symbol>

	<symbol id="icon-checkout-coupon" viewBox="0 0 16 15">
		<path d="M0 9.84482C0.0880385 9.41225 0.370642 9.10969 0.673201 8.81212C1.47024 8.02828 2.25789 7.23505 3.04555 6.44124C3.15794 6.32826 3.27709 6.27573 3.43497 6.28218C3.63335 6.28981 3.83261 6.28394 4.04801 6.28394C4.04801 6.05915 4.05183 5.8505 4.04654 5.64214C4.04365 5.57891 4.05457 5.5158 4.07855 5.45722C4.10252 5.39863 4.13896 5.34597 4.18535 5.3029C5.80917 3.6822 7.43231 2.06043 9.05476 0.437585C9.64315 -0.14934 10.4575 -0.144351 11.0488 0.442574C11.3435 0.734863 11.6369 1.02832 11.9292 1.32296C12.1053 1.49904 12.1091 1.62787 11.9486 1.81833C11.6314 2.19484 11.6469 2.70517 11.9859 3.0359C12.3195 3.36164 12.8269 3.36957 13.1932 3.05498C13.3707 2.90267 13.511 2.9059 13.6785 3.07229C13.9802 3.37133 14.2822 3.66978 14.5795 3.97351C15.137 4.54195 15.1467 5.34193 14.5956 5.91447C14.176 6.35056 13.7422 6.77314 13.3126 7.19984C13.1659 7.3451 12.9971 7.35361 12.8724 7.22919C12.7477 7.10476 12.755 6.93103 12.9064 6.77784C13.3173 6.36699 13.7281 5.95615 14.139 5.5453C14.5102 5.17319 14.5108 4.73358 14.141 4.36088C13.9007 4.11848 13.6598 3.87667 13.4144 3.63016C13.0652 3.84351 12.6972 3.92098 12.3016 3.83911C12.0071 3.77941 11.7384 3.62945 11.533 3.41007C11.1827 3.045 10.9288 2.35888 11.3414 1.64753C11.048 1.33323 10.7824 1.00543 10.4719 0.727819C10.2175 0.500973 9.81512 0.547634 9.55364 0.771545C9.51667 0.803239 9.48233 0.838161 9.44771 0.87279C7.88042 2.43968 6.31256 4.00628 4.7441 5.57259C4.66633 5.65036 4.62672 5.72666 4.63053 5.83964C4.63934 6.06884 4.63464 6.29862 4.63259 6.5281C4.63083 6.76287 4.52958 6.86529 4.29217 6.86881C4.05476 6.87233 3.81353 6.86382 3.57466 6.87351C3.4998 6.87638 3.42811 6.90452 3.37129 6.95333C2.52201 7.79576 1.67567 8.64084 0.832257 9.48855C0.499765 9.82222 0.500939 10.2739 0.83079 10.6096C1.06996 10.8534 1.31353 11.0929 1.55535 11.3347C1.56562 11.3447 1.57794 11.3532 1.59232 11.3641C2.29428 10.9952 2.94606 11.0445 3.50423 11.6376C3.94236 12.1033 3.97817 12.7193 3.64333 13.3984C3.92153 13.6824 4.18564 13.9776 4.47764 14.2426C4.76963 14.5076 5.20572 14.4689 5.49918 14.1822C5.81318 13.8749 6.12132 13.5618 6.43209 13.251C6.96737 12.7161 7.5044 12.1828 8.03469 11.6432C8.09074 11.5801 8.12393 11.5 8.12889 11.4157C8.14121 11.1771 8.13094 10.9374 8.13446 10.6982C8.13769 10.4705 8.2407 10.3695 8.46872 10.3669C8.65917 10.3642 8.85022 10.3519 9.0395 10.3701C9.24492 10.3895 9.38197 10.3114 9.52107 10.1682C9.9821 9.69075 10.4569 9.2262 10.9268 8.75725C10.9666 8.7144 11.0106 8.67566 11.0582 8.64162C11.1114 8.6055 11.1754 8.58871 11.2395 8.59405C11.3036 8.59939 11.3639 8.62654 11.4104 8.67097C11.4595 8.71566 11.4916 8.77607 11.5011 8.84182C11.5105 8.90758 11.4968 8.97458 11.4623 9.03134C11.4323 9.07697 11.3969 9.11884 11.357 9.15606C10.8085 9.70542 10.2577 10.2524 9.71153 10.8041C9.66592 10.8547 9.60963 10.8945 9.54675 10.9207C9.48386 10.9468 9.41595 10.9586 9.34793 10.9553C9.14427 10.9482 8.94031 10.9535 8.71787 10.9535C8.71787 11.1713 8.71258 11.3746 8.71933 11.5777C8.72462 11.7306 8.67062 11.8462 8.56233 11.9539C7.75179 12.7589 6.94007 13.563 6.1398 14.3779C5.84986 14.6714 5.54643 14.9276 5.1256 15.001H4.77345C4.475 14.9317 4.2012 14.8164 3.9811 14.593C3.67619 14.2843 3.36659 13.98 3.0611 13.6716C2.90322 13.5122 2.90146 13.3702 3.04907 13.1973C3.36777 12.8238 3.35838 12.314 3.02618 11.9806C2.69398 11.6473 2.18746 11.6352 1.80948 11.9548C1.62724 12.1089 1.49636 12.1054 1.32527 11.9363C1.10664 11.7206 0.895938 11.4961 0.671734 11.2866C0.363599 10.9961 0.0895058 10.6868 0 10.2548V9.84482Z" />
		<path d="M0 10.2548C0.0895058 10.6867 0.363599 10.996 0.673201 11.2857C0.897406 11.4955 1.10811 11.7197 1.32674 11.9354C1.49783 12.1044 1.62871 12.108 1.81095 11.9539C2.18893 11.6343 2.69368 11.6449 3.02764 11.9797C3.3616 12.3146 3.36923 12.8228 3.05053 13.1964C2.9038 13.3693 2.9038 13.5113 3.06257 13.6707C3.36806 13.9791 3.67884 14.2834 3.98257 14.5921C4.20296 14.8154 4.47676 14.9308 4.77491 15H0V10.2548Z" fill="white"/>
		<path d="M8.88874 3.84432C9.03195 3.84109 9.14229 3.93617 9.19188 4.11196C9.33001 4.60439 9.46696 5.09721 9.60273 5.59042C9.76746 6.18185 9.9319 6.77337 10.096 7.36499C10.1051 7.39786 10.1148 7.43043 10.1225 7.46389C10.1627 7.63732 10.0817 7.78376 9.92026 7.8313C9.76384 7.87738 9.60948 7.79286 9.55842 7.62001C9.46774 7.31129 9.38498 7.00051 9.2987 6.69061C9.07411 5.8832 8.84912 5.07579 8.62374 4.26837C8.56211 4.03595 8.68038 3.84931 8.88874 3.84432Z" />
		<path d="M11.9548 5.57398C11.9536 5.74738 11.9012 5.91656 11.804 6.06018C11.7068 6.2038 11.5693 6.31543 11.4087 6.38098C11.2482 6.44654 11.0718 6.46309 10.9019 6.42855C10.7319 6.39402 10.576 6.30993 10.4538 6.1869C10.3316 6.06388 10.2486 5.90742 10.2152 5.73726C10.1818 5.5671 10.1995 5.39086 10.2661 5.23076C10.3328 5.07066 10.4453 4.93387 10.5896 4.83765C10.7338 4.74142 10.9033 4.69007 11.0768 4.69007C11.1927 4.68964 11.3075 4.71225 11.4146 4.75659C11.5217 4.80093 11.619 4.86611 11.7007 4.94835C11.7824 5.0306 11.8469 5.12826 11.8905 5.23566C11.9342 5.34306 11.956 5.45806 11.9548 5.57398ZM11.3679 5.56253C11.3667 5.48655 11.3358 5.41404 11.2819 5.36055C11.2279 5.30707 11.1551 5.27686 11.0791 5.27641C11.0383 5.27215 10.9971 5.27649 10.9581 5.28914C10.9191 5.3018 10.8832 5.32249 10.8526 5.34988C10.8221 5.37727 10.7977 5.41075 10.7809 5.44816C10.7641 5.48558 10.7553 5.5261 10.7552 5.5671C10.755 5.60811 10.7634 5.6487 10.7799 5.68625C10.7964 5.7238 10.8206 5.75747 10.8509 5.78511C10.8812 5.81274 10.9169 5.83372 10.9558 5.84669C10.9947 5.85966 11.0359 5.86433 11.0768 5.8604C11.1157 5.86069 11.1542 5.85314 11.1902 5.83819C11.2261 5.82325 11.2586 5.80122 11.2859 5.77342C11.3131 5.74562 11.3344 5.71261 11.3486 5.67638C11.3628 5.64015 11.3696 5.60143 11.3685 5.56253H11.3679Z" />
		<path d="M8.55949 5.67062C8.56054 5.78571 8.5388 5.89987 8.49554 6.00653C8.45227 6.11318 8.38833 6.21022 8.30739 6.29205C8.22646 6.37388 8.13014 6.4389 8.02397 6.48334C7.9178 6.52778 7.80389 6.55078 7.68879 6.55101C7.57223 6.55326 7.4564 6.53225 7.34805 6.48923C7.2397 6.4462 7.14102 6.38202 7.05775 6.30043C6.97449 6.21884 6.90832 6.12147 6.86311 6.01401C6.8179 5.90656 6.79455 5.79118 6.79443 5.6746C6.79432 5.55802 6.81743 5.44259 6.86243 5.33505C6.90742 5.2275 6.9734 5.13 7.0565 5.04824C7.1396 4.96648 7.23816 4.9021 7.34642 4.85886C7.45468 4.81562 7.57047 4.79438 7.68703 4.7964C7.80184 4.79608 7.91557 4.8185 8.02168 4.86234C8.12779 4.90619 8.22417 4.9706 8.30527 5.05186C8.38637 5.13313 8.45059 5.22964 8.49422 5.33584C8.53785 5.44203 8.56004 5.55581 8.55949 5.67062ZM7.97257 5.67062C7.973 5.63272 7.96585 5.59512 7.95153 5.56003C7.93721 5.52494 7.91601 5.49307 7.88918 5.46629C7.86235 5.43952 7.83044 5.41839 7.79532 5.40414C7.7602 5.38989 7.72258 5.38281 7.68468 5.38332C7.64661 5.38359 7.60896 5.39136 7.57388 5.40618C7.53881 5.421 7.507 5.44258 7.48026 5.4697C7.45353 5.49681 7.4324 5.52892 7.41808 5.5642C7.40376 5.59949 7.39652 5.63724 7.39679 5.67532C7.39706 5.71339 7.40483 5.75104 7.41965 5.78612C7.43447 5.82119 7.45605 5.853 7.48317 5.87973C7.51028 5.90647 7.5424 5.9276 7.57768 5.94192C7.61296 5.95624 7.65071 5.96347 7.68879 5.9632C7.7268 5.96282 7.76435 5.95491 7.79927 5.93991C7.8342 5.92492 7.8658 5.90314 7.89225 5.87585C7.9187 5.84855 7.93947 5.81628 7.95335 5.7809C7.96724 5.74552 7.97397 5.70774 7.97316 5.66974L7.97257 5.67062Z" />
		<path d="M5.63444 9.68099C5.57574 9.7834 5.5464 9.86469 5.49269 9.92045C5.17673 10.2446 4.85686 10.5653 4.53308 10.8824C4.39515 11.0183 4.22523 11.0203 4.10403 10.9006C3.98284 10.7809 3.98254 10.6092 4.11753 10.4719C4.43858 10.1455 4.76315 9.82302 5.0886 9.5011C5.18339 9.40748 5.30576 9.36376 5.4205 9.43947C5.50326 9.49523 5.55902 9.59412 5.63444 9.68099Z" />
		<path d="M4.71984 8.76426C4.66497 8.8655 4.64149 8.94444 4.59043 8.99668C4.26742 9.3277 3.94051 9.65472 3.60968 9.97772C3.47733 10.1077 3.31269 10.1063 3.19208 9.98917C3.07147 9.87208 3.0703 9.69571 3.20323 9.56071C3.52428 9.23458 3.84787 8.91089 4.174 8.58965C4.26879 8.49574 4.39058 8.45289 4.50532 8.52714C4.59072 8.5829 4.64736 8.6815 4.71984 8.76426Z" />
		<path d="M5.24744 11.8996C5.08897 11.8887 5.00035 11.8301 4.95075 11.7171C4.89734 11.5953 4.92757 11.4864 5.01707 11.3957C5.25184 11.1563 5.49101 10.9195 5.72871 10.682C5.82174 10.589 5.91183 10.4931 6.00926 10.405C6.13985 10.2876 6.29979 10.2894 6.416 10.403C6.44417 10.4286 6.46682 10.4597 6.48256 10.4944C6.4983 10.529 6.5068 10.5666 6.50754 10.6046C6.50828 10.6427 6.50125 10.6805 6.48687 10.7158C6.47249 10.751 6.45107 10.783 6.42392 10.8097C6.09133 11.1515 5.75366 11.4886 5.4109 11.821C5.36306 11.8676 5.28412 11.8826 5.24744 11.8996Z" />
		<path d="M7.87932 9.87273C7.84645 9.91529 7.79979 10.0289 7.7185 10.0655C7.6708 10.0831 7.62002 10.0908 7.56926 10.088C7.51849 10.0853 7.46882 10.0723 7.42328 10.0497C7.31734 9.991 7.23341 9.88506 7.15417 9.78763C7.0811 9.69783 7.06613 9.57546 7.14214 9.49035C7.20582 9.41875 7.31 9.3539 7.40273 9.34362C7.57412 9.32426 7.87403 9.63973 7.87932 9.87273Z" />
		<path d="M6.76637 8.71024C6.76431 8.92181 6.53159 9.07675 6.35551 8.96495C6.22914 8.88451 6.12235 8.77683 6.04297 8.64979C5.93733 8.47724 6.08817 8.25158 6.29242 8.24307C6.47114 8.23544 6.76783 8.52712 6.76637 8.71024Z" />
		<path d="M5.16495 7.16052C5.38974 7.16258 5.66149 7.41642 5.6433 7.5837C5.63332 7.6732 5.57433 7.78912 5.50155 7.83197C5.42877 7.87481 5.29613 7.87657 5.21836 7.83813C5.11468 7.78384 5.02987 7.69944 4.97508 7.59602C4.95576 7.55126 4.9458 7.50303 4.9458 7.45428C4.9458 7.40553 4.95576 7.3573 4.97508 7.31254C5.0144 7.23359 5.12299 7.18987 5.16495 7.16052Z" />
		<path d="M12.4327 7.95074C12.4335 8.00809 12.4172 8.06438 12.3859 8.11244C12.3546 8.16051 12.3097 8.19819 12.2569 8.2207C12.2042 8.24322 12.1459 8.24955 12.0896 8.23889C12.0332 8.22823 11.9813 8.20106 11.9404 8.16083C11.8995 8.12061 11.8715 8.06914 11.86 8.01297C11.8484 7.95679 11.8538 7.89844 11.8754 7.84533C11.8971 7.79222 11.934 7.74674 11.9816 7.71466C12.0291 7.68259 12.0851 7.66537 12.1425 7.66519C12.1803 7.66465 12.2179 7.67163 12.2531 7.68573C12.2882 7.69983 12.3202 7.72076 12.3472 7.74733C12.3742 7.77389 12.3957 7.80555 12.4104 7.84047C12.425 7.87538 12.4326 7.91287 12.4327 7.95074Z" />
	</symbol>

	<symbol id="icon-theme-compare" viewBox="0 0 20 18">
		<style type="text/css">
			.st0{fill:none;}
		</style>
		<g>
			<path class="st0" d="M14.6,13V4H6.4c-0.6,0-1,0.4-1,1v9h8.2C14.2,14,14.6,13.6,14.6,13z"/>
			<path class="st0" d="M6.4,3h8.2V2c0-0.6-0.4-1-1-1h-11c-0.6,0-1,0.4-1,1v11c0,0.6,0.4,1,1,1h1.8V5C4.4,3.9,5.3,3,6.4,3z"/>
			<path class="st0" d="M13.6,15H5.4v1c0,0.6,0.4,1,1,1h11c0.6,0,1-0.4,1-1V5c0-0.6-0.4-1-1-1h-1.8v9C15.6,14.1,14.7,15,13.6,15z"/>
			<path class="st1" d="M2.6,14c-0.6,0-1-0.4-1-1V2c0-0.6,0.4-1,1-1h11c0.6,0,1,0.4,1,1v1h1V2c0-1.1-0.9-2-2-2h-11c-1.1,0-2,0.9-2,2
				v11c0,1.1,0.9,2,2,2h1.8v-1H2.6z"/>
			<path class="st1" d="M17.4,3h-1.8v1h1.8c0.6,0,1,0.4,1,1v11c0,0.6-0.4,1-1,1h-11c-0.6,0-1-0.4-1-1v-1h-1v1c0,1.1,0.9,2,2,2h11
				c1.1,0,2-0.9,2-2V5C19.4,3.9,18.5,3,17.4,3z"/>
			<path class="st1" d="M6.4,4h8.2V3H6.4c-1.1,0-2,0.9-2,2v9h1V5C5.4,4.4,5.8,4,6.4,4z"/>
			<rect x="14.6" y="3" class="st1" width="1" height="1"/>
			<rect x="4.4" y="14" class="st1" width="1" height="1"/>
		</g>
	</symbol>

	<symbol id="icon-sticky-home" viewBox="0 0 23 24">
		<path d="M0 10.9219C0.161566 10.7172 0.302937 10.4913 0.488925 10.3114C3.86583 7.04124 7.24603 3.77424 10.6295 0.510363C10.7305 0.413141 10.8291 0.312162 10.9353 0.220577C11.2809 -0.0757829 11.691 -0.0729641 12.038 0.225744C12.0972 0.276938 12.1526 0.331888 12.2085 0.38637L22.6051 10.4279C22.6558 10.4748 22.7065 10.5255 22.7526 10.5786C22.9724 10.8313 23.0311 11.1201 22.8986 11.4273C22.7662 11.7345 22.5257 11.9078 22.188 11.9134C21.7212 11.9209 21.2539 11.9134 20.7607 11.9134C20.7541 12.0398 20.7438 12.145 20.7438 12.2502C20.7438 15.8265 20.7452 19.403 20.748 22.9797C20.748 23.4743 20.5902 23.8279 20.1074 23.9984H14.1079C13.6448 23.8068 13.486 23.4592 13.4903 22.9652C13.5072 20.9893 13.4973 19.0129 13.4973 17.0365V16.7665H9.46943V17.06C9.46943 19.0284 9.4591 20.9968 9.47648 22.9652C9.48071 23.4611 9.32196 23.8106 8.8584 23.9984H2.85887C2.37699 23.8279 2.2173 23.4752 2.21871 22.9811C2.22716 19.3994 2.22873 15.8179 2.22341 12.2365V11.9167C1.80071 11.9167 1.41088 11.8979 1.02387 11.9214C0.525557 11.9519 0.178474 11.7664 0 11.2953V10.9219ZM19.9341 23.185V12.19C19.9341 12.0961 19.9308 12.0022 19.9388 11.9082C19.9806 11.4221 20.2939 11.1244 20.7842 11.115C21.1599 11.1079 21.5357 11.115 21.909 11.115C21.9739 11.115 22.0387 11.1056 22.1439 11.0971L11.4824 0.81142L0.830372 11.0971C0.890489 11.1108 0.898005 11.114 0.90552 11.114C1.3193 11.114 1.73307 11.114 2.14685 11.1192C2.67617 11.1253 2.99789 11.4287 3.02935 11.9486C3.03452 12.0261 3.02935 12.1046 3.02935 12.1835V23.1789H8.66536V22.8811C8.66536 20.8891 8.66536 18.8972 8.66536 16.9055C8.66536 16.248 8.96924 15.945 9.62395 15.9446C10.8582 15.9446 12.0922 15.9446 13.3259 15.9446C13.9975 15.9446 14.2962 16.2447 14.2962 16.9173C14.2962 18.9171 14.2962 20.9168 14.2962 22.9163V23.185H19.9341Z"/>
	</symbol>

	<symbol id="icon-menu" viewBox="0 0 27 21">
		<path fill-rule="evenodd" clip-rule="evenodd" d="M0.256 0.25H26.062V1.75H0.256V0.25ZM0.256 10.009H26.062V11.509H0.256V10.009ZM0.25 19.05H14.03V20.55H0.25V19.05Z"/>
	</symbol>

	<symbol id="icon-close" viewBox="0 0 20 20">
		<path d="M18.382 0L19.3809 1.0308L0.998854 19.9993L0 18.9692L18.382 0Z"/>
		<path d="M0.998854 0L19.3809 18.9685L18.382 20L0 1.03153L0.998854 0Z"/>
	</symbol>

	<symbol id="icon-phone-voice" viewBox="0 0 30 30">
		<path d="M24 13H22C21.9992 12.2046 21.6829 11.442 21.1204 10.8796C20.558 10.3171 19.7954 10.0008 19 10V8C20.3256 8.00159 21.5964 8.52888 22.5338 9.46622C23.4711 10.4036 23.9984 11.6744 24 13V13Z"/>
		<path d="M28 13H26C25.9979 11.1441 25.2597 9.36489 23.9474 8.05259C22.6351 6.7403 20.8559 6.00212 19 6V4C21.3861 4.00265 23.6738 4.95171 25.361 6.63896C27.0483 8.32622 27.9974 10.6139 28 13V13Z"/>
		<path d="M20.333 21.482L22.573 19.242C22.8728 18.9421 23.2541 18.7368 23.6695 18.6514C24.0849 18.5661 24.5162 18.6046 24.91 18.762L27.638 19.854C28.0401 20.0149 28.3847 20.2925 28.6275 20.6512C28.8703 21.0098 29 21.4329 29 21.866V26.827C29.0007 27.1219 28.9412 27.4138 28.8252 27.6848C28.7092 27.9559 28.5391 28.2005 28.3252 28.4035C28.1114 28.6066 27.8584 28.7638 27.5817 28.8657C27.305 28.9676 27.0104 29.0119 26.716 28.996C7.594 27.806 3.732 11.61 3.015 5.40801C2.98028 5.1048 3.01014 4.79768 3.10262 4.50685C3.1951 4.21601 3.34811 3.94805 3.55157 3.72059C3.75504 3.49312 4.00436 3.31131 4.28314 3.18712C4.56191 3.06292 4.86382 2.99916 5.169 3.00001H10.042C10.4751 2.99999 10.8982 3.12974 11.2568 3.37251C11.6155 3.61528 11.8931 3.95993 12.054 4.36201L13.145 7.09001C13.3024 7.48378 13.3409 7.9151 13.2556 8.33051C13.1702 8.74592 12.9649 9.12717 12.665 9.42701L10.425 11.667C10.425 11.667 11.667 20.399 20.333 21.482Z"/>
	</symbol>

	<symbol id="icon-checkout-circle" viewBox="0 0 20 20">
		<path id="np_tick_1676385_000000" d="M10,0a10,10,0,1,0,7.071,2.929A10,10,0,0,0,10,0Zm4.48,8.11-5,5a1.134,1.134,0,0,1-.78.31,1.152,1.152,0,0,1-.7-.36L5.1,10.21a1.1,1.1,0,0,1,0-1.56,1.079,1.079,0,0,1,1.55,0l2.1,2.1,4.2-4.2a1.093,1.093,0,1,1,1.53,1.56Z"/>
	</symbol>

	<symbol id="icon-header-wishlisted" viewBox="0 0 30 25">
		<path d="M15.9124 24.1762L27.0757 13.0141C29.8175 10.2712 30.2219 5.75962 27.6267 2.87678C26.9765 2.15288 26.1856 1.56902 25.3023 1.16083C24.419 0.752635 23.4618 0.528664 22.489 0.502576C21.5163 0.476487 20.5485 0.648827 19.6446 1.00908C18.7407 1.36934 17.9196 1.90997 17.2315 2.59798L15.1333 4.69619L13.3216 2.8845C10.5787 0.141618 6.06715 -0.262816 3.18432 2.3335C2.46044 2.98363 1.87661 3.77443 1.46843 4.65764C1.06025 5.54085 0.836282 6.49797 0.810193 7.47059C0.784104 8.44321 0.956438 9.41095 1.31668 10.3148C1.67693 11.2186 2.21753 12.0396 2.90551 12.7276L14.3542 24.1774C14.5609 24.3839 14.8411 24.5 15.1333 24.5C15.4255 24.5 15.7058 24.3839 15.9124 24.1774V24.1762Z"   stroke-linecap="round" stroke-linejoin="round"/>
	</symbol>

	<symbol id="icon-theme-compared" viewBox="0 0 20 18">
		<rect x="1.125" y="0.5" width="14" height="14" rx="1.5" />
		<rect x="4.875" y="3.5" width="14" height="14" rx="1.5" />
	</symbol>
	<symbol id="icon-theme-mail" viewBox="0 0 30 30">
		<path fill-rule="evenodd" clip-rule="evenodd" d="M5 6.25C4.31536 6.25 3.75 6.81536 3.75 7.5V22.5C3.75 23.1846 4.31536 23.75 5 23.75H25C25.6846 23.75 26.25 23.1846 26.25 22.5V7.5C26.25 6.81536 25.6846 6.25 25 6.25H5ZM1.25 7.5C1.25 5.43464 2.93464 3.75 5 3.75H25C27.0654 3.75 28.75 5.43464 28.75 7.5V22.5C28.75 24.5654 27.0654 26.25 25 26.25H5C2.93464 26.25 1.25 24.5654 1.25 22.5V7.5Z" />
		<path fill-rule="evenodd" clip-rule="evenodd" d="M1.47607 6.78316C1.87196 6.2176 2.65137 6.08005 3.21694 6.47595L15.0001 14.7242L26.7833 6.47595C27.3488 6.08005 28.1283 6.2176 28.5241 6.78316C28.92 7.34872 28.7825 8.12813 28.2169 8.52403L15.7169 17.274C15.2865 17.5753 14.7137 17.5753 14.2833 17.274L1.78328 8.52403C1.21772 8.12813 1.08017 7.34872 1.47607 6.78316Z" />
	</symbol>
	<symbol id="icon-theme-comma" viewBox="0 0 39 29">
		<path xmlns="http://www.w3.org/2000/svg" d="M35.5732 24.7268C39.1846 21.0575 38.8209 16.3454 38.8094 16.2917V1.95832C38.8094 1.48314 38.6078 1.02743 38.2489 0.691424C37.89 0.355421 37.4032 0.166656 36.8956 0.166656H25.4127C23.3017 0.166656 21.585 1.77378 21.585 3.74999V16.2917C21.585 16.7668 21.7866 17.2226 22.1456 17.5586C22.5045 17.8946 22.9913 18.0833 23.4988 18.0833H29.3896C29.3492 18.9691 29.0665 19.8303 28.5686 20.5845C27.5963 22.0196 25.7648 22.9997 23.1218 23.4942L21.585 23.7808V28.8333H23.4988C28.825 28.8333 32.8881 27.4519 35.5732 24.7268ZM14.5077 24.7268C18.121 21.0575 17.7554 16.3454 17.744 16.2917V1.95832C17.744 1.48314 17.5423 1.02743 17.1834 0.691424C16.8245 0.355421 16.3377 0.166656 15.8301 0.166656H4.34718C2.23623 0.166656 0.519531 1.77378 0.519531 3.74999V16.2917C0.519531 16.7668 0.721166 17.2226 1.08008 17.5586C1.43899 17.8946 1.92578 18.0833 2.43336 18.0833H8.32411C8.28368 18.9691 8.00098 19.8303 7.50308 20.5845C6.53086 22.0196 4.69933 22.9997 2.05633 23.4942L0.519531 23.7808V28.8333H2.43336C7.75953 28.8333 11.8226 27.4519 14.5077 24.7268Z" fill="#662D91"/>
	</symbol>

	<symbol id="icon-google-translate" viewBox="0 0 998.1 998.3">
		<path fill="#DBDBDB" d="M931.7 998.3c36.5 0 66.4-29.4 66.4-65.4V265.8c0-36-29.9-65.4-66.4-65.4H283.6l260.1 797.9h388z"/>
		<path fill="#DCDCDC" d="M931.7 230.4c9.7 0 18.9 3.8 25.8 10.6 6.8 6.7 10.6 15.5 10.6 24.8v667.1c0 9.3-3.7 18.1-10.6 24.8-6.9 6.8-16.1 10.6-25.8 10.6H565.5L324.9 230.4h606.8m0-30H283.6l260.1 797.9h388c36.5 0 66.4-29.4 66.4-65.4V265.8c0-36-29.9-65.4-66.4-65.4z"/>
		<polygon fill="#4352B8" points="482.3,809.8 543.7,998.3 714.4,809.8"/>
		<path fill="#607988" d="M936.1 476.1V437H747.6v-63.2h-61.2V437H566.1v39.1h239.4c-12.8 45.1-41.1 87.7-68.7 120.8-48.9-57.9-49.1-76.7-49.1-76.7h-50.8s2.1 28.2 70.7 108.6c-22.3 22.8-39.2 36.3-39.2 36.3l15.6 48.8s23.6-20.3 53.1-51.6c29.6 32.1 67.8 70.7 117.2 116.7l32.1-32.1c-52.9-48-91.7-86.1-120.2-116.7 38.2-45.2 77-102.1 85.2-154.2H936v.1z"/>
		<path fill="#4285F4" d="M66.4 0C29.9 0 0 29.9 0 66.5v677c0 36.5 29.9 66.4 66.4 66.4h648.1L454.4 0h-388z"/>
		<linearGradient id="a" gradientUnits="userSpaceOnUse" x1="534.3" y1="433.2" x2="998.1" y2="433.2">
			<stop offset="0" stop-color="#fff" stop-opacity=".2"/>
			<stop offset="1" stop-color="#fff" stop-opacity=".02"/>
		</linearGradient>
		<path fill="url(#a)" d="M534.3 200.4h397.4c36.5 0 66.4 29.4 66.4 65.4V666L534.3 200.4z"/>
		<path fill="#EEEEEE" d="M371.4 430.6c-2.5 30.3-28.4 75.2-91.1 75.2-54.3 0-98.3-44.9-98.3-100.2s44-100.2 98.3-100.2c30.9 0 51.5 13.4 63.3 24.3l41.2-39.6c-27.1-25-62.4-40.6-104.5-40.6-86.1 0-156 69.9-156 156s69.9 156 156 156c90.2 0 149.8-63.3 149.8-152.6 0-12.8-1.6-22.2-3.7-31.8h-146v53.4l91 .1z"/>
		<radialGradient id="b" cx="65.208" cy="19.366" r="1398.271" gradientUnits="userSpaceOnUse">
			<stop offset="0" stop-color="#fff" stop-opacity=".1"/>
			<stop offset="1" stop-color="#fff" stop-opacity="0"/>
		</radialGradient>
		<path fill="url(#b)" d="M931.7 200.4H518.8L454.4 0h-388C29.9 0 0 29.9 0 66.5v677c0 36.5 29.9 66.4 66.4 66.4h415.9l61.4 188.4h388c36.5 0 66.4-29.4 66.4-65.4V265.8c0-36-29.9-65.4-66.4-65.4z"/>
	</symbol>

	<symbol id="icon-theme-facebook" viewBox="0 0 1024 1024">
		<path fill="#fff" d="M1024,512C1024,229.23016,794.76978,0,512,0S0,229.23016,0,512c0,255.554,187.231,467.37012,432,505.77777V660H302V512H432V399.2C432,270.87982,508.43854,200,625.38922,200,681.40765,200,740,210,740,210V336H675.43713C611.83508,336,592,375.46667,592,415.95728V512H734L711.3,660H592v357.77777C836.769,979.37012,1024,767.554,1024,512Z"/><path fill="#1877f2" d="M711.3,660,734,512H592V415.95728C592,375.46667,611.83508,336,675.43713,336H740V210s-58.59235-10-114.61078-10C508.43854,200,432,270.87982,432,399.2V512H302V660H432v357.77777a517.39619,517.39619,0,0,0,160,0V660Z"/>
	</symbol>

	<view id="icon-header-location-view" viewBox="0 0 30 30" />
	<view id="icon-header-phone-view" viewBox="30 0 30 30" />
	<view id="icon-header-search-view" viewBox="60 0 30 30" />
	<view id="icon-header-account-view" viewBox="90 0 30 30" />
	<view id="icon-header-wishlist-view" viewBox="120 0 30 30" />
	<view id="icon-header-cart-view" viewBox="150 0 30 30" />
	<view id="icon-theme-arr-right-view" viewBox="180 0 30 30" />
	<view id="icon-theme-arr-left-view" viewBox="210 0 30 30" />
	<view id="icon-theme-arr-up-view" viewBox="240 0 30 30" />
	<view id="icon-theme-arr-down-view" viewBox="270 0 30 30" />
	<view id="icon-sticky-phone-view" viewBox="300 0 30 30" />
	<view id="icon-sticky-mess-view" viewBox="330 0 30 30" />

	<view id="icon-sticky-up-view" viewBox="0 30 30 30" />
	<view id="icon-theme-filter-view" viewBox="30 30 30 30" />
	<view id="icon-theme-sort-view" viewBox="60 30 30 30" />
	<view id="icon-theme-camera-view" viewBox="90 30 30 30" />
	<view id="icon-theme-360-view" viewBox="120 30 30 30" />
	<view id="icon-theme-video-view" viewBox="150 30 30 30" />
	<view id="icon-theme-eye-view" viewBox="180 30 30 30" />
	<view id="icon-check-white-view" viewBox="210 30 30 30" />
	<view id="icon-check-circle-view" viewBox="240 30 30 30" />
	<view id="icon-theme-calendar-view" viewBox="270 30 30 30" />
	<view id="icon-checkout-calendar-view" viewBox="300 30 30 30" />
	<view id="icon-theme-gift-view" viewBox="330 30 30 30" />

	<view id="icon-theme-like-view" viewBox="0 60 30 30" />
	<view id="icon-theme-liked-view" viewBox="30 60 30 30" />
	<view id="icon-theme-reply-view" viewBox="60 60 30 30" />
	<view id="icon-theme-comment-view" viewBox="90 60 30 30" />
	<view id="icon-checkout-location-view" viewBox="120 60 30 30" />
	<view id="icon-checkout-shipping-view" viewBox="150 60 30 30" />
	<view id="icon-checkout-wallet-view" viewBox="180 60 30 30" />
	<view id="icon-checkout-coupon-view" viewBox="210 60 30 30" />
	<view id="icon-theme-compare-view" viewBox="240 60 30 30" />
	<view id="icon-sticky-home-view" viewBox="270 60 30 30" />
	<view id="icon-menu-view" viewBox="300 60 30 30" />
	<view id="icon-close-view" viewBox="330 60 30 30" />

	<view id="icon-phone-voice-view" viewBox="0 90 30 30" />
	<view id="icon-checkout-circle-view" viewBox="30 90 30 30"/>
	<view id="icon-header-wishlisted-view" viewBox="60 90 30 30"/>
	<view id="icon-theme-compared-view" viewBox="90 90 30 30"/>
	<view id="icon-theme-mail-view" viewBox="120 90 30 30"/>
	<view id="icon-theme-comma-view" viewBox="150 90 30 30"/>
	<view id="icon-google-translate-view" viewBox="180 90 30 30"/>
	<view id="icon-theme-facebook-view" viewBox="210 90 30 30" />



	<use xlink:href="#icon-header-location" width="30" height="30" x="0" y="0"></use>
	<use xlink:href="#icon-header-phone" width="30" height="30" x="30" y="0"></use>
	<use xlink:href="#icon-header-search" width="30" height="30" x="60" y="0"></use>
	<use xlink:href="#icon-header-account" width="30" height="30" x="90" y="0"></use>
	<use xlink:href="#icon-header-wishlist" width="30" height="30" x="120" y="0"></use>
	<use xlink:href="#icon-header-cart" width="30" height="30" x="150" y="0"></use>
	<use xlink:href="#icon-theme-arr-right" width="30" height="30" x="180" y="0"></use>
	<use xlink:href="#icon-theme-arr-left" width="30" height="30" x="210" y="0"></use>
	<use xlink:href="#icon-theme-arr-up" width="30" height="30" x="240" y="0"></use>
	<use xlink:href="#icon-theme-arr-down" width="30" height="30" x="270" y="0"></use>
	<use xlink:href="#icon-sticky-phone" width="30" height="30" x="300" y="0"></use>
	<use xlink:href="#icon-sticky-mess" width="30" height="30" x="330" y="0"></use>

	<use xlink:href="#icon-sticky-up" width="30" height="30" x="0" y="30"></use>
	<use xlink:href="#icon-theme-filter" width="30" height="30" x="30" y="30"></use>
	<use xlink:href="#icon-theme-sort" width="30" height="30" x="60" y="30"></use>
	<use xlink:href="#icon-theme-camera" width="30" height="30" x="90" y="30"></use>
	<use xlink:href="#icon-theme-360" width="30" height="30" x="120" y="30"></use>
	<use xlink:href="#icon-theme-video" width="30" height="30" x="150" y="30"></use>
	<use xlink:href="#icon-theme-eye" width="30" height="30" x="180" y="30"></use>
	<use xlink:href="#icon-check-white" width="30" height="30" x="210" y="30"></use>
	<use xlink:href="#icon-check-circle" width="30" height="30" x="240" y="30"></use>
	<use xlink:href="#icon-theme-calendar" width="30" height="30" x="270" y="30"></use>
	<use xlink:href="#icon-checkout-calendar" width="30" height="30" x="300" y="30"></use>
	<use xlink:href="#icon-theme-gift" width="30" height="30" x="330" y="30"></use>

	<use xlink:href="#icon-theme-like" width="30" height="30" x="0" y="60"></use>
	<use xlink:href="#icon-theme-liked" width="30" height="30" x="30" y="60"></use>
	<use xlink:href="#icon-theme-reply" width="30" height="30" x="60" y="60"></use>
	<use xlink:href="#icon-theme-comment" width="30" height="30" x="90" y="60"></use>
	<use xlink:href="#icon-checkout-location" width="30" height="30" x="120" y="60"></use>
	<use xlink:href="#icon-checkout-shipping" width="30" height="30" x="150" y="60"></use>
	<use xlink:href="#icon-checkout-wallet" width="30" height="30" x="180" y="60"></use>
	<use xlink:href="#icon-checkout-coupon" width="30" height="30" x="210" y="60"></use>
	<use xlink:href="#icon-theme-compare" width="30" height="30" x="240" y="60"></use>
	<use xlink:href="#icon-sticky-home" width="30" height="30" x="270" y="60"></use>
	<use xlink:href="#icon-menu" width="30" height="30" x="300" y="60"></use>
	<use xlink:href="#icon-close" width="30" height="30" x="330" y="60"></use>

	<use xlink:href="#icon-phone-voice" width="30" height="30" x="0" y="90"></use>
	<use xlink:href="#icon-checkout-circle" width="30" height="30" x="30" y="90"></use>
	<use xlink:href="#icon-header-wishlisted" width="30" height="30" x="60" y="90"></use>
	<use xlink:href="#icon-theme-compared" width="30" height="30" x="90" y="90"></use>
	<use xlink:href="#icon-theme-mail" width="30" height="30" x="120" y="90"></use>
	<use xlink:href="#icon-theme-comma" width="30" height="30" x="150" y="90"></use>
	<use xlink:href="#icon-google-translate" width="30" height="30" x="180" y="90"></use>
	<use xlink:href="#icon-theme-facebook" width="30" height="30" x="210" y="90"></use>


</svg>
