<svg width="7" height="4" viewBox="0 0 7 4" fill="none" xmlns="http://www.w3.org/2000/svg">
<path d="M5.2175 0.136662C5.30332 0.0500396 5.41994 0.000911061 5.54188 1.29308e-05C5.66381 -0.0008852 5.78114 0.0465201 5.86823 0.131869C5.95531 0.217217 6.00507 0.333569 6.00664 0.455495C6.0082 0.577422 5.96143 0.695008 5.87655 0.782558L3.42077 3.8526C3.37858 3.89802 3.32767 3.93448 3.27108 3.95979C3.21449 3.9851 3.15338 3.99875 3.0914 3.99992C3.02942 4.00109 2.96783 3.98975 2.91033 3.9666C2.85282 3.94344 2.80058 3.90893 2.7567 3.86513L1.12849 2.23755C1.04197 2.15098 0.993379 2.03359 0.993408 1.9112C0.993437 1.78881 1.04209 1.67144 1.12865 1.58492C1.21522 1.49839 1.33261 1.4498 1.455 1.44983C1.57739 1.44986 1.69476 1.49851 1.78128 1.58507L3.069 2.87311L5.20529 0.151071C5.20917 0.146118 5.21335 0.14141 5.21781 0.136975L5.2175 0.136662Z" fill="white"/>
</svg>
