<svg width="71" height="51" viewBox="0 0 71 51" fill="none" xmlns="http://www.w3.org/2000/svg">
<path opacity="0.08" d="M12.6162 33.1644C11.0134 33.1644 9.50581 33.1644 8.01408 33.1644C3.25324 33.1644 0 29.891 0 25.1327C0 19.4164 0 13.716 0 7.99969C0 3.30526 3.25324 0.0319349 7.903 0.0159674C13.5525 0 19.2021 0.0159674 24.8516 0C26.0577 0 26.8988 0.463056 27.5494 1.469C29.4696 4.50282 31.2946 7.56857 32.1515 11.0974C33.437 16.3028 33.1672 21.4922 31.8342 26.6177C30.3424 32.4139 27.7874 37.7151 23.947 42.3297C20.0431 47.0241 14.9649 49.6268 9.01386 50.505C7.03017 50.7924 5.03062 50.8882 3.03107 50.984C1.38064 51.0639 0.380867 50.3134 0.0793473 48.9242C-0.190434 47.6468 0.460215 46.577 1.96781 45.9224C4.44345 44.8525 6.72865 43.5113 8.49017 41.4195C10.5215 39.0404 11.5688 36.1503 12.6162 33.1644ZM12.9495 44.118C15.5203 43.1919 17.6945 41.675 19.5194 39.6791C22.8679 36.0066 25.042 31.6475 26.4703 26.953C28.7237 19.5601 28.6603 12.3588 24.1692 5.66844C23.8994 5.26925 23.6455 5.10958 23.1694 5.10958C18.0753 5.10958 12.9812 5.10958 7.903 5.10958C6.07801 5.10958 5.07823 6.14746 5.07823 7.98372C5.07823 13.716 5.07823 19.4483 5.07823 25.1807C5.07823 27.0169 6.09388 28.0548 7.91887 28.0548C10.6325 28.0548 13.3462 28.0388 16.0758 28.0548C17.9325 28.0708 19.1227 29.6356 18.5514 31.4239C17.1073 35.8469 15.7266 40.2858 12.9495 44.118Z" fill="#662D91"/>
<path opacity="0.08" d="M50.6396 33.1644C48.9892 33.1644 47.4498 33.1644 45.9264 33.1644C41.2766 33.1484 38.0234 29.8751 38.0075 25.1807C37.9916 19.4483 37.9916 13.716 38.0075 7.96775C38.0075 3.3372 41.2925 0.0159674 45.8629 0.0159674C51.5442 0 57.2254 0.0159674 62.8908 0C64.0652 0 64.9062 0.447088 65.5252 1.43707C67.4295 4.47088 69.2862 7.53663 70.159 11.0654C71.3969 16.0632 71.1906 21.077 70.0003 26.0429C68.588 31.9189 66.0488 37.284 62.256 41.9944C58.3204 46.8964 53.1311 49.6108 46.9896 50.505C44.9901 50.7924 42.9429 50.8882 40.9275 50.984C39.3723 51.0639 38.3725 50.2655 38.0869 48.9083C37.8329 47.6947 38.4836 46.593 39.8801 45.9862C42.2605 44.9324 44.514 43.671 46.2755 41.691C48.4337 39.2639 49.5446 36.294 50.6396 33.1644ZM50.8935 44.0861C51.0046 44.1021 51.0681 44.134 51.1157 44.118C51.3061 44.0382 51.5124 43.9743 51.7029 43.8785C53.9563 42.8726 55.9241 41.4674 57.5587 39.6312C61.1611 35.6074 63.478 30.8491 64.8586 25.6756C66.7154 18.6819 66.398 11.9117 62.2084 5.66844C61.9228 5.23732 61.653 5.07765 61.1452 5.07765C56.0828 5.09361 51.0205 5.09361 45.9422 5.09361C44.1173 5.09361 43.0857 6.11553 43.0857 7.93582C43.0857 13.7001 43.0857 19.4643 43.0857 25.2126C43.0857 27.0329 44.1173 28.0388 45.9581 28.0388C48.5131 28.0388 51.0839 28.1346 53.6389 28.0069C55.7178 27.8951 57.2572 29.6036 56.432 31.9189C54.9244 36.1503 53.6231 40.4296 50.8935 44.0861Z" fill="#662D91"/>
</svg>
