<svg width="71" height="51" viewBox="0 0 71 51" fill="none" xmlns="http://www.w3.org/2000/svg">
<path opacity="0.08" d="M58.3838 33.1644C59.9866 33.1644 61.4942 33.1644 62.9859 33.1644C67.7468 33.1644 71 29.891 71 25.1327C71 19.4164 71 13.716 71 7.99969C71 3.30526 67.7468 0.0319349 63.097 0.0159674C57.4475 0 51.7979 0.0159674 46.1484 0C44.9423 0 44.1012 0.463056 43.4506 1.469C41.5304 4.50282 39.7054 7.56857 38.8485 11.0974C37.563 16.3028 37.8328 21.4922 39.1658 26.6177C40.6576 32.4139 43.2126 37.7151 47.053 42.3297C50.9569 47.0241 56.0351 49.6268 61.9861 50.505C63.9698 50.7924 65.9694 50.8882 67.9689 50.984C69.6194 51.0639 70.6191 50.3134 70.9207 48.9242C71.1904 47.6468 70.5398 46.577 69.0322 45.9224C66.5565 44.8525 64.2713 43.5113 62.5098 41.4195C60.4785 39.0404 59.4312 36.1503 58.3838 33.1644ZM58.0505 44.118C55.4797 43.1919 53.3055 41.675 51.4806 39.6791C48.1321 36.0066 45.958 31.6475 44.5297 26.953C42.2763 19.5601 42.3397 12.3588 46.8308 5.66844C47.1006 5.26925 47.3545 5.10958 47.8306 5.10958C52.9247 5.10958 58.0188 5.10958 63.097 5.10958C64.922 5.10958 65.9218 6.14746 65.9218 7.98372C65.9218 13.716 65.9218 19.4483 65.9218 25.1807C65.9218 27.0169 64.9061 28.0548 63.0811 28.0548C60.3675 28.0548 57.6538 28.0388 54.9242 28.0548C53.0675 28.0708 51.8773 29.6356 52.4486 31.4239C53.8927 35.8469 55.2734 40.2858 58.0505 44.118Z" fill="#662D91"/>
<path opacity="0.08" d="M20.3605 33.1644C22.0109 33.1644 23.5503 33.1644 25.0738 33.1644C29.7235 33.1484 32.9767 29.8751 32.9926 25.1807C33.0085 19.4483 33.0085 13.716 32.9926 7.96775C32.9926 3.3372 29.7076 0.0159674 25.1372 0.0159674C19.456 0 13.7747 0.0159674 8.1093 0C6.93496 0 6.09388 0.447088 5.47497 1.43707C3.57063 4.47088 1.7139 7.53663 0.841084 11.0654C-0.396736 16.0632 -0.190434 21.077 0.999779 26.0429C2.41216 31.9189 4.95128 37.284 8.74408 41.9944C12.6797 46.8964 17.869 49.6108 24.0105 50.505C26.01 50.7924 28.0572 50.8882 30.0726 50.984C31.6278 51.0639 32.6276 50.2655 32.9133 48.9083C33.1672 47.6947 32.5165 46.593 31.12 45.9862C28.7396 44.9324 26.4861 43.671 24.7246 41.691C22.5664 39.2639 21.4555 36.294 20.3605 33.1644ZM20.1066 44.0861C19.9955 44.1021 19.932 44.134 19.8844 44.118C19.694 44.0382 19.4877 43.9743 19.2973 43.8785C17.0438 42.8726 15.076 41.4674 13.4414 39.6312C9.83907 35.6074 7.52213 30.8491 6.14148 25.6756C4.28476 18.6819 4.60215 11.9117 8.79169 5.66844C9.07734 5.23732 9.34712 5.07765 9.85494 5.07765C14.9173 5.09361 19.9797 5.09361 25.0579 5.09361C26.8829 5.09361 27.9144 6.11553 27.9144 7.93582C27.9144 13.7001 27.9144 19.4643 27.9144 25.2126C27.9144 27.0329 26.8829 28.0388 25.042 28.0388C22.487 28.0388 19.9162 28.1346 17.3612 28.0069C15.2823 27.8951 13.743 29.6036 14.5682 31.9189C16.0758 36.1503 17.3771 40.4296 20.1066 44.0861Z" fill="#662D91"/>
</svg>
