<svg width="16" height="15" viewBox="0 0 16 15" fill="none" xmlns="http://www.w3.org/2000/svg">
<g clip-path="url(#clip0_6556_7073)">
<path d="M0 9.84482C0.0880385 9.41225 0.370642 9.10969 0.673201 8.81212C1.47024 8.02828 2.25789 7.23505 3.04555 6.44124C3.15794 6.32826 3.27709 6.27573 3.43497 6.28218C3.63335 6.28981 3.83261 6.28394 4.04801 6.28394C4.04801 6.05915 4.05183 5.8505 4.04654 5.64214C4.04365 5.57891 4.05457 5.5158 4.07855 5.45722C4.10252 5.39863 4.13896 5.34597 4.18535 5.3029C5.80917 3.6822 7.43231 2.06043 9.05476 0.437585C9.64315 -0.14934 10.4575 -0.144351 11.0488 0.442574C11.3435 0.734862 11.6369 1.02832 11.9292 1.32296C12.1053 1.49904 12.1091 1.62787 11.9486 1.81833C11.6314 2.19484 11.6469 2.70517 11.9859 3.0359C12.3195 3.36164 12.8269 3.36957 13.1932 3.05498C13.3707 2.90267 13.511 2.9059 13.6785 3.07229C13.9802 3.37133 14.2822 3.66978 14.5795 3.97351C15.137 4.54195 15.1467 5.34193 14.5956 5.91447C14.176 6.35056 13.7422 6.77314 13.3126 7.19984C13.1659 7.3451 12.9971 7.35361 12.8724 7.22919C12.7477 7.10476 12.755 6.93103 12.9064 6.77784C13.3173 6.36699 13.7281 5.95615 14.139 5.5453C14.5102 5.17319 14.5108 4.73358 14.141 4.36088C13.9007 4.11848 13.6598 3.87667 13.4144 3.63016C13.0652 3.84351 12.6972 3.92098 12.3016 3.83911C12.0071 3.77941 11.7384 3.62945 11.533 3.41007C11.1827 3.045 10.9288 2.35888 11.3414 1.64753C11.048 1.33323 10.7824 1.00543 10.4719 0.727819C10.2175 0.500973 9.81512 0.547634 9.55364 0.771545C9.51667 0.803239 9.48233 0.838161 9.4477 0.87279C7.88042 2.43968 6.31256 4.00628 4.7441 5.57259C4.66633 5.65036 4.62672 5.72666 4.63053 5.83964C4.63934 6.06884 4.63464 6.29862 4.63259 6.5281C4.63083 6.76287 4.52958 6.86529 4.29217 6.86881C4.05476 6.87233 3.81353 6.86382 3.57466 6.87351C3.4998 6.87638 3.42811 6.90452 3.37129 6.95333C2.52201 7.79576 1.67567 8.64084 0.832257 9.48855C0.499765 9.82222 0.500939 10.2739 0.83079 10.6096C1.06996 10.8534 1.31353 11.0929 1.55535 11.3347C1.56562 11.3447 1.57794 11.3532 1.59232 11.3641C2.29428 10.9952 2.94606 11.0445 3.50423 11.6376C3.94236 12.1033 3.97817 12.7193 3.64333 13.3984C3.92153 13.6824 4.18564 13.9776 4.47764 14.2426C4.76963 14.5076 5.20572 14.4689 5.49918 14.1822C5.81318 13.8749 6.12132 13.5618 6.43209 13.251C6.96737 12.7161 7.5044 12.1828 8.03469 11.6432C8.09074 11.5801 8.12393 11.5 8.12889 11.4157C8.14121 11.1771 8.13094 10.9374 8.13446 10.6982C8.13769 10.4705 8.2407 10.3695 8.46872 10.3669C8.65917 10.3642 8.85022 10.3519 9.0395 10.3701C9.24492 10.3895 9.38197 10.3114 9.52107 10.1682C9.9821 9.69075 10.4569 9.2262 10.9268 8.75724C10.9666 8.7144 11.0106 8.67566 11.0582 8.64162C11.1114 8.6055 11.1754 8.58871 11.2395 8.59405C11.3036 8.59939 11.3639 8.62654 11.4104 8.67097C11.4595 8.71566 11.4916 8.77607 11.5011 8.84182C11.5105 8.90758 11.4968 8.97458 11.4623 9.03134C11.4323 9.07697 11.3969 9.11884 11.357 9.15606C10.8085 9.70542 10.2577 10.2524 9.71153 10.8041C9.66592 10.8547 9.60963 10.8945 9.54675 10.9207C9.48386 10.9468 9.41595 10.9586 9.34793 10.9553C9.14427 10.9482 8.94031 10.9535 8.71787 10.9535C8.71787 11.1713 8.71258 11.3746 8.71933 11.5777C8.72462 11.7306 8.67062 11.8462 8.56233 11.9539C7.75179 12.7589 6.94007 13.563 6.1398 14.3779C5.84986 14.6714 5.54643 14.9276 5.1256 15.001H4.77345C4.475 14.9317 4.2012 14.8164 3.9811 14.593C3.67619 14.2843 3.36659 13.98 3.0611 13.6716C2.90322 13.5122 2.90146 13.3702 3.04907 13.1973C3.36777 12.8238 3.35838 12.314 3.02618 11.9806C2.69398 11.6473 2.18746 11.6352 1.80948 11.9548C1.62724 12.1089 1.49636 12.1054 1.32527 11.9363C1.10664 11.7206 0.895938 11.4961 0.671734 11.2866C0.363599 10.9961 0.0895058 10.6868 0 10.2548V9.84482Z" fill="#662D91"/>
<path d="M0 10.2548C0.0895058 10.6867 0.363599 10.996 0.673201 11.2857C0.897406 11.4955 1.10811 11.7197 1.32674 11.9354C1.49783 12.1044 1.62871 12.108 1.81095 11.9539C2.18893 11.6343 2.69368 11.6449 3.02764 11.9797C3.3616 12.3146 3.36923 12.8228 3.05053 13.1964C2.9038 13.3693 2.9038 13.5113 3.06257 13.6707C3.36806 13.9791 3.67884 14.2834 3.98257 14.5921C4.20296 14.8154 4.47676 14.9308 4.77491 15H0V10.2548Z" fill="white"/>
<path d="M8.88874 3.84432C9.03195 3.84109 9.14229 3.93617 9.19188 4.11196C9.33001 4.60439 9.46696 5.09721 9.60273 5.59042C9.76746 6.18185 9.9319 6.77337 10.096 7.36499C10.1051 7.39786 10.1148 7.43043 10.1225 7.46389C10.1627 7.63732 10.0817 7.78376 9.92026 7.8313C9.76384 7.87738 9.60948 7.79286 9.55842 7.62001C9.46774 7.31129 9.38498 7.00051 9.2987 6.69061C9.07411 5.8832 8.84912 5.07579 8.62374 4.26837C8.56211 4.03595 8.68038 3.84931 8.88874 3.84432Z" fill="#662D91"/>
<path d="M11.9548 5.57398C11.9536 5.74738 11.9012 5.91656 11.804 6.06018C11.7068 6.2038 11.5693 6.31543 11.4087 6.38098C11.2482 6.44654 11.0718 6.46309 10.9019 6.42855C10.7319 6.39402 10.576 6.30993 10.4538 6.1869C10.3316 6.06388 10.2486 5.90742 10.2152 5.73726C10.1818 5.5671 10.1995 5.39086 10.2661 5.23076C10.3328 5.07066 10.4453 4.93387 10.5896 4.83765C10.7338 4.74142 10.9033 4.69007 11.0768 4.69007C11.1927 4.68964 11.3075 4.71225 11.4146 4.75659C11.5217 4.80093 11.619 4.86611 11.7007 4.94835C11.7824 5.0306 11.8469 5.12826 11.8905 5.23566C11.9342 5.34306 11.956 5.45806 11.9548 5.57398V5.57398ZM11.3679 5.56253C11.3667 5.48655 11.3358 5.41404 11.2819 5.36055C11.2279 5.30707 11.1551 5.27686 11.0791 5.27641C11.0383 5.27215 10.9971 5.27649 10.9581 5.28914C10.9191 5.3018 10.8832 5.32249 10.8526 5.34988C10.8221 5.37727 10.7977 5.41075 10.7809 5.44816C10.7641 5.48558 10.7553 5.5261 10.7552 5.5671C10.755 5.60811 10.7634 5.6487 10.7799 5.68625C10.7964 5.7238 10.8206 5.75747 10.8509 5.78511C10.8812 5.81274 10.9169 5.83372 10.9558 5.84669C10.9947 5.85966 11.0359 5.86433 11.0768 5.8604C11.1157 5.86069 11.1542 5.85314 11.1902 5.83819C11.2261 5.82325 11.2586 5.80122 11.2859 5.77342C11.3131 5.74562 11.3344 5.71261 11.3486 5.67638C11.3628 5.64015 11.3696 5.60143 11.3685 5.56253H11.3679Z" fill="#662D91"/>
<path d="M8.55949 5.67062C8.56054 5.78571 8.5388 5.89987 8.49554 6.00653C8.45227 6.11318 8.38833 6.21022 8.30739 6.29205C8.22646 6.37388 8.13014 6.4389 8.02397 6.48334C7.9178 6.52778 7.80389 6.55078 7.68879 6.55101C7.57223 6.55326 7.4564 6.53225 7.34805 6.48923C7.2397 6.4462 7.14102 6.38202 7.05775 6.30043C6.97449 6.21884 6.90832 6.12147 6.86311 6.01401C6.8179 5.90656 6.79455 5.79118 6.79443 5.6746C6.79432 5.55802 6.81743 5.44259 6.86243 5.33505C6.90742 5.2275 6.9734 5.13 7.0565 5.04824C7.1396 4.96648 7.23816 4.9021 7.34642 4.85886C7.45468 4.81562 7.57047 4.79438 7.68703 4.7964C7.80184 4.79608 7.91557 4.8185 8.02168 4.86234C8.12779 4.90619 8.22417 4.9706 8.30527 5.05186C8.38637 5.13313 8.45059 5.22964 8.49422 5.33584C8.53785 5.44203 8.56004 5.55581 8.55949 5.67062V5.67062ZM7.97257 5.67062C7.973 5.63272 7.96585 5.59512 7.95153 5.56003C7.93721 5.52494 7.91601 5.49307 7.88918 5.46629C7.86235 5.43952 7.83044 5.41839 7.79532 5.40414C7.7602 5.38989 7.72258 5.38281 7.68468 5.38332C7.64661 5.38359 7.60896 5.39136 7.57388 5.40618C7.53881 5.421 7.507 5.44258 7.48026 5.4697C7.45353 5.49681 7.4324 5.52892 7.41808 5.5642C7.40376 5.59949 7.39652 5.63724 7.39679 5.67532C7.39706 5.71339 7.40483 5.75104 7.41965 5.78612C7.43447 5.82119 7.45605 5.853 7.48317 5.87973C7.51028 5.90647 7.5424 5.9276 7.57768 5.94192C7.61296 5.95624 7.65071 5.96347 7.68879 5.9632C7.7268 5.96282 7.76435 5.95491 7.79927 5.93991C7.8342 5.92492 7.8658 5.90314 7.89225 5.87585C7.9187 5.84855 7.93947 5.81628 7.95335 5.7809C7.96724 5.74552 7.97397 5.70774 7.97316 5.66974L7.97257 5.67062Z" fill="#662D91"/>
<path d="M5.63444 9.68099C5.57574 9.7834 5.5464 9.86469 5.4927 9.92045C5.17673 10.2446 4.85686 10.5653 4.53308 10.8824C4.39515 11.0183 4.22523 11.0203 4.10403 10.9006C3.98284 10.7809 3.98254 10.6092 4.11753 10.4719C4.43858 10.1455 4.76315 9.82302 5.0886 9.5011C5.18339 9.40748 5.30576 9.36376 5.4205 9.43947C5.50326 9.49523 5.55902 9.59412 5.63444 9.68099Z" fill="#662D91"/>
<path d="M4.71984 8.76426C4.66497 8.8655 4.64149 8.94444 4.59043 8.99668C4.26742 9.3277 3.94051 9.65472 3.60968 9.97772C3.47733 10.1077 3.31269 10.1063 3.19208 9.98917C3.07147 9.87208 3.0703 9.69571 3.20323 9.56071C3.52428 9.23458 3.84787 8.91089 4.174 8.58965C4.26879 8.49574 4.39058 8.45289 4.50532 8.52714C4.59072 8.5829 4.64736 8.6815 4.71984 8.76426Z" fill="#662D91"/>
<path d="M5.24744 11.8996C5.08897 11.8887 5.00035 11.8301 4.95075 11.7171C4.89734 11.5953 4.92757 11.4864 5.01707 11.3957C5.25184 11.1563 5.49101 10.9195 5.72871 10.682C5.82174 10.589 5.91183 10.4931 6.00926 10.405C6.13985 10.2876 6.29979 10.2894 6.416 10.403C6.44417 10.4286 6.46682 10.4597 6.48256 10.4944C6.4983 10.529 6.5068 10.5666 6.50754 10.6046C6.50828 10.6427 6.50125 10.6805 6.48687 10.7158C6.47249 10.751 6.45107 10.783 6.42392 10.8097C6.09133 11.1515 5.75366 11.4886 5.4109 11.821C5.36306 11.8676 5.28412 11.8826 5.24744 11.8996Z" fill="#662D91"/>
<path d="M7.87932 9.87273C7.84645 9.91529 7.79979 10.0289 7.7185 10.0655C7.6708 10.0831 7.62002 10.0908 7.56926 10.088C7.51849 10.0853 7.46882 10.0723 7.42328 10.0497C7.31734 9.991 7.23341 9.88506 7.15417 9.78763C7.0811 9.69783 7.06613 9.57546 7.14214 9.49035C7.20582 9.41875 7.31 9.3539 7.40273 9.34362C7.57412 9.32426 7.87403 9.63973 7.87932 9.87273Z" fill="#662D91"/>
<path d="M6.76637 8.71024C6.76431 8.92181 6.53159 9.07675 6.35551 8.96495C6.22914 8.88451 6.12235 8.77683 6.04297 8.64979C5.93733 8.47724 6.08817 8.25158 6.29242 8.24307C6.47114 8.23544 6.76783 8.52712 6.76637 8.71024Z" fill="#662D91"/>
<path d="M5.16495 7.16052C5.38974 7.16258 5.66149 7.41642 5.6433 7.5837C5.63332 7.6732 5.57433 7.78912 5.50155 7.83197C5.42877 7.87481 5.29613 7.87657 5.21836 7.83813C5.11468 7.78384 5.02987 7.69944 4.97508 7.59602C4.95576 7.55126 4.9458 7.50303 4.9458 7.45428C4.9458 7.40553 4.95576 7.3573 4.97508 7.31254C5.0144 7.23359 5.12299 7.18987 5.16495 7.16052Z" fill="#662D91"/>
<path d="M12.4327 7.95074C12.4335 8.00809 12.4172 8.06438 12.3859 8.11244C12.3546 8.16051 12.3097 8.19819 12.2569 8.2207C12.2042 8.24322 12.1459 8.24955 12.0896 8.23889C12.0332 8.22823 11.9813 8.20106 11.9404 8.16084C11.8995 8.12061 11.8715 8.06914 11.86 8.01297C11.8484 7.95679 11.8538 7.89844 11.8754 7.84533C11.8971 7.79222 11.934 7.74674 11.9816 7.71466C12.0291 7.68259 12.0851 7.66537 12.1425 7.66519C12.1803 7.66465 12.2179 7.67163 12.2531 7.68573C12.2882 7.69983 12.3202 7.72076 12.3472 7.74733C12.3742 7.77389 12.3957 7.80555 12.4104 7.84047C12.425 7.87538 12.4326 7.91287 12.4327 7.95074V7.95074Z" fill="#662D91"/>
</g>
<defs>
<clipPath id="clip0_6556_7073">
<rect width="15.0029" height="15" fill="white"/>
</clipPath>
</defs>
</svg>
