<svg width="22" height="22" viewBox="0 0 22 22" fill="none" xmlns="http://www.w3.org/2000/svg">
<path d="M19.3459 2.02924V1.5083C19.3448 1.10861 19.1856 0.7256 18.903 0.442979C18.6203 0.160359 18.2373 0.00111685 17.8376 6.10352e-05C17.4378 0.000497002 17.0544 0.15954 16.7716 0.442294C16.4889 0.725049 16.3298 1.10842 16.3294 1.5083V2.00477H14.7859V1.5083C14.7859 1.10869 14.6273 0.725425 14.345 0.442644C14.0626 0.159863 13.6796 0.000684439 13.28 6.10352e-05C12.8801 0.000559143 12.4968 0.159622 12.2141 0.442363C11.9313 0.725104 11.7723 1.10844 11.7718 1.5083V2.00477H10.2282V1.5083C10.2282 1.31039 10.1893 1.11441 10.1135 0.93157C10.0378 0.748725 9.92677 0.582588 9.78683 0.442645C9.64688 0.302702 9.48075 0.191692 9.2979 0.115956C9.11506 0.0402188 8.91909 0.00123731 8.72118 0.00123731C8.52327 0.00123731 8.32729 0.0402188 8.14445 0.115956C7.9616 0.191692 7.79547 0.302702 7.65552 0.442645C7.51558 0.582588 7.40457 0.748725 7.32884 0.93157C7.2531 1.11441 7.21412 1.31039 7.21412 1.5083V2.00477H5.67059V1.5083C5.66953 1.10861 5.51029 0.7256 5.22767 0.442979C4.94505 0.160359 4.56204 0.00111685 4.16235 6.10352e-05C3.7625 0.000559143 3.37916 0.159622 3.09642 0.442363C2.81368 0.725104 2.65462 1.10844 2.65412 1.5083V2.02924C1.92251 2.11945 1.24903 2.47378 0.760284 3.02561C0.271536 3.57745 0.00116907 4.28879 0 5.02594V18.9789C0.000934087 19.7799 0.319535 20.5478 0.885914 21.1141C1.45229 21.6805 2.2202 21.9991 3.02118 22.0001H18.9788C19.7798 21.9991 20.5477 21.6805 21.1141 21.1141C21.6805 20.5478 21.9991 19.7799 22 18.9789V5.02594C21.9988 4.28879 21.7285 3.57745 21.2397 3.02561C20.751 2.47378 20.0775 2.11945 19.3459 2.02924ZM17.1529 1.5083C17.1532 1.32678 17.2254 1.15276 17.3538 1.02441C17.4821 0.896058 17.6561 0.823839 17.8376 0.82359C18.0189 0.824701 18.1924 0.897196 18.3206 1.02536C18.4487 1.15353 18.5212 1.32704 18.5224 1.5083V3.32477C18.5224 3.50636 18.4502 3.68052 18.3218 3.80893C18.1934 3.93733 18.0192 4.00947 17.8376 4.00947C17.6561 4.00947 17.4819 3.93733 17.3535 3.80893C17.2251 3.68052 17.1529 3.50636 17.1529 3.32477V1.5083ZM12.5953 1.5083C12.5955 1.32676 12.6677 1.15271 12.796 1.02434C12.9244 0.895976 13.0985 0.823777 13.28 0.82359C13.4612 0.824151 13.6348 0.896545 13.7627 1.0249C13.8906 1.15325 13.9624 1.32709 13.9624 1.5083V3.32477C13.9624 3.50605 13.8903 3.67991 13.7622 3.8081C13.634 3.93628 13.4601 4.0083 13.2788 4.0083C13.0975 4.0083 12.9237 3.93628 12.7955 3.8081C12.6673 3.67991 12.5953 3.50605 12.5953 3.32477V1.5083ZM8.03765 1.5083C8.03765 1.32701 8.10966 1.15315 8.23785 1.02497C8.36604 0.896781 8.53989 0.824767 8.72118 0.824767C8.90246 0.824767 9.07632 0.896781 9.2045 1.02497C9.33269 1.15315 9.40471 1.32701 9.40471 1.5083V3.32477C9.40471 3.50605 9.33269 3.67991 9.2045 3.8081C9.07632 3.93628 8.90246 4.0083 8.72118 4.0083C8.53989 4.0083 8.36604 3.93628 8.23785 3.8081C8.10966 3.67991 8.03765 3.50605 8.03765 3.32477V1.5083ZM3.47765 1.5083C3.47783 1.32676 3.55003 1.15271 3.6784 1.02434C3.80677 0.895976 3.98081 0.823777 4.16235 0.82359C4.34361 0.824701 4.51712 0.897196 4.64529 1.02536C4.77345 1.15353 4.84595 1.32704 4.84706 1.5083V3.32477C4.84706 3.50636 4.77492 3.68052 4.64651 3.80893C4.51811 3.93733 4.34395 4.00947 4.16235 4.00947C3.98076 4.00947 3.8066 3.93733 3.67819 3.80893C3.54979 3.68052 3.47765 3.50636 3.47765 3.32477V1.5083ZM2.65412 2.86147V3.32477C2.65412 3.72478 2.81302 4.1084 3.09587 4.39125C3.37872 4.6741 3.76234 4.833 4.16235 4.833C4.56236 4.833 4.94599 4.6741 5.22884 4.39125C5.51168 4.1084 5.67059 3.72478 5.67059 3.32477V2.8283H7.21412V3.32477C7.21412 3.72446 7.3729 4.10779 7.65552 4.39042C7.93815 4.67305 8.32148 4.83183 8.72118 4.83183C9.12087 4.83183 9.5042 4.67305 9.78683 4.39042C10.0695 4.10779 10.2282 3.72446 10.2282 3.32477V2.8283H11.7718V3.32477C11.7718 3.72446 11.9305 4.10779 12.2132 4.39042C12.4958 4.67305 12.8791 4.83183 13.2788 4.83183C13.6785 4.83183 14.0618 4.67305 14.3445 4.39042C14.6271 4.10779 14.7859 3.72446 14.7859 3.32477V2.8283H16.3294V3.32477C16.3294 3.72478 16.4883 4.1084 16.7712 4.39125C17.054 4.6741 17.4376 4.833 17.8376 4.833C18.2377 4.833 18.6213 4.6741 18.9041 4.39125C19.187 4.1084 19.3459 3.72478 19.3459 3.32477V2.86147C19.8573 2.94849 20.3215 3.21345 20.6565 3.60956C20.9914 4.00567 21.1756 4.50742 21.1765 5.02618V6.26547H0.823529V5.02594C0.824448 4.50723 1.00866 4.00553 1.34363 3.60947C1.67859 3.21341 2.14275 2.94848 2.65412 2.86147ZM18.9788 21.1765H3.02118C2.43853 21.1758 1.87995 20.9441 1.46796 20.5321C1.05597 20.1201 0.824214 19.5615 0.823529 18.9789V7.08947H21.1765V18.9789C21.1758 19.5615 20.944 20.1201 20.532 20.5321C20.12 20.9441 19.5615 21.1758 18.9788 21.1765Z" fill="white"/>
<path d="M5.74922 9.14948H4.08664C3.7972 9.14985 3.51972 9.26499 3.31506 9.46966C3.11039 9.67433 2.99525 9.95181 2.99487 10.2412V11.9038C2.99525 12.1933 3.11039 12.4708 3.31506 12.6754C3.51972 12.8801 3.7972 12.9952 4.08664 12.9956H5.74922C6.03866 12.9952 6.31614 12.8801 6.52081 12.6754C6.72547 12.4708 6.84062 12.1933 6.84099 11.9038V10.2412C6.84062 9.95181 6.72547 9.67433 6.52081 9.46966C6.31614 9.26499 6.03866 9.14985 5.74922 9.14948ZM6.01746 11.9038C6.0174 11.975 5.98912 12.0432 5.93883 12.0934C5.88854 12.1437 5.82035 12.172 5.74922 12.1721H4.08664C4.01552 12.172 3.94733 12.1437 3.89704 12.0934C3.84674 12.0432 3.81846 11.975 3.8184 11.9038V10.2412C3.81846 10.1701 3.84674 10.1019 3.89704 10.0516C3.94733 10.0014 4.01552 9.97307 4.08664 9.97301H5.74922C5.82035 9.97307 5.88854 10.0014 5.93883 10.0516C5.98912 10.1019 6.0174 10.1701 6.01746 10.2412V11.9038Z" fill="white"/>
<path d="M11.8313 9.14948H10.1687C9.87923 9.14985 9.60175 9.26499 9.39709 9.46966C9.19242 9.67433 9.07728 9.95181 9.0769 10.2412V11.9038C9.07728 12.1933 9.19242 12.4708 9.39709 12.6754C9.60175 12.8801 9.87923 12.9952 10.1687 12.9956H11.8313C12.1207 12.9952 12.3982 12.8801 12.6029 12.6754C12.8075 12.4708 12.9227 12.1933 12.923 11.9038V10.2412C12.9227 9.95181 12.8075 9.67433 12.6029 9.46966C12.3982 9.26499 12.1207 9.14985 11.8313 9.14948ZM12.0995 11.9038C12.0994 11.975 12.0712 12.0432 12.0209 12.0934C11.9706 12.1437 11.9024 12.172 11.8313 12.1721H10.1687C10.0976 12.172 10.0294 12.1437 9.97907 12.0934C9.92878 12.0432 9.9005 11.975 9.90044 11.9038V10.2412C9.9005 10.1701 9.92878 10.1019 9.97907 10.0516C10.0294 10.0014 10.0976 9.97307 10.1687 9.97301H11.8313C11.9024 9.97307 11.9706 10.0014 12.0209 10.0516C12.0712 10.1019 12.0994 10.1701 12.0995 10.2412V11.9038Z" fill="white"/>
<path d="M18.4474 9.71274L16.6003 11.5588L15.7166 10.6751C15.6389 10.6001 15.5349 10.5586 15.4269 10.5596C15.3189 10.5605 15.2157 10.6039 15.1393 10.6802C15.063 10.7566 15.0197 10.8599 15.0188 10.9678C15.0179 11.0758 15.0594 11.1798 15.1344 11.2574L16.3093 12.4322C16.3475 12.4705 16.3929 12.5009 16.4428 12.5216C16.4928 12.5423 16.5464 12.553 16.6004 12.553C16.6545 12.553 16.7081 12.5423 16.7581 12.5216C16.808 12.5009 16.8534 12.4705 16.8916 12.4322L19.0297 10.2941C19.107 10.2169 19.1504 10.1122 19.1504 10.003C19.1504 9.89376 19.107 9.78902 19.0297 9.7118C18.9525 9.63457 18.8478 9.59119 18.7386 9.59119C18.6294 9.59119 18.5246 9.63457 18.4474 9.7118V9.71274Z" fill="white"/>
<path d="M5.74922 14.8214H4.08664C3.7972 14.8218 3.51972 14.9369 3.31506 15.1416C3.11039 15.3463 2.99525 15.6237 2.99487 15.9132V17.5758C2.99525 17.8652 3.11039 18.1427 3.31506 18.3473C3.51972 18.552 3.7972 18.6672 4.08664 18.6675H5.74922C6.03866 18.6672 6.31614 18.552 6.52081 18.3473C6.72547 18.1427 6.84062 17.8652 6.84099 17.5758V15.9132C6.84062 15.6237 6.72547 15.3463 6.52081 15.1416C6.31614 14.9369 6.03866 14.8218 5.74922 14.8214ZM6.01746 17.5758C6.0174 17.6469 5.98912 17.7151 5.93883 17.7654C5.88854 17.8157 5.82035 17.8439 5.74922 17.844H4.08664C4.01552 17.8439 3.94733 17.8157 3.89704 17.7654C3.84674 17.7151 3.81846 17.6469 3.8184 17.5758V15.9132C3.81846 15.8421 3.84674 15.7739 3.89704 15.7236C3.94733 15.6733 4.01552 15.645 4.08664 15.6449H5.74922C5.82035 15.645 5.88854 15.6733 5.93883 15.7236C5.98912 15.7739 6.0174 15.8421 6.01746 15.9132V17.5758Z" fill="white"/>
<path d="M11.8313 14.8214H10.1687C9.87923 14.8218 9.60175 14.9369 9.39709 15.1416C9.19242 15.3463 9.07728 15.6237 9.0769 15.9132V17.5758C9.07728 17.8652 9.19242 18.1427 9.39709 18.3473C9.60175 18.552 9.87923 18.6672 10.1687 18.6675H11.8313C12.1207 18.6672 12.3982 18.552 12.6029 18.3473C12.8075 18.1427 12.9227 17.8652 12.923 17.5758V15.9132C12.9227 15.6237 12.8075 15.3463 12.6029 15.1416C12.3982 14.9369 12.1207 14.8218 11.8313 14.8214ZM12.0995 17.5758C12.0994 17.6469 12.0712 17.7151 12.0209 17.7654C11.9706 17.8157 11.9024 17.8439 11.8313 17.844H10.1687C10.0976 17.8439 10.0294 17.8157 9.97907 17.7654C9.92878 17.7151 9.9005 17.6469 9.90044 17.5758V15.9132C9.9005 15.8421 9.92878 15.7739 9.97907 15.7236C10.0294 15.6733 10.0976 15.645 10.1687 15.6449H11.8313C11.9024 15.645 11.9706 15.6733 12.0209 15.7236C12.0712 15.7739 12.0994 15.8421 12.0995 15.9132V17.5758Z" fill="white"/>
<path d="M17.9133 14.8214H16.2507C15.9613 14.8218 15.6838 14.9369 15.4791 15.1416C15.2745 15.3463 15.1593 15.6237 15.1589 15.9132V17.5758C15.1593 17.8652 15.2745 18.1427 15.4791 18.3473C15.6838 18.552 15.9613 18.6672 16.2507 18.6675H17.9133C18.2027 18.6672 18.4802 18.552 18.6849 18.3473C18.8895 18.1427 19.0047 17.8652 19.0051 17.5758V15.9132C19.0047 15.6237 18.8895 15.3463 18.6849 15.1416C18.4802 14.9369 18.2027 14.8218 17.9133 14.8214ZM18.1815 17.5758C18.1815 17.6469 18.1532 17.7151 18.1029 17.7654C18.0526 17.8157 17.9844 17.8439 17.9133 17.844H16.2507C16.1796 17.8439 16.1114 17.8157 16.0611 17.7654C16.0108 17.7151 15.9825 17.6469 15.9825 17.5758V15.9132C15.9825 15.8421 16.0108 15.7739 16.0611 15.7236C16.1114 15.6733 16.1796 15.645 16.2507 15.6449H17.9133C17.9844 15.645 18.0526 15.6733 18.1029 15.7236C18.1532 15.7739 18.1815 15.8421 18.1815 15.9132V17.5758Z" fill="white"/>
</svg>
