<svg width="9" height="13" viewBox="0 0 9 13" fill="none" xmlns="http://www.w3.org/2000/svg">
<g clip-path="url(#clip0_6550_6777)">
<path d="M0.854999 12.5009C0.838785 12.4891 0.824886 12.4798 0.808671 12.468C0.716015 12.4048 0.67432 12.318 0.699801 12.2079C0.725281 12.1024 0.813304 12.0344 0.931441 12.0344C1.1515 12.0321 1.37156 12.0344 1.59161 12.0344C2.32823 12.0344 3.06485 12.0344 3.80378 12.0344C3.84547 12.0344 3.88485 12.0344 3.94508 12.0344C3.91497 11.9876 3.89643 11.9548 3.87559 11.9243C2.8471 10.4524 1.82326 8.9782 0.792457 7.50633C-0.493146 5.67351 -0.180432 3.07664 1.50359 1.60945C2.23094 0.976642 3.06716 0.608673 4.02384 0.521954C4.04932 0.519611 4.0748 0.510236 4.10259 0.503204C4.30412 0.503204 4.50333 0.503204 4.70486 0.503204C4.9365 0.540704 5.17045 0.568829 5.39746 0.620392C7.09307 1.00008 8.44585 2.44617 8.73308 4.18992C8.93461 5.42039 8.67749 6.54539 7.96404 7.56492C7.7324 7.89539 7.50075 8.2282 7.26911 8.55867C7.20889 8.64539 7.12781 8.69226 7.02126 8.66648C6.91934 8.64304 6.84985 8.57508 6.84521 8.4743C6.8429 8.40633 6.86838 8.32664 6.90544 8.27039C7.1255 7.94461 7.35019 7.62351 7.57951 7.30242C9.26354 4.94227 8.0011 1.64461 5.18667 1.04695C3.04863 0.594611 0.896695 2.06883 0.528387 4.23445C0.336125 5.3618 0.574715 6.38601 1.22794 7.31883C2.25642 8.78601 3.28027 10.2579 4.30644 11.7298C4.33192 11.7673 4.35971 11.8048 4.39678 11.8587C4.42689 11.8188 4.45237 11.786 4.47553 11.7532C4.85774 11.2048 5.23995 10.6563 5.62447 10.1079C5.64995 10.0727 5.67311 10.0352 5.70091 10.0048C5.78199 9.91804 5.90012 9.90867 5.99509 9.97195C6.08775 10.0352 6.1225 10.1548 6.07385 10.2626C6.05532 10.3001 6.02984 10.3352 6.00668 10.3704C5.64763 10.8837 5.29091 11.3969 4.93187 11.9102C4.9087 11.9454 4.88554 11.9805 4.85079 12.0321C4.9087 12.0321 4.94808 12.0321 4.98978 12.0321C5.93487 12.0321 6.88228 12.0321 7.82737 12.0321C7.99646 12.0321 8.1007 12.1212 8.10302 12.2641C8.10534 12.3813 8.02658 12.4446 7.94087 12.5009C5.58046 12.5009 3.21773 12.5009 0.854999 12.5009Z" fill="#662D91"/>
<path d="M2.31396 4.95313C2.31396 3.79063 3.24979 2.84375 4.39873 2.84375C5.54766 2.84375 6.48349 3.79063 6.48349 4.95313C6.48349 6.11563 5.54766 7.0625 4.39873 7.0625C3.24979 7.0625 2.31396 6.11563 2.31396 4.95313ZM4.39873 3.3125C3.50691 3.3125 2.77725 4.04609 2.77725 4.94844C2.77493 5.85078 3.49996 6.58906 4.39178 6.59141C5.29054 6.59375 6.02021 5.85781 6.02021 4.94844C6.01789 4.04844 5.29286 3.3125 4.39873 3.3125Z" fill="#662D91"/>
<path d="M6.71539 9.30758C6.71771 9.43636 6.61116 9.54641 6.48375 9.54641C6.36099 9.54641 6.25675 9.44338 6.25443 9.31928C6.25212 9.1905 6.35867 9.08045 6.48607 9.08045C6.60652 9.07811 6.71076 9.18114 6.71539 9.30758Z" fill="#662D91"/>
</g>
<defs>
<clipPath id="clip0_6550_6777">
<rect width="8.8" height="12" fill="white" transform="translate(0 0.5)"/>
</clipPath>
</defs>
</svg>
