<svg width="15" height="16" viewBox="0 0 15 16" fill="none" xmlns="http://www.w3.org/2000/svg">
<g clip-path="url(#clip0)">
<path d="M14.5711 2.55069C14.3504 2.32964 13.9924 2.32926 13.7717 2.54975L6.98967 9.31387L4.54274 6.65626C4.33131 6.42675 3.97383 6.41187 3.74393 6.62328C3.51422 6.83471 3.49951 7.19237 3.71094 7.42208L6.55643 10.5123C6.66064 10.6256 6.80648 10.6914 6.96026 10.6946C6.96439 10.6947 6.96838 10.6947 6.97233 10.6947C7.12177 10.6947 7.26553 10.6354 7.37144 10.5299L14.5699 3.35023C14.7912 3.12977 14.7915 2.77173 14.5711 2.55069Z" fill="#219653"/>
<path d="M14.4347 7.43469C14.1224 7.43469 13.8693 7.68776 13.8693 8.00003C13.8693 11.5122 11.0122 14.3694 7.5 14.3694C3.98801 14.3694 1.13065 11.5122 1.13065 8.00003C1.13065 4.48804 3.98801 1.63068 7.5 1.63068C7.81225 1.63068 8.06534 1.37762 8.06534 1.06537C8.06534 0.753097 7.81225 0.500031 7.5 0.500031C3.36445 0.500031 0 3.86448 0 8.00003C0 12.1354 3.36445 15.5 7.5 15.5C11.6354 15.5 15 12.1354 15 8.00003C15 7.68778 14.7469 7.43469 14.4347 7.43469Z" fill="#219653"/>
</g>
<defs>
<clipPath id="clip0">
<rect width="15" height="15" fill="white" transform="translate(0 0.500031)"/>
</clipPath>
</defs>
</svg>
