<svg width="21" height="12" viewBox="0 0 21 12" fill="none" xmlns="http://www.w3.org/2000/svg">
<path d="M20.8158 5.82318C18.3584 2.56517 14.7351 0.696655 10.875 0.696655C7.01488 0.696655 3.3916 2.56521 0.93418 5.82318C0.855273 5.92783 0.855273 6.07205 0.93418 6.17673C3.3916 9.43474 7.01488 11.3033 10.875 11.3033C14.7351 11.3033 18.3584 9.43478 20.8158 6.17677C20.8947 6.07208 20.8947 5.92783 20.8158 5.82318ZM10.875 10.7162C7.27098 10.7162 3.88031 9.00029 1.53852 5.99998C3.88031 2.99966 7.27098 1.28373 10.875 1.28373C14.479 1.28373 17.8696 2.99966 20.2115 5.99998C17.8696 9.00029 14.479 10.7162 10.875 10.7162Z" fill="#662D91"/>
<path d="M14.3653 2.88664C14.2574 2.7657 14.0718 2.75512 13.9508 2.86309C13.8299 2.97105 13.8194 3.15664 13.9273 3.27758C14.5963 4.02719 14.9649 4.99406 14.9649 5.99992C14.9649 8.25515 13.1301 10.0899 10.8748 10.0899C8.61955 10.0899 6.78479 8.25511 6.78479 5.99992C6.78479 3.74472 8.61955 1.90988 10.8748 1.90988C11.5351 1.90988 12.1653 2.06231 12.7477 2.36285C12.8917 2.43711 13.0688 2.38066 13.1431 2.2366C13.2175 2.09254 13.161 1.91547 13.0169 1.84113C12.3598 1.50203 11.6191 1.32281 10.8749 1.32281C8.29588 1.32281 6.19775 3.42094 6.19775 5.99992C6.19775 8.5789 8.29584 10.677 10.8748 10.677C13.4538 10.677 15.5519 8.57886 15.5519 5.99992C15.5519 4.84961 15.1305 3.74398 14.3653 2.88664Z" fill="#662D91"/>
<path d="M10.8747 4.14087C9.84965 4.14087 9.01562 4.97486 9.01562 5.99998C9.01562 7.02506 9.84965 7.85909 10.8747 7.85909C11.8998 7.85909 12.7338 7.02506 12.7338 5.99998C12.7338 4.9749 11.8998 4.14087 10.8747 4.14087ZM10.8747 7.27198C10.1734 7.27198 9.6027 6.70135 9.6027 5.99994C9.6027 5.29853 10.1734 4.7279 10.8747 4.7279C11.5761 4.7279 12.1468 5.29853 12.1468 5.99994C12.1468 6.70135 11.5761 7.27198 10.8747 7.27198Z" fill="#662D91"/>
</svg>
