<svg width="26" height="30" viewBox="0 0 26 30" fill="none" xmlns="http://www.w3.org/2000/svg">
<path d="M20.7086 13.0798C20.9466 13.1283 21.1786 12.9748 21.2273 12.7363C21.3359 12.2039 21.391 11.6561 21.391 11.1079C21.391 6.65149 17.7763 3.02589 13.3333 3.02589C8.89026 3.02589 5.27562 6.65149 5.27562 11.1079C5.27562 15.5643 8.89026 19.1899 13.3333 19.1899C16.3617 19.1899 19.1068 17.512 20.4972 14.8111C20.6085 14.5947 20.524 14.3288 20.3083 14.2171C20.0927 14.1053 19.8275 14.1903 19.7162 14.4065C18.4772 16.8131 16.0315 18.3082 13.3334 18.3082C9.37502 18.3082 6.1547 15.0781 6.1547 11.1078C6.1547 7.13753 9.37502 3.90748 13.3334 3.90748C17.2917 3.90748 20.512 7.13753 20.512 11.1078C20.512 11.5967 20.463 12.0851 20.3662 12.5594C20.3175 12.798 20.4708 13.0309 20.7086 13.0798Z" fill="#662D91"/>
<path d="M18.2234 9.46832C18.1716 9.3084 18.0336 9.19202 17.8677 9.16817L15.0033 8.75661L13.7279 6.15125C13.5822 5.82748 13.0844 5.82754 12.9388 6.15125L11.6634 8.75655L8.79899 9.16811C8.44656 9.20708 8.29344 9.68216 8.55515 9.92072L10.6313 11.9425L10.1364 14.8021C10.0644 15.1492 10.4666 15.4435 10.7747 15.2673L13.3333 13.9115L15.8919 15.2673C16.1996 15.4435 16.6024 15.1492 16.5303 14.8021L16.0353 11.9425L18.1115 9.92072C18.2318 9.8037 18.2752 9.62819 18.2234 9.46832ZM15.2564 11.4722C15.1522 11.5737 15.1047 11.7203 15.1295 11.8639L15.5111 14.0684L13.5386 13.0231C13.4102 12.9551 13.2564 12.9551 13.128 13.0231L11.1555 14.0684L11.5371 11.8639C11.5619 11.7203 11.5144 11.5737 11.4101 11.4722L9.80957 9.91357L12.0178 9.59625C12.1617 9.57556 12.286 9.48502 12.3501 9.35417L13.3333 7.34572L14.3165 9.35417C14.3805 9.48496 14.5049 9.57556 14.6487 9.59625L16.857 9.91357L15.2564 11.4722Z" fill="#662D91"/>
<path d="M25.6671 26.2038L21.3713 18.7408C23.2523 16.749 24.4078 14.0613 24.4078 11.1078C24.4077 4.98294 19.4398 1.52588e-05 13.3333 1.52588e-05C11.4545 1.52588e-05 9.59835 0.480604 7.96542 1.38986C7.75317 1.50806 7.67663 1.7764 7.79448 1.98929C7.91227 2.20208 8.17984 2.27884 8.39204 2.16076C9.89475 1.32399 11.6034 0.88173 13.3333 0.88173C18.9551 0.88173 23.5287 5.46922 23.5287 11.1079C23.5287 16.7466 18.9551 21.3341 13.3333 21.3341C7.7115 21.3341 3.13791 16.7466 3.13791 11.1078C3.13791 8.08283 4.46271 5.22959 6.77271 3.27981C6.95842 3.12305 6.98227 2.84493 6.82598 2.6587C6.66969 2.4724 6.39245 2.44838 6.20674 2.60525C3.69784 4.72293 2.25889 7.822 2.25889 11.1078C2.25889 14.0664 3.4182 16.7583 5.30486 18.7511L4.08824 20.8647C3.7967 21.354 4.56813 21.8064 4.84947 21.3055L5.95546 19.3842C7.27861 20.5721 8.8871 21.446 10.6638 21.8888L6.87116 28.4776L5.90102 25.415C5.83228 25.1979 5.60983 25.0692 5.38796 25.1179L2.25859 25.8064L3.82383 23.0872C3.9452 22.8763 3.87318 22.6067 3.66297 22.485C3.45271 22.3633 3.18397 22.4355 3.0626 22.6463L0.999369 26.2307C0.803641 26.5456 1.11446 26.9734 1.47416 26.8818L5.18461 26.0653L6.3349 29.6966C6.43546 30.0538 6.95877 30.112 7.1344 29.7835L11.5716 22.0747C12.1455 22.1671 12.7337 22.2158 13.3331 22.2158C13.9375 22.2158 14.5304 22.1662 15.1087 22.0723L17.7738 26.7022C17.8552 26.8437 18.0029 26.9227 18.1548 26.9227C18.2293 26.9227 18.3049 26.9036 18.3741 26.8636C18.5843 26.7418 18.6563 26.4722 18.535 26.2614L16.0162 21.8854C17.7921 21.4405 19.3995 20.5646 20.7212 19.375L24.4077 25.7795L21.2783 25.091C21.0565 25.0422 20.8341 25.171 20.7653 25.3881L19.7951 28.4507L19.5605 28.043C19.4391 27.8322 19.1703 27.76 18.9601 27.8817C18.7499 28.0035 18.6779 28.273 18.7993 28.4839L19.5319 29.7566C19.7075 30.0852 20.2308 30.0269 20.3314 29.6697L21.4816 26.0384L25.1921 26.8549C25.5521 26.9462 25.8627 26.5187 25.6671 26.2038Z" fill="#662D91"/>
</svg>
