<svg width="15" height="16" viewBox="0 0 15 16" fill="none" xmlns="http://www.w3.org/2000/svg">
<rect x="0.5" y="1" width="14" height="14" rx="7" fill="#662D91"/>
<path d="M9.64682 5.67083C9.75409 5.56255 9.89987 5.50114 10.0523 5.50002C10.2047 5.49889 10.3514 5.55815 10.4602 5.66484C10.5691 5.77152 10.6313 5.91696 10.6332 6.06937C10.6352 6.22178 10.5767 6.36876 10.4706 6.4782L7.4009 10.3157C7.34816 10.3725 7.28453 10.4181 7.21379 10.4497C7.14305 10.4814 7.06666 10.4984 6.98919 10.4999C6.91171 10.5014 6.83473 10.4872 6.76285 10.4582C6.69097 10.4293 6.62566 10.3862 6.57082 10.3314L4.53556 8.29693C4.4274 8.18873 4.36666 8.04199 4.3667 7.889C4.36674 7.73601 4.42755 7.5893 4.53575 7.48114C4.64396 7.37299 4.7907 7.31225 4.94369 7.31229C5.09668 7.31232 5.24339 7.37313 5.35154 7.48134L6.96119 9.09138L9.63155 5.68884C9.6364 5.68265 9.64163 5.67676 9.64721 5.67122L9.64682 5.67083Z" fill="white"/>
<rect x="0.5" y="1" width="14" height="14" rx="7" stroke="#662D91"/>
</svg>
