<svg width="15" height="13" viewBox="0 0 15 13" fill="none" xmlns="http://www.w3.org/2000/svg">
<path d="M5.25 10.4067L6.75 11.0733V6.68C6.74917 6.50511 6.67106 6.33751 6.5325 6.21333L1.6725 1.83333H13.3425L8.49 6.21333C8.35144 6.33751 8.27333 6.50511 8.2725 6.68L8.25 11.8333L9.75 12.5V6.95333L14.685 2.5C14.8824 2.32198 14.9952 2.08327 15 1.83333V1.16667C15 0.989856 14.921 0.820287 14.7803 0.695262C14.6397 0.570238 14.4489 0.5 14.25 0.5H0.75C0.551088 0.5 0.360322 0.570238 0.21967 0.695262C0.0790178 0.820287 0 0.989856 0 1.16667V1.83333C0.00479813 2.08327 0.117589 2.32198 0.315 2.5L5.25 6.95333V10.4067Z" fill="#662D91"/>
</svg>
