<svg width="15" height="15" viewBox="0 0 15 15" fill="none" xmlns="http://www.w3.org/2000/svg">
<path d="M13.9499 6.7782L13.5615 5.22444C13.6677 5.20188 13.7474 5.10766 13.7474 4.99478V4.74426C13.7474 4.20034 13.3049 3.75784 12.761 3.75784H10.9917V3.2411C10.9917 2.97344 10.7739 2.75571 10.5063 2.75571H1.48746C1.2198 2.75571 1.00207 2.97344 1.00207 3.2411V7.49998C1.00207 7.62968 1.10722 7.73486 1.23694 7.73486C1.36664 7.73486 1.47182 7.62971 1.47182 7.49998V3.2411C1.47182 3.23245 1.47882 3.22545 1.48746 3.22545H10.5062C10.5149 3.22545 10.5219 3.23245 10.5219 3.2411V7.50004C10.5219 7.62974 10.627 7.73492 10.7568 7.73492C10.8865 7.73492 10.9916 7.62977 10.9916 7.50004V7.23379H13.7622C13.7624 7.23379 13.7626 7.23385 13.7628 7.23385C13.7631 7.23385 13.7633 7.23382 13.7635 7.23382C14.1044 7.23406 14.3939 7.45783 14.4933 7.76618H13.763C13.6333 7.76618 13.5281 7.87132 13.5281 8.00105V8.50208C13.5281 8.90787 13.8582 9.23799 14.264 9.23799H14.5302V10.2714H13.9161C13.7144 9.68887 13.1606 9.26928 12.5104 9.26928C11.8601 9.26928 11.3064 9.68887 11.1047 10.2714H10.9916V8.50205C10.9916 8.37236 10.8864 8.26718 10.7567 8.26718C10.627 8.26718 10.5218 8.37233 10.5218 8.50205V10.2713H5.64894C5.4472 9.68881 4.89346 9.26922 4.24321 9.26922C3.59297 9.26922 3.0392 9.68881 2.83749 10.2713H1.48746C1.47882 10.2713 1.47182 10.2643 1.47182 10.2557V9.73897H2.48956C2.61926 9.73897 2.72443 9.63382 2.72443 9.5041C2.72443 9.37437 2.61929 9.26922 2.48956 9.26922H0.234873C0.105176 9.26922 0 9.37437 0 9.5041C0 9.63382 0.105146 9.73897 0.234873 9.73897H1.0021V10.2557C1.0021 10.5233 1.21983 10.7411 1.48749 10.7411H2.75616C2.7561 10.7463 2.75575 10.7515 2.75575 10.7567C2.75575 11.5769 3.42305 12.2442 4.24321 12.2442C5.06338 12.2442 5.73067 11.5769 5.73067 10.7567C5.73067 10.7514 5.73032 10.7463 5.73026 10.7411H11.0233C11.0233 10.7463 11.0229 10.7515 11.0229 10.7567C11.0229 11.5769 11.6902 12.2442 12.5104 12.2442C13.3305 12.2442 13.9978 11.5769 13.9978 10.7567C13.9978 10.7514 13.9975 10.7463 13.9974 10.7411H14.7651C14.8948 10.7411 15 10.6359 15 10.5062V8.00099C15 7.38247 14.5436 6.86858 13.9499 6.7782ZM10.9917 4.22755H12.761C13.0459 4.22755 13.2777 4.45935 13.2777 4.74426V4.75991H10.9917V4.22755ZM10.9917 6.76408V5.22962H13.0786L13.4622 6.76408H10.9917ZM4.24321 11.7745C3.68203 11.7745 3.22547 11.318 3.22547 10.7568C3.22547 10.1956 3.68203 9.73903 4.24321 9.73903C4.80439 9.73903 5.26096 10.1956 5.26096 10.7568C5.26096 11.318 4.80439 11.7745 4.24321 11.7745ZM12.5104 11.7745C11.9493 11.7745 11.4927 11.318 11.4927 10.7568C11.4927 10.1956 11.9493 9.73903 12.5104 9.73903C13.0716 9.73903 13.5282 10.1956 13.5282 10.7568C13.5282 11.318 13.0716 11.7745 12.5104 11.7745ZM14.5303 8.76825H14.2641C14.1173 8.76825 13.9979 8.64883 13.9979 8.50205V8.23586H14.5303V8.76825H14.5303Z" fill="#662D91"/>
<path d="M4.2432 10.2714C3.97555 10.2714 3.75781 10.4891 3.75781 10.7568C3.75781 11.0244 3.97555 11.2422 4.2432 11.2422C4.51086 11.2422 4.72859 11.0244 4.72859 10.7568C4.72859 10.4891 4.51086 10.2714 4.2432 10.2714Z" fill="#662D91"/>
<path d="M12.5103 10.2714C12.2426 10.2714 12.0249 10.4891 12.0249 10.7568C12.0249 11.0244 12.2426 11.2422 12.5103 11.2422C12.7779 11.2422 12.9957 11.0244 12.9957 10.7568C12.9957 10.4891 12.7779 10.2714 12.5103 10.2714Z" fill="#662D91"/>
<path d="M9.75486 9.26932H6.24757C6.11787 9.26932 6.0127 9.37446 6.0127 9.50419C6.0127 9.63392 6.11784 9.73906 6.24757 9.73906H9.75486C9.88456 9.73906 9.98973 9.63392 9.98973 9.50419C9.98973 9.37446 9.88458 9.26932 9.75486 9.26932Z" fill="#662D91"/>
<path d="M3.74211 8.26721H0.735849C0.606152 8.26721 0.500977 8.37236 0.500977 8.50208C0.500977 8.63181 0.606123 8.73696 0.735849 8.73696H3.74211C3.87181 8.73696 3.97698 8.63181 3.97698 8.50208C3.97698 8.37236 3.87181 8.26721 3.74211 8.26721Z" fill="#662D91"/>
<path d="M8.16704 5.07918C8.07534 4.98748 7.9266 4.98748 7.8349 5.07921L5.74626 7.1678L4.65973 6.08127C4.568 5.98955 4.41929 5.98955 4.32759 6.08127C4.23586 6.173 4.23586 6.32168 4.32759 6.41341L5.58021 7.66603C5.62606 7.7119 5.68617 7.73481 5.74626 7.73481C5.80635 7.73481 5.8665 7.7119 5.91232 7.66603L8.16701 5.41134C8.25874 5.31959 8.25874 5.17091 8.16704 5.07918Z" fill="#662D91"/>
</svg>
