<svg width="26" height="30" viewBox="0 0 26 30" fill="none" xmlns="http://www.w3.org/2000/svg">
<path d="M25.692 4.23416C25.6242 3.56947 25.0678 3.05385 24.3978 3.03475C18.7618 2.87408 15.0301 0.991699 13.6873 0.189844C13.2633 -0.0633399 12.7366 -0.0632226 12.3127 0.189844C11.5163 0.665449 9.80364 1.5627 7.28066 2.22855C7.0464 2.29043 6.90659 2.53049 6.96841 2.76475C7.03023 2.999 7.2704 3.13869 7.5046 3.07699C10.1317 2.38359 11.9266 1.44246 12.7627 0.943242C12.9091 0.855703 13.091 0.855703 13.2375 0.943242C14.6393 1.78031 18.5306 3.74537 24.3728 3.91189C24.604 3.91846 24.7958 4.09529 24.8191 4.32316C25.0134 6.22775 25.3182 11.2107 23.956 16.336C23.1919 19.2111 22.0145 21.6973 20.4565 23.7253C18.5816 26.1657 16.1283 27.9715 13.1645 29.0924C13.0584 29.1325 12.9417 29.1325 12.8355 29.0924C9.87185 27.9715 7.41847 26.1657 5.54364 23.7253C3.98564 21.6973 2.8082 19.2111 2.04402 16.336C0.681828 11.2107 0.986692 6.22764 1.18099 4.32316C1.20425 4.09529 1.39609 3.91846 1.6273 3.91189C2.9282 3.8748 4.22236 3.74396 5.47392 3.52289C5.71251 3.48076 5.87177 3.25312 5.82964 3.01447C5.78751 2.77588 5.55993 2.6165 5.32128 2.65875C4.11179 2.87238 2.86052 2.99889 1.60234 3.03475C0.932317 3.05385 0.37591 3.56947 0.308059 4.23416C0.108899 6.18662 -0.203347 11.2963 1.19605 16.5614C1.99017 19.5492 3.21876 22.1394 4.84784 24.2599C6.82357 26.8317 9.40661 28.7337 12.525 29.9131C12.6782 29.9711 12.8392 30.0001 13.0001 30.0001C13.161 30.0001 13.3218 29.9711 13.475 29.9131C16.5935 28.7337 19.1765 26.8317 21.1523 24.2599C22.7813 22.1394 24.0099 19.5492 24.8041 16.5614C26.2033 11.2963 25.8911 6.18662 25.692 4.23416Z" fill="#662D91"/>
<path d="M2.82243 6.16886C2.69658 7.40302 2.37548 11.7782 3.5299 16.2609C4.16412 18.7234 5.14509 20.8537 6.44552 22.5925C8.0275 24.7076 10.095 26.2587 12.5907 27.2026C12.7227 27.2525 12.8613 27.2774 13 27.2774C13.1386 27.2774 13.2774 27.2525 13.4093 27.2025C15.905 26.2587 17.9725 24.7077 19.5545 22.5925C20.8549 20.8537 21.8359 18.7235 22.4701 16.2609C23.6245 11.7782 23.3034 7.40302 23.1776 6.16886C23.1191 5.59575 22.6394 5.1512 22.0619 5.13474C17.6032 5.00765 14.6536 3.51989 13.5925 2.88626C13.2271 2.66794 12.773 2.668 12.4076 2.8862C11.3464 3.51989 8.39676 5.00765 3.93812 5.13474C3.36056 5.1512 2.88091 5.59575 2.82243 6.16886ZM12.8575 3.63954C12.9014 3.61329 12.9507 3.60017 13 3.60017C13.0493 3.60017 13.0986 3.61329 13.1426 3.6396C14.2628 4.30856 17.372 5.87888 22.0369 6.01188C22.1756 6.01581 22.2907 6.12157 22.3046 6.25786C22.4267 7.4554 22.7385 11.7002 21.6203 16.042C20.2729 21.274 17.4059 24.7528 13.099 26.3817C13.0352 26.406 12.9649 26.4059 12.9011 26.3818C8.5941 24.7527 5.7271 21.274 4.37968 16.042C3.26154 11.7003 3.57326 7.45546 3.69542 6.25786C3.70931 6.12163 3.82439 6.01581 3.9632 6.01188C8.62803 5.87888 11.7372 4.30856 12.8575 3.63954Z" fill="#662D91"/>
<path d="M13 20.5905C15.0017 20.5905 16.8878 19.6136 18.0453 17.9774C18.1852 17.7796 18.1383 17.5058 17.9404 17.3658C17.7427 17.2259 17.4688 17.2728 17.3289 17.4707C16.3357 18.8747 14.7174 19.713 13 19.713C10.0783 19.713 7.70143 17.3361 7.70143 14.4145C7.70143 11.4928 10.0783 9.1159 13 9.1159C15.9217 9.1159 18.2986 11.4928 18.2986 14.4145C18.2986 14.8714 18.2405 15.3248 18.1257 15.7623C18.0643 15.9967 18.2045 16.2365 18.4388 16.298C18.6732 16.3592 18.913 16.2192 18.9745 15.9848C19.1082 15.4747 19.176 14.9464 19.176 14.4145C19.176 11.009 16.4055 8.2384 12.9999 8.2384C9.59441 8.2384 6.82387 11.0089 6.82387 14.4145C6.82387 17.82 9.59453 20.5905 13 20.5905Z" fill="#662D91"/>
<path d="M15.3011 11.3336C14.9347 11.3482 14.596 11.5047 14.3473 11.774L12.1438 14.1606L11.5981 13.6333C11.0539 13.1074 10.1832 13.1222 9.6571 13.6664C9.13117 14.2106 9.14593 15.0813 9.69021 15.6075L11.2456 17.1107C11.5029 17.3594 11.8417 17.4964 12.1995 17.4964C12.2131 17.4964 12.2267 17.4962 12.2386 17.4958C12.6058 17.4854 12.9592 17.3246 13.2081 17.0548L16.3643 13.6364C16.8779 13.0802 16.8432 12.2101 16.287 11.6966C16.0176 11.4479 15.6671 11.3192 15.3011 11.3336ZM15.7196 13.0412C15.7196 13.0412 12.5634 16.4597 12.5634 16.4597C12.3753 16.6634 12.0545 16.6723 11.8554 16.4798C11.8544 16.4789 10.3 14.9765 10.3 14.9765C10.1036 14.7867 10.0983 14.4726 10.288 14.2763C10.385 14.1759 10.5145 14.1254 10.6442 14.1254C10.7682 14.1254 10.8923 14.1716 10.9884 14.2643C10.9884 14.2643 11.8555 15.1023 11.8567 15.1035C12.029 15.27 12.321 15.2621 12.4839 15.0857C12.4839 15.0857 14.984 12.3779 14.992 12.3693C15.4157 11.9104 16.1562 12.5684 15.7196 13.0412Z" fill="#662D91"/>
</svg>
