<svg width="278" height="278" viewBox="0 0 278 278" fill="none" xmlns="http://www.w3.org/2000/svg">
<path d="M270.05 38.0039C265.961 33.9072 259.325 33.9001 255.235 37.9865L129.542 163.348L84.1921 114.094C80.2735 109.84 73.6482 109.564 69.3875 113.482C65.1301 117.401 64.8575 124.03 68.7761 128.287L121.512 185.56C123.444 187.659 126.147 188.878 128.997 188.937C129.073 188.94 129.147 188.94 129.22 188.94C131.99 188.94 134.655 187.84 136.617 185.885L270.03 52.822C274.13 48.7362 274.137 42.1006 270.05 38.0039Z" fill="#219653"/>
<path d="M267.522 128.522C261.735 128.522 257.045 133.212 257.045 139C257.045 204.093 204.093 257.045 139 257.045C73.9111 257.045 20.9548 204.093 20.9548 139C20.9548 73.9111 73.9111 20.9548 139 20.9548C144.787 20.9548 149.478 16.2646 149.478 10.4777C149.478 4.69016 144.787 0 139 0C62.3545 0 0 62.3545 0 139C0 215.642 62.3545 278 139 278C215.642 278 278 215.642 278 139C278 133.213 273.31 128.522 267.522 128.522Z" fill="#219653"/>
</svg>
