<?xml version="1.0" standalone="no"?>
<!DOCTYPE svg PUBLIC "-//W3C//DTD SVG 20010904//EN"
 "http://www.w3.org/TR/2001/REC-SVG-20010904/DTD/svg10.dtd">
<svg version="1.0" xmlns="http://www.w3.org/2000/svg"
 width="480.000000pt" height="480.000000pt" viewBox="0 0 480.000000 480.000000"
 preserveAspectRatio="xMidYMid meet">

<g transform="translate(0.000000,480.000000) scale(0.100000,-0.100000)"
fill="#ffffff" stroke="none">
<path d="M1195 3600 l-140 -140 530 -530 530 -530 -530 -530 -530 -530 143
-142 142 -143 530 530 530 530 530 -530 530 -530 142 143 143 142 -530 530
-530 530 530 530 530 530 -143 142 -142 143 -530 -530 -530 -530 -528 528
c-290 290 -529 527 -532 527 -3 0 -68 -63 -145 -140z"/>
</g>
</svg>
