<svg width="16" height="14" viewBox="0 0 16 14" fill="none" xmlns="http://www.w3.org/2000/svg">
<g clip-path="url(#clip0)">
<path d="M2.36093 0.926745C2.20009 0.926745 2.03806 0.922049 1.87839 0.926745C1.76744 0.927436 1.6609 0.970268 1.58035 1.04657C1.49981 1.12286 1.45127 1.22693 1.44457 1.33767C1.4293 1.55869 1.5972 1.77795 1.83142 1.79116C2.17681 1.81004 2.52294 1.81102 2.86843 1.79409C3.1144 1.78177 3.27495 1.57249 3.26204 1.33444C3.25 1.1052 3.07184 0.934376 2.8288 0.925864C2.67294 0.922049 2.51709 0.926451 2.36093 0.926745Z" fill="white"/>
<path d="M15.5003 11.8918C15.4609 12.0109 15.4339 12.1357 15.3805 12.2481C15.1436 12.7471 14.7512 13.0471 14.1935 13.0644C13.5058 13.0855 12.8172 13.0729 12.1292 13.0732C8.8001 13.0732 5.4712 13.0739 2.14249 13.0752C1.84897 13.0752 1.55545 13.0785 1.28512 12.9382C0.79259 12.6825 0.507877 12.2777 0.506116 11.7233C0.49731 9.19903 0.49731 6.67554 0.506116 4.15285C0.508171 3.39116 1.11605 2.79591 1.88096 2.78446C2.3591 2.77712 2.83754 2.77888 3.31598 2.78446C3.40374 2.78738 3.49111 2.77139 3.57214 2.73756C3.65318 2.70372 3.72598 2.65285 3.78561 2.58839C4.18656 2.18186 4.59514 1.78268 4.99491 1.37498C5.29518 1.06855 5.65328 0.920907 6.08094 0.922374C7.36479 0.926483 8.64845 0.926483 9.93191 0.922374C10.3563 0.922374 10.7103 1.06767 11.0074 1.36882C11.4083 1.77534 11.8166 2.17482 12.2167 2.58222C12.2797 2.64989 12.3568 2.70299 12.4424 2.73782C12.5281 2.77265 12.6203 2.78836 12.7127 2.78387C13.1471 2.77624 13.5815 2.78123 14.0159 2.78152C14.8002 2.78152 15.2972 3.17601 15.4803 3.94151C15.4854 3.95519 15.4921 3.9682 15.5003 3.98026V11.8918ZM7.99498 12.1944C10.0105 12.1944 12.026 12.1944 14.0415 12.1944C14.4278 12.1944 14.6207 12.0036 14.6203 11.622C14.6203 9.15646 14.6203 6.69159 14.6203 4.2274C14.6203 3.8649 14.421 3.66472 14.0597 3.66355C13.6059 3.66208 13.1518 3.65709 12.698 3.66355C12.2578 3.6703 11.8935 3.51239 11.5868 3.19773C11.1949 2.79591 10.7919 2.40523 10.3983 2.00487C10.3372 1.93876 10.2627 1.88646 10.1797 1.85149C10.0967 1.81651 10.0072 1.79965 9.91724 1.80205C8.63847 1.80616 7.3597 1.80616 6.08094 1.80205C5.9933 1.79927 5.90607 1.81521 5.82509 1.84882C5.7441 1.88243 5.67122 1.93293 5.6113 1.99695C5.20742 2.40787 4.79649 2.81117 4.39114 3.22034C4.09586 3.52149 3.7407 3.6703 3.31598 3.66443C2.8622 3.65768 2.40812 3.66179 1.95434 3.66237C1.58363 3.66237 1.38198 3.86285 1.38169 4.23063C1.38169 6.7003 1.38169 9.17007 1.38169 11.6399C1.38 11.6983 1.38532 11.7566 1.39754 11.8137C1.46064 12.0679 1.64938 12.1953 1.96285 12.1953L7.99498 12.1944Z" fill="#662D91"/>
<path d="M2.36093 0.926456C2.51709 0.926456 2.67295 0.922054 2.8288 0.926456C3.07184 0.934968 3.25 1.1058 3.26204 1.33503C3.27495 1.57308 3.11528 1.78236 2.86843 1.79468C2.52294 1.81161 2.17681 1.81063 1.83143 1.79175C1.59661 1.77913 1.42931 1.55928 1.44457 1.33826C1.45127 1.22752 1.49981 1.12346 1.58036 1.04716C1.66091 0.97086 1.76744 0.928028 1.87839 0.927337C2.03924 0.922053 2.20009 0.92675 2.36093 0.926456Z" fill="#662D91"/>
<path d="M11.2625 7.46291C11.2625 7.89215 11.1777 8.31717 11.013 8.71353C10.8482 9.10989 10.6067 9.46979 10.3025 9.77254C9.99817 10.0753 9.63706 10.3149 9.23988 10.4777C8.84269 10.6405 8.41726 10.7231 7.98802 10.721C6.19755 10.7163 4.74053 9.25338 4.7417 7.46291C4.7417 5.65659 6.20695 4.19105 8.00915 4.19281C9.80226 4.19545 11.2646 5.66628 11.2625 7.46291ZM10.382 7.47054C10.3853 6.8386 10.1377 6.23117 9.6934 5.78174C9.24913 5.3323 8.64461 5.07762 8.01268 5.07366C6.70299 5.06515 5.62578 6.13474 5.62079 7.44882C5.61617 7.76346 5.67397 8.07589 5.79084 8.36805C5.90772 8.66021 6.08136 8.9263 6.30171 9.15094C6.52207 9.37558 6.78477 9.5543 7.07462 9.67678C7.36448 9.79926 7.67574 9.86306 7.9904 9.86449C8.30507 9.86593 8.6169 9.80497 8.90786 9.68514C9.19882 9.56532 9.46315 9.38899 9.68554 9.16638C9.90793 8.94376 10.084 8.67926 10.2035 8.38818C10.3231 8.0971 10.3837 7.78521 10.382 7.47054Z" fill="#662D91"/>
</g>
<defs>
<clipPath id="clip0">
<rect width="15" height="12.1535" fill="white" transform="translate(0.5 0.923279)"/>
</clipPath>
</defs>
</svg>
