<svg width="12" height="13" viewBox="0 0 12 13" fill="none" xmlns="http://www.w3.org/2000/svg">
<path d="M10.2389 2.07503C9.10482 0.940996 7.60038 0.316895 5.99699 0.316895C4.39361 0.316895 2.88917 0.940996 1.75513 2.07503C-0.436833 4.267 -0.589053 7.77567 1.37712 10.1427C1.18431 10.5308 0.874795 10.9824 0.415598 11.2082C0.19488 11.3173 0.0705666 11.5533 0.108622 11.7968C0.146677 12.0404 0.334414 12.2306 0.577966 12.2687C0.692131 12.2865 0.854499 12.3042 1.05238 12.3042C1.58262 12.3042 2.36401 12.1799 3.16317 11.604C4.05365 12.0835 5.02786 12.3169 5.99446 12.3169C7.5471 12.3169 9.08452 11.7156 10.2414 10.5588C11.3754 9.42472 11.9995 7.92028 11.9995 6.31689C11.9995 4.71351 11.3729 3.20907 10.2389 2.07503ZM9.75429 10.0742C8.04181 11.7867 5.39065 12.1266 3.30524 10.9012C3.16824 10.8201 2.99826 10.8454 2.88917 10.9545C2.87902 10.9596 2.86888 10.9672 2.86126 10.9748C2.17374 11.5076 1.4989 11.6192 1.05238 11.6192H1.04985C1.56486 11.2437 1.88959 10.6856 2.07987 10.2518C2.11031 10.1782 2.11539 10.1021 2.09763 10.0311C2.09002 9.96256 2.06211 9.89406 2.01391 9.83825C0.156825 7.74015 0.253231 4.54353 2.23716 2.5596C4.30989 0.486874 7.68156 0.486874 9.75175 2.5596C11.827 4.63233 11.827 8.00146 9.75429 10.0742Z" fill="#662D91"/>
<path d="M5.99707 6.73802C6.22966 6.73802 6.41821 6.54947 6.41821 6.31689C6.41821 6.0843 6.22966 5.89575 5.99707 5.89575C5.76448 5.89575 5.57593 6.0843 5.57593 6.31689C5.57593 6.54947 5.76448 6.73802 5.99707 6.73802Z" fill="#662D91"/>
<path d="M8.1687 6.73802C8.40129 6.73802 8.58984 6.54947 8.58984 6.31689C8.58984 6.0843 8.40129 5.89575 8.1687 5.89575C7.93611 5.89575 7.74756 6.0843 7.74756 6.31689C7.74756 6.54947 7.93611 6.73802 8.1687 6.73802Z" fill="#662D91"/>
<path d="M3.82519 6.73802C4.05778 6.73802 4.24634 6.54947 4.24634 6.31689C4.24634 6.0843 4.05778 5.89575 3.82519 5.89575C3.5926 5.89575 3.40405 6.0843 3.40405 6.31689C3.40405 6.54947 3.5926 6.73802 3.82519 6.73802Z" fill="#662D91"/>
</svg>
