<svg width="12" height="13" viewBox="0 0 12 13" fill="none" xmlns="http://www.w3.org/2000/svg">
<g clip-path="url(#clip0_3496:4539)">
<path d="M11.4824 8.47499C11.7283 8.16131 11.8463 7.82505 11.8312 7.47875C11.8162 7.09732 11.6455 6.7987 11.505 6.61551C11.6681 6.20899 11.7308 5.56909 11.1863 5.07223C10.7873 4.70836 10.1098 4.54525 9.17125 4.59042C8.51127 4.62053 7.9592 4.74349 7.93661 4.74851H7.93411C7.80863 4.7711 7.67564 4.7987 7.54013 4.82881C7.53009 4.66821 7.55769 4.26922 7.8538 3.37085C8.20512 2.30184 8.18505 1.48377 7.78856 0.936719C7.372 0.362064 6.707 0.316895 6.51127 0.316895C6.32306 0.316895 6.14991 0.394686 6.02695 0.537723C5.74841 0.861437 5.78103 1.45868 5.81616 1.73471C5.48492 2.62304 4.55644 4.80121 3.77099 5.40598C3.75594 5.41602 3.74339 5.42856 3.73084 5.44111C3.49998 5.68452 3.34439 5.94801 3.239 6.17888C3.09094 6.09858 2.92281 6.05341 2.74214 6.05341H1.2114C0.634231 6.05341 0.16748 6.52267 0.16748 7.09732V11.1751C0.16748 11.7523 0.63674 12.219 1.2114 12.219H2.74214C2.96547 12.219 3.17375 12.1488 3.34439 12.0283L3.93411 12.0986C4.02444 12.1111 5.63047 12.3144 7.27915 12.2818C7.57777 12.3043 7.85882 12.3169 8.1198 12.3169C8.56899 12.3169 8.96045 12.2818 9.28668 12.2115C10.0546 12.0484 10.579 11.7222 10.845 11.2429C11.0483 10.8765 11.0483 10.5126 11.0157 10.2818C11.515 9.83007 11.6029 9.3307 11.5853 8.97938C11.5753 8.77612 11.5301 8.60297 11.4824 8.47499ZM1.2114 11.5415C1.00813 11.5415 0.845021 11.3759 0.845021 11.1751V7.09481C0.845021 6.89155 1.01064 6.72844 1.2114 6.72844H2.74214C2.9454 6.72844 3.10851 6.89406 3.10851 7.09481V11.1726C3.10851 11.3759 2.94289 11.539 2.74214 11.539H1.2114V11.5415ZM10.84 8.18139C10.7346 8.2918 10.7145 8.45993 10.7948 8.59042C10.7948 8.59293 10.8977 8.76859 10.9103 9.00949C10.9278 9.33822 10.7697 9.62932 10.4385 9.87775C10.3206 9.96809 10.2729 10.1237 10.3231 10.2642C10.3231 10.2667 10.431 10.5979 10.2553 10.9116C10.0872 11.2128 9.71328 11.4286 9.14615 11.549C8.69195 11.6469 8.07463 11.6644 7.31679 11.6042C7.30675 11.6042 7.29421 11.6042 7.28166 11.6042C5.66811 11.6394 4.03699 11.4286 4.01943 11.4261H4.01692L3.76347 11.3959C3.77852 11.3257 3.78605 11.2504 3.78605 11.1751V7.09481C3.78605 6.98691 3.76848 6.88151 3.73837 6.78365C3.78354 6.61551 3.90901 6.24161 4.20512 5.92292C5.33185 5.02957 6.43348 2.01577 6.48116 1.88528C6.50123 1.83258 6.50625 1.77486 6.49621 1.71715C6.45355 1.43609 6.46861 1.0923 6.52884 0.989416C6.66183 0.991926 7.02068 1.02957 7.23649 1.32819C7.49245 1.68201 7.48241 2.31439 7.20638 3.15253C6.7848 4.42982 6.74966 5.10234 7.08342 5.39845C7.24904 5.54651 7.46986 5.55403 7.63047 5.49632C7.78354 5.46119 7.92909 5.43107 8.0671 5.40849C8.07714 5.40598 8.08969 5.40347 8.09973 5.40096C8.87012 5.23283 10.2503 5.12994 10.7296 5.56658C11.1361 5.93797 10.8475 6.42982 10.8149 6.48252C10.7221 6.62304 10.7497 6.80623 10.8751 6.91915C10.8776 6.92166 11.1411 7.17009 11.1537 7.50385C11.1637 7.72718 11.0583 7.95554 10.84 8.18139Z" fill="#662D91"/>
</g>
<defs>
<clipPath id="clip0_3496:4539">
<rect width="12" height="12" fill="white" transform="translate(0 0.316895)"/>
</clipPath>
</defs>
</svg>
