<svg width="12" height="13" viewBox="0 0 12 13" fill="none" xmlns="http://www.w3.org/2000/svg">
<g clip-path="url(#clip0_4717:6452)">
<path d="M11.3152 8.47403C11.5611 8.16036 11.679 7.82409 11.664 7.4778C11.6489 7.09637 11.4783 6.79775 11.3378 6.61456C11.5009 6.20803 11.5636 5.56814 11.0191 5.07127C10.6201 4.70741 9.94253 4.5443 9.00376 4.58947C8.58869 4.60951 8.17586 4.66237 7.76913 4.74756H7.76662C7.64115 4.77014 7.50841 4.79775 7.37265 4.82786C7.36261 4.66726 7.39021 4.26826 7.68632 3.36989C8.03764 2.30088 8.01756 1.48282 7.62108 0.935764C7.20452 0.361109 6.53952 0.315939 6.34379 0.315939C6.25184 0.31518 6.16084 0.334554 6.07717 0.372703C5.9935 0.410852 5.9192 0.46685 5.85947 0.536768C5.58093 0.860482 5.61355 1.45772 5.64868 1.73376C5.31744 2.62209 4.38896 4.80026 3.60351 5.40502C3.589 5.41537 3.57555 5.42714 3.56336 5.44016C3.35981 5.65724 3.19362 5.90654 3.07152 6.17792C2.91902 6.09513 2.74817 6.05199 2.57465 6.05245H1.04391C0.767112 6.05265 0.501704 6.1627 0.305976 6.35843C0.110247 6.55416 0.000199401 6.81956 0 7.09637V11.1742C0.000199401 11.451 0.110247 11.7164 0.305976 11.9121C0.501704 12.1078 0.767112 12.2179 1.04391 12.2181H2.57465C2.79031 12.2184 3.00074 12.1517 3.17691 12.0274L3.76662 12.0976C3.85696 12.1102 5.46299 12.3134 7.11167 12.2808C7.41029 12.3034 7.69134 12.3159 7.95232 12.3159C8.4015 12.3159 8.79297 12.2808 9.1192 12.2105C9.88708 12.0474 10.4115 11.7212 10.6775 11.2419C10.8374 10.9486 10.8973 10.6112 10.8482 10.2808C11.3476 9.82911 11.4354 9.32974 11.4178 8.97842C11.4096 8.80604 11.375 8.63593 11.3152 8.47403V8.47403Z" fill="#662D91"/>
</g>
<defs>
<clipPath id="clip0_4717:6452">
<rect width="11.665" height="12" fill="white" transform="translate(0 0.316895)"/>
</clipPath>
</defs>
</svg>
