<svg width="19" height="16" viewBox="0 0 19 16" fill="none" xmlns="http://www.w3.org/2000/svg">
<path d="M6.5625 12.8833L8.4375 13.7167V8.225C8.43646 8.00638 8.33882 7.79688 8.16562 7.64167L2.09062 2.16667H16.6781L10.6125 7.64167C10.4393 7.79688 10.3417 8.00638 10.3406 8.225L10.3125 14.6667L12.1875 15.5V8.56667L18.3562 3C18.603 2.77747 18.744 2.47908 18.75 2.16667V1.33333C18.75 1.11232 18.6512 0.900358 18.4754 0.744078C18.2996 0.587798 18.0611 0.5 17.8125 0.5H0.9375C0.68886 0.5 0.450403 0.587798 0.274588 0.744078C0.0987722 0.900358 0 1.11232 0 1.33333V2.16667C0.00599766 2.47908 0.146986 2.77747 0.39375 3L6.5625 8.56667V12.8833Z" fill="white"/>
</svg>
