<svg width="15" height="15" viewBox="0 0 15 15" fill="none" xmlns="http://www.w3.org/2000/svg">
<g clip-path="url(#clip0_3292:4918)">
<path d="M14.0625 15.0011C9.68848 15.0011 5.31152 15.0011 0.9375 15.0011C0.714844 14.9279 0.647461 14.7638 0.647461 14.5411C0.650391 12.1505 0.650391 9.75989 0.650391 7.36926C0.650391 7.30774 0.650391 7.24622 0.650391 7.1759C0.395508 7.16125 0.120117 7.22278 0 6.91809C0 6.0011 0 5.08118 0 4.16418C0.0791016 3.96204 0.237305 3.90344 0.439453 3.90344C1.85742 3.90637 3.27832 3.90637 4.69629 3.90637C4.74609 3.90637 4.7959 3.90637 4.8252 3.90637C4.5 3.66321 4.15723 3.44641 3.8584 3.17981C2.86523 2.3009 3.14941 0.657349 4.37402 0.156372C4.55566 0.0831299 4.75781 0.053833 4.95117 0.00402832C5.04785 0.00402832 5.14746 0.00402832 5.24414 0.00402832C5.28223 0.0128174 5.31738 0.0274658 5.35547 0.0333252C5.76562 0.0889893 6.1377 0.244263 6.40723 0.557739C6.66211 0.853638 6.89062 1.18176 7.0957 1.51575C7.25684 1.77649 7.36523 2.07239 7.50586 2.36829C7.53516 2.29797 7.55859 2.24231 7.58496 2.18665C7.74316 1.86438 7.88379 1.52747 8.06836 1.22278C8.33789 0.777466 8.65723 0.36438 9.16406 0.165161C9.35156 0.0919189 9.55664 0.0567627 9.75293 0.00402832C9.84961 0.00402832 9.94922 0.00402832 10.0459 0.00402832C10.0781 0.0128174 10.1104 0.0274658 10.1426 0.0303955C11.5254 0.212036 12.2051 1.78235 11.3818 2.91028C11.1035 3.29114 10.7139 3.54895 10.3125 3.78333C10.2568 3.81555 10.2012 3.84778 10.1455 3.87708C10.1484 3.88586 10.1514 3.89758 10.1572 3.90637C10.21 3.90637 10.2627 3.90637 10.3154 3.90637C11.7305 3.90637 13.1426 3.90637 14.5576 3.90344C14.7627 3.90344 14.918 3.96204 14.9971 4.16418C14.9971 5.08118 14.9971 6.0011 14.9971 6.91809C14.877 7.22278 14.6045 7.16125 14.3467 7.1759C14.3467 7.24622 14.3467 7.30774 14.3467 7.36926C14.3467 9.75989 14.3467 12.1505 14.3496 14.5411C14.3525 14.7638 14.2852 14.9279 14.0625 15.0011ZM5.85938 7.1759C4.33594 7.1759 2.83008 7.1759 1.31543 7.1759C1.31543 9.5636 1.31543 11.9425 1.31543 14.3243C2.83594 14.3243 4.34473 14.3243 5.85938 14.3243C5.85938 11.9396 5.85938 9.5636 5.85938 7.1759ZM9.14648 7.17297C9.14648 9.55774 9.14648 11.9425 9.14648 14.3273C10.6611 14.3273 12.1729 14.3273 13.6816 14.3273C13.6816 11.9366 13.6816 9.55774 13.6816 7.17297C12.1641 7.17297 10.6611 7.17297 9.14648 7.17297ZM8.4668 14.3302C8.4668 11.9366 8.4668 9.56067 8.4668 7.17883C7.81641 7.17883 7.17773 7.17883 6.5332 7.17883C6.5332 9.56946 6.5332 11.9484 6.5332 14.3302C7.18359 14.3302 7.81934 14.3302 8.4668 14.3302ZM0.65918 4.56848C0.65918 5.21887 0.65918 5.86047 0.65918 6.505C2.39648 6.505 4.12207 6.505 5.85352 6.505C5.85352 5.85461 5.85352 5.21301 5.85352 4.56848C4.11914 4.56848 2.39355 4.56848 0.65918 4.56848ZM9.14062 6.50207C10.8838 6.50207 12.6094 6.50207 14.3408 6.50207C14.3408 5.85168 14.3408 5.21301 14.3408 4.56848C12.6035 4.56848 10.875 4.56848 9.14062 4.56848C9.14062 5.21887 9.14062 5.85754 9.14062 6.50207ZM7.8252 3.90637C7.9248 3.89758 8.00977 3.90051 8.08887 3.88C8.44336 3.79211 8.80078 3.71887 9.14648 3.59876C9.71484 3.40247 10.251 3.13 10.6934 2.70813C11.0244 2.39465 11.1562 2.00208 11.0449 1.55383C10.9307 1.09387 10.6348 0.792114 10.1719 0.683716C9.72363 0.575317 9.33105 0.710083 9.01758 1.047C8.58984 1.50403 8.32031 2.05481 8.1123 2.63489C7.96875 3.03625 7.85742 3.44934 7.8252 3.90637ZM7.1748 3.93274C7.16895 3.84485 7.17188 3.80383 7.16309 3.76575C7.06934 3.38196 7.00195 2.99231 6.87598 2.62024C6.67969 2.02844 6.39844 1.47766 5.95898 1.02356C5.59277 0.64563 5.15039 0.55188 4.6582 0.730591C4.22754 0.885864 3.93457 1.31946 3.91699 1.79407C3.90234 2.23059 4.10742 2.55872 4.43555 2.82532C4.98926 3.27649 5.62793 3.55774 6.31055 3.74524C6.58594 3.82434 6.87012 3.86829 7.1748 3.93274ZM6.5332 4.56848C6.5332 5.21887 6.5332 5.85754 6.5332 6.50207C7.18359 6.50207 7.82227 6.50207 8.46387 6.50207C8.46387 5.85168 8.46387 5.21008 8.46387 4.56848C7.81348 4.56848 7.17773 4.56848 6.5332 4.56848Z" fill="#B22E1C"/>
</g>
<defs>
<clipPath id="clip0_3292:4918">
<rect width="15" height="15" fill="white" transform="translate(0 0.00012207)"/>
</clipPath>
</defs>
</svg>
