<svg width="20" height="19" viewBox="0 0 20 19" fill="none" xmlns="http://www.w3.org/2000/svg">
<path d="M18.5625 6.79691L13.4297 6.05862L11.1094 1.38284C10.7227 0.574249 9.52734 0.539093 9.10547 1.38284L6.82031 6.05862L1.65234 6.79691C0.738281 6.93753 0.386719 8.06253 1.05469 8.7305L4.74609 12.3516L3.86719 17.4492C3.72656 18.3633 4.71094 19.0664 5.51953 18.6446L10.125 16.2188L14.6953 18.6446C15.5039 19.0664 16.4883 18.3633 16.3477 17.4492L15.4688 12.3516L19.1602 8.7305C19.8281 8.06253 19.4766 6.93753 18.5625 6.79691ZM13.6406 11.7539L14.4844 16.6055L10.125 14.3203L5.73047 16.6055L6.57422 11.7539L3.02344 8.30862L7.91016 7.6055L10.125 3.17581L12.3047 7.6055L17.1914 8.30862L13.6406 11.7539Z" fill="#FED100"/>
</svg>
