<svg width="15" height="12" viewBox="0 0 15 12" fill="none" xmlns="http://www.w3.org/2000/svg">
<path d="M9.76819 5.65219L6.48694 3.60141C6.36048 3.52238 6.20112 3.5182 6.07071 3.59047C5.94029 3.66274 5.85938 3.80011 5.85938 3.94922V8.05078C5.85938 8.19989 5.94029 8.33724 6.07071 8.40953C6.13268 8.44388 6.20114 8.46094 6.26953 8.46094C6.34508 8.46094 6.42052 8.44008 6.48691 8.3986L9.76816 6.34781C9.88809 6.27287 9.96094 6.14142 9.96094 6C9.96094 5.85858 9.88812 5.72714 9.76819 5.65219ZM6.67972 7.31075V4.68922L8.77693 6L6.67972 7.31075Z" fill="#662D91"/>
<path d="M12.4492 0.667969H2.55078C1.41998 0.667969 0.5 1.58795 0.5 2.71875V9.28125C0.5 10.4121 1.41998 11.332 2.55078 11.332H12.4492C13.58 11.332 14.5 10.4121 14.5 9.28125V2.71875C14.5 1.58795 13.58 0.667969 12.4492 0.667969ZM13.6797 9.28125C13.6797 9.95973 13.1277 10.5117 12.4492 10.5117H2.55078C1.8723 10.5117 1.32031 9.95973 1.32031 9.28125V2.71875C1.32031 2.04027 1.8723 1.48828 2.55078 1.48828H12.4492C13.1277 1.48828 13.6797 2.04027 13.6797 2.71875V9.28125Z" fill="#662D91"/>
</svg>
