<svg width="17" height="17" viewBox="0 0 17 17" fill="none" xmlns="http://www.w3.org/2000/svg">
<path d="M16.7143 6.57034C16.7143 6.269 16.3929 6.14847 16.1518 6.10829L11.1094 5.37503L8.84933 0.804717C8.75893 0.613869 8.58817 0.392887 8.35714 0.392887C8.12612 0.392887 7.95536 0.613869 7.86496 0.804717L5.60491 5.37503L0.5625 6.10829C0.311384 6.14847 0 6.269 0 6.57034C0 6.75115 0.13058 6.9219 0.251116 7.05249L3.90737 10.6083L3.04353 15.6306C3.03348 15.7009 3.02344 15.7612 3.02344 15.8315C3.02344 16.0927 3.15402 16.3337 3.44531 16.3337C3.58594 16.3337 3.71652 16.2835 3.8471 16.2132L8.35714 13.8427L12.8672 16.2132C12.9877 16.2835 13.1283 16.3337 13.269 16.3337C13.5603 16.3337 13.6808 16.0927 13.6808 15.8315C13.6808 15.7612 13.6808 15.7009 13.6708 15.6306L12.8069 10.6083L16.4531 7.05249C16.5837 6.9219 16.7143 6.75115 16.7143 6.57034Z" fill="#FED100"/>
</svg>
