<svg width="25" height="18" viewBox="0 0 25 18" fill="none" xmlns="http://www.w3.org/2000/svg">
<rect width="25" height="18" fill="#E5E5E5"/>
<g clip-path="url(#clip0)">
<rect width="1440" height="5745" transform="translate(-275 -677)" fill="white"/>
<path d="M15.6069 15.8327C15.2581 15.8327 14.9554 15.5734 14.9102 15.2184C14.8613 14.8331 15.1338 14.4812 15.5189 14.4321C17.7407 14.1491 19.7303 13.547 21.1212 12.7366C22.3932 11.9956 23.0936 11.1243 23.0936 10.2835C23.0936 9.35682 22.274 8.59858 21.5863 8.12543C21.2664 7.90534 21.1854 7.46772 21.4055 7.14765C21.6256 6.82777 22.0634 6.74683 22.3833 6.96693C23.768 7.91944 24.4998 9.06623 24.4998 10.2837C24.4998 11.6654 23.5764 12.9338 21.8292 13.9517C20.2565 14.8679 18.136 15.5165 15.6967 15.8272C15.6664 15.8309 15.6364 15.8327 15.6069 15.8327Z" fill="#662D91"/>
<path d="M12.3286 14.8254L10.4536 12.9504C10.179 12.6757 9.73383 12.6757 9.45917 12.9504C9.18469 13.2249 9.18469 13.6702 9.45917 13.9447L10.007 14.4925C7.90643 14.2755 5.99811 13.7865 4.52045 13.0758C2.85913 12.2769 1.90625 11.259 1.90625 10.2835C1.90625 9.45601 2.5885 8.59596 3.82721 7.86171C4.16138 7.66377 4.27161 7.23238 4.07367 6.89839C3.87555 6.56422 3.44415 6.454 3.11017 6.65193C0.95282 7.93074 0.5 9.3326 0.5 10.2835C0.5 11.8435 1.71143 13.2853 3.91107 14.3433C5.61835 15.1641 7.82678 15.714 10.2328 15.9268L9.45917 16.7004C9.18469 16.9749 9.18469 17.4202 9.45917 17.6948C9.5965 17.832 9.77649 17.9007 9.95648 17.9007C10.1363 17.9007 10.3163 17.832 10.4536 17.6948L12.3286 15.8198C12.6031 15.5452 12.6031 15.0999 12.3286 14.8254Z" fill="#662D91"/>
<path d="M7.86407 8.87537V8.70618C7.86407 8.10944 7.49878 7.99371 7.00897 7.99371C6.70612 7.99371 6.60815 7.72656 6.60815 7.45941C6.60815 7.19208 6.70612 6.92493 7.00897 6.92493C7.34735 6.92493 7.70367 6.88043 7.70367 6.159C7.70367 5.64246 7.40979 5.51776 7.04449 5.51776C6.60815 5.51776 6.3855 5.62469 6.3855 5.97205C6.3855 6.27472 6.25183 6.47961 5.73529 6.47961C5.09406 6.47961 5.01404 6.34595 5.01404 5.9184C5.01404 5.22388 5.51263 4.32428 7.04449 4.32428C8.17572 4.32428 9.03064 4.73389 9.03064 5.93634C9.03064 6.58636 8.79022 7.19208 8.34491 7.39697C8.87042 7.5929 9.2533 7.98474 9.2533 8.70618V8.87537C9.2533 10.336 8.24695 10.8882 7 10.8882C5.46814 10.8882 4.88037 9.95313 4.88037 9.20496C4.88037 8.80414 5.04956 8.69721 5.53937 8.69721C6.10937 8.69721 6.25183 8.8219 6.25183 9.16046C6.25183 9.57904 6.64386 9.677 7.04449 9.677C7.65021 9.677 7.86407 9.45435 7.86407 8.87537Z" fill="#662D91"/>
<path d="M14.6595 8.70618V8.78638C14.6595 10.3182 13.7064 10.8882 12.4774 10.8882C11.2484 10.8882 10.2864 10.3182 10.2864 8.78638V6.42615C10.2864 4.89429 11.275 4.32428 12.5576 4.32428C14.0627 4.32428 14.6595 5.2594 14.6595 5.9986C14.6595 6.42615 14.4546 6.55963 14.0093 6.55963C13.6264 6.55963 13.2878 6.46167 13.2878 6.05206C13.2878 5.71368 12.9317 5.53552 12.5131 5.53552C11.9876 5.53552 11.6758 5.81165 11.6758 6.42615V7.2276C11.9609 6.91595 12.3617 6.83575 12.7892 6.83575C13.8044 6.83575 14.6595 7.28107 14.6595 8.70618ZM11.6758 8.88434C11.6758 9.49884 11.9786 9.76599 12.4774 9.76599C12.9762 9.76599 13.2701 9.49884 13.2701 8.88434V8.80414C13.2701 8.15393 12.9762 7.90454 12.4684 7.90454C11.9876 7.90454 11.6758 8.13617 11.6758 8.72394V8.88434Z" fill="#662D91"/>
<path d="M15.7371 8.78638V6.42615C15.7371 4.89429 16.6899 4.32428 17.9191 4.32428C19.1481 4.32428 20.11 4.89429 20.11 6.42615V8.78638C20.11 10.3182 19.1481 10.8882 17.9191 10.8882C16.6899 10.8882 15.7371 10.3182 15.7371 8.78638ZM18.7206 6.42615C18.7206 5.81165 18.4179 5.53552 17.9191 5.53552C17.4203 5.53552 17.1265 5.81165 17.1265 6.42615V8.78638C17.1265 9.40088 17.4203 9.677 17.9191 9.677C18.4179 9.677 18.7206 9.40088 18.7206 8.78638V6.42615Z" fill="#662D91"/>
<path d="M21.7976 4.31805C20.6343 4.31805 19.6882 3.37177 19.6882 2.20868C19.6882 1.04559 20.6343 0.0993042 21.7976 0.0993042C22.9607 0.0993042 23.907 1.04559 23.907 2.20868C23.907 3.37177 22.9607 4.31805 21.7976 4.31805ZM21.7976 1.50555C21.4098 1.50555 21.0945 1.82104 21.0945 2.20868C21.0945 2.5965 21.4098 2.9118 21.7976 2.9118C22.1852 2.9118 22.5007 2.5965 22.5007 2.20868C22.5007 1.82104 22.1852 1.50555 21.7976 1.50555Z" fill="#662D91"/>
</g>
<defs>
<clipPath id="clip0">
<rect width="1440" height="5745" fill="white" transform="translate(-275 -677)"/>
</clipPath>
</defs>
</svg>
