<svg width="15" height="15" viewBox="0 0 15 15" fill="none" xmlns="http://www.w3.org/2000/svg">
<g clip-path="url(#clip0_5815_6773)">
<path d="M7.12727 15H6.951C6.90863 14.97 6.86459 14.9424 6.8191 14.9174C4.62258 13.8563 2.42528 12.7967 0.227194 11.7387C0.0635574 11.6599 -0.000781063 11.5589 -0.00048728 11.3767C0.00421325 8.78635 0.00421325 6.19596 -0.00048728 3.60558C-0.00048728 3.42255 0.0650257 3.32296 0.228369 3.24452C2.43625 2.18396 4.64207 1.11938 6.84583 0.0507957C6.98214 -0.0153056 7.09466 -0.0179495 7.23127 0.0481518C9.43974 1.11831 11.649 2.1868 13.859 3.25362C13.9389 3.2924 14.0041 3.36056 14.0764 3.4152V11.5686C14 11.6253 13.9295 11.6961 13.8461 11.7369C11.7046 12.775 9.56224 13.8105 7.419 14.8437C7.3197 14.8916 7.22452 14.9477 7.12727 15ZM6.80999 14.423C6.81469 14.3683 6.8191 14.3395 6.8191 14.3108C6.8191 11.8861 6.81978 9.46156 6.82115 7.03726C6.82115 6.95177 6.79383 6.90565 6.71451 6.87098C6.55352 6.80106 6.39546 6.72409 6.24034 6.64154C6.21374 6.62888 6.18998 6.61096 6.17049 6.58886C6.15101 6.56676 6.13621 6.54094 6.12698 6.51296C6.11776 6.48498 6.1143 6.45542 6.11681 6.42606C6.11933 6.39671 6.12778 6.36817 6.14163 6.34217C6.19539 6.24023 6.31026 6.20321 6.43248 6.25139C6.47891 6.26662 6.52316 6.28786 6.56409 6.31455C6.8849 6.55311 7.18868 6.5202 7.52476 6.3172C7.85321 6.1186 8.21398 5.97288 8.5624 5.80836C8.72575 5.73139 8.87881 5.80337 8.89908 5.96113C8.91524 6.08687 8.84561 6.15914 8.73809 6.21055C8.28948 6.4259 7.84411 6.64859 7.39256 6.85688C7.28445 6.90682 7.25742 6.96763 7.25742 7.07898C7.26036 9.46842 7.26114 11.8586 7.25977 14.2496V14.4218C7.3244 14.3924 7.36406 14.3777 7.40255 14.3592C9.4414 13.3751 11.4806 12.3917 13.5203 11.4091C13.6166 11.3629 13.6378 11.3062 13.6378 11.2081C13.6353 8.81299 13.6346 6.41787 13.6357 4.02275V3.85617C13.602 3.86763 13.5834 3.87174 13.5667 3.87968C12.9427 4.1808 12.3199 4.48399 11.6935 4.78071C11.6054 4.82302 11.6092 4.885 11.6092 4.95874C11.6092 5.76518 11.6063 6.57191 11.6122 7.37834C11.6122 7.54786 11.5534 7.64921 11.3992 7.7209C10.913 7.94829 10.4297 8.18478 9.94788 8.41834C9.65234 8.56082 9.52513 8.48356 9.52484 8.1601C9.52484 7.36336 9.52484 6.56662 9.52631 5.76988C9.52631 5.67793 9.50956 5.62093 9.41643 5.57628C7.27965 4.54843 5.14365 3.51871 3.00844 2.48714C2.94861 2.46292 2.88171 2.46292 2.82189 2.48714C2.49872 2.6355 2.17909 2.79356 1.85828 2.94838L0.737201 3.49071C0.799483 3.52273 0.841788 3.54535 0.884093 3.56621L4.87748 5.49578C5.07931 5.59332 5.2829 5.6885 5.48238 5.79133C5.60283 5.85331 5.6422 5.97847 5.58844 6.08805C5.53791 6.19087 5.42069 6.2323 5.29936 6.18705C5.25382 6.17001 5.21122 6.14563 5.16686 6.12448C3.64683 5.39021 2.1266 4.65575 0.606175 3.9211C0.556526 3.89701 0.505701 3.87556 0.442538 3.84707V4.01775C0.442538 6.40719 0.441558 8.79742 0.439599 11.1884C0.439599 11.3077 0.476321 11.3668 0.582377 11.4179C2.20093 12.1954 3.8182 12.9755 5.4342 13.7581C5.88633 13.9791 6.33847 14.1962 6.80999 14.423ZM13.3343 3.49423C13.2888 3.47014 13.2565 3.45163 13.2227 3.43548C11.1942 2.45483 9.16485 1.47555 7.13462 0.49764C7.07026 0.473659 6.99906 0.475874 6.93632 0.503809C6.40222 0.754994 5.87194 1.01382 5.34049 1.27088C5.30905 1.28586 5.27938 1.30466 5.23443 1.32964C5.28232 1.35608 5.31081 1.374 5.34078 1.38839C7.37395 2.37002 9.40801 3.35028 11.4429 4.32917C11.4958 4.35472 11.5845 4.34444 11.6412 4.31771C12.1701 4.06829 12.6968 3.81211 13.2236 3.5571C13.2576 3.54065 13.2894 3.5192 13.3343 3.49335V3.49423ZM3.44324 2.19688C3.4782 2.21892 3.49347 2.23096 3.51051 2.23919C5.55309 3.22591 7.59654 4.21116 9.64088 5.19495C9.70593 5.21829 9.77753 5.21523 9.84036 5.18643C10.1905 5.02514 10.536 4.85416 10.8827 4.68699C10.9191 4.66907 10.9538 4.64733 11.0046 4.61854C10.9394 4.58446 10.8936 4.55978 10.846 4.53599C10.0861 4.16895 9.32634 3.80192 8.56681 3.43489C7.32822 2.83675 6.08924 2.2389 4.84987 1.64134C4.79111 1.61343 4.70298 1.59433 4.64922 1.61842C4.2482 1.80175 3.85571 1.99682 3.44324 2.19688ZM9.97462 7.90774C10.0234 7.88806 10.0628 7.87455 10.1015 7.85604C10.4182 7.70415 10.7326 7.54756 11.0516 7.40155C11.1474 7.35749 11.1727 7.30049 11.1721 7.20061C11.168 6.53636 11.17 5.87182 11.17 5.20758V5.0648C11.1406 5.0648 11.1248 5.0601 11.1133 5.0648C10.7529 5.23754 10.3915 5.40882 10.0345 5.5892C9.99753 5.608 9.96815 5.68057 9.96786 5.72846C9.96345 6.41708 9.96492 7.10601 9.96522 7.79464C9.96522 7.82842 9.97051 7.86133 9.97462 7.90774Z" fill="#662D91"/>
<path d="M1.19447 8.95389C1.23376 8.96545 1.27232 8.97938 1.30993 8.9956C1.9159 9.28743 2.52149 9.58014 3.12668 9.87372C3.1778 9.8984 3.24949 9.93601 3.25859 9.97861C3.27593 10.0606 3.28327 10.1675 3.24361 10.2333C3.18045 10.3376 3.06352 10.3306 2.9557 10.2786C2.53461 10.0747 2.11352 9.87098 1.69243 9.66749C1.48678 9.56789 1.27908 9.47036 1.07549 9.36724C0.972664 9.31583 0.922426 9.22769 0.95533 9.11312C0.983533 9.00912 1.05845 8.95036 1.19447 8.95389Z" fill="#662D91"/>
<path d="M2.37963 10.6476C2.37963 10.8439 2.23538 10.9599 2.09847 10.8985C1.74359 10.7396 1.3934 10.5698 1.04644 10.3929C0.939795 10.3383 0.909829 10.2272 0.970348 10.1147C1.03087 10.0022 1.12635 9.95898 1.24063 10.0119C1.58494 10.1714 1.9272 10.335 2.26505 10.5081C2.32439 10.5383 2.35789 10.6197 2.37963 10.6476Z" fill="#662D91"/>
</g>
<defs>
<clipPath id="clip0_5815_6773">
<rect width="14.0763" height="15" fill="white"/>
</clipPath>
</defs>
</svg>
