<svg width="20" height="20" viewBox="0 0 20 20" fill="none" xmlns="http://www.w3.org/2000/svg">
<path d="M6.14255 10.064C6.95556 11.7267 8.30308 13.0684 9.96926 13.8743C10.0913 13.9321 10.2262 13.957 10.3608 13.9467C10.4954 13.9364 10.625 13.8912 10.7368 13.8155L13.1907 12.18C13.2991 12.1077 13.4238 12.0635 13.5536 12.0514C13.6834 12.0394 13.8141 12.0599 13.9339 12.111L18.5243 14.0789C18.6802 14.1451 18.8104 14.2602 18.8952 14.4069C18.9801 14.5535 19.015 14.7237 18.9947 14.8919C18.8494 16.0271 18.2953 17.0704 17.4363 17.8266C16.5772 18.5828 15.472 19 14.3275 19.0001C10.7927 19.0001 7.40268 17.5959 4.90319 15.0964C2.40371 12.5969 0.999512 9.20686 0.999512 5.67205C0.999617 4.52768 1.41682 3.42257 2.17301 2.56363C2.9292 1.70469 3.97253 1.15081 5.10767 1.00568C5.27586 0.985402 5.44608 1.02031 5.59271 1.10515C5.73934 1.18999 5.85444 1.32017 5.92068 1.47608L7.89009 6.07033C7.94074 6.18903 7.9613 6.31841 7.94995 6.44697C7.9386 6.57553 7.89569 6.69929 7.82502 6.80729L6.1943 9.29884C6.12029 9.41104 6.07662 9.54051 6.06755 9.67461C6.05848 9.80872 6.08432 9.94288 6.14255 10.064V10.064Z" stroke="#662D91" stroke-linecap="round" stroke-linejoin="round"/>
</svg>
