<svg width="14" height="13" viewBox="0 0 14 13" fill="none" xmlns="http://www.w3.org/2000/svg">
<g clip-path="url(#clip0_4711:6395)">
<path d="M13.3601 4.5169C13.3279 4.7496 13.2811 4.98005 13.2201 5.2069C13.0663 5.74146 12.7927 6.23393 12.4201 6.64691C12.3723 6.70021 12.3411 6.76621 12.3301 6.83691C12.2863 7.07598 12.2997 7.32203 12.3692 7.55493C12.4387 7.78783 12.5624 8.00096 12.7301 8.17691C12.7747 8.21329 12.8066 8.26298 12.821 8.31875C12.8354 8.37453 12.8316 8.43346 12.8101 8.4869C12.7856 8.53919 12.7455 8.58262 12.6954 8.61126C12.6453 8.6399 12.5875 8.65236 12.5301 8.64691C11.8441 8.63611 11.1845 8.38078 10.6701 7.92691C10.6427 7.8974 10.607 7.87684 10.5678 7.86792C10.5285 7.85899 10.4875 7.86212 10.4501 7.87689L9.2501 8.09689C9.18042 8.10636 9.10976 8.10636 9.04008 8.09689C8.97008 8.37689 8.93007 8.65689 8.85007 8.90689C8.67742 9.42039 8.40228 9.89349 8.0413 10.2975C7.68031 10.7014 7.24103 11.0278 6.7501 11.2569C5.81867 11.7071 4.7705 11.8574 3.7501 11.6869C3.4501 11.6869 3.17009 11.5569 2.87009 11.4969C2.85156 11.4873 2.83098 11.4822 2.8101 11.4822C2.78921 11.4822 2.76863 11.4873 2.7501 11.4969C2.29327 11.9058 1.71966 12.1611 1.11008 12.2269H0.780067C0.550067 12.0769 0.530069 11.9369 0.720069 11.7269C0.883667 11.5526 1.00415 11.3425 1.07188 11.1132C1.1396 10.884 1.1527 10.6421 1.11008 10.4069C1.09772 10.3287 1.06295 10.2558 1.01005 10.1969C0.388364 9.51854 0.0517422 8.62686 0.070045 7.7069C0.0851927 7.22433 0.200599 6.75016 0.408912 6.3146C0.617225 5.87904 0.913908 5.49161 1.28007 5.17691C2.10544 4.42154 3.16362 3.97005 4.28007 3.89691C4.44007 3.89691 4.44007 3.8969 4.47007 3.6669C4.59921 2.77397 5.05104 1.95929 5.74009 1.37689C6.22011 0.954252 6.78249 0.635674 7.39176 0.441188C8.00103 0.246703 8.64396 0.180555 9.28007 0.246914C10.4722 0.320052 11.5948 0.833182 12.4301 1.68689C13.0035 2.24909 13.358 2.99711 13.4301 3.7969C13.4344 3.81667 13.4344 3.83713 13.4301 3.8569L13.3601 4.5169ZM1.36008 11.7069C1.76458 11.5876 2.13029 11.3633 2.42008 11.0569C2.46019 11.0112 2.51283 10.9783 2.57151 10.9623C2.63019 10.9463 2.69233 10.9479 2.7501 10.9669C3.2118 11.1389 3.69781 11.2368 4.1901 11.2569C4.76398 11.3118 5.34299 11.2468 5.89042 11.066C6.43784 10.8853 6.94173 10.5927 7.37009 10.2069C7.69812 9.92624 7.96302 9.57933 8.14744 9.18899C8.33185 8.79865 8.4316 8.3737 8.4401 7.94207C8.4486 7.51045 8.36566 7.08192 8.19675 6.68463C8.02785 6.28733 7.77678 5.93026 7.46006 5.6369C6.7655 4.95989 5.84866 4.5583 4.8801 4.50689C4.24785 4.4465 3.60996 4.52435 3.01078 4.73501C2.4116 4.94567 1.86542 5.28411 1.41007 5.72689C1.08798 6.00515 0.831353 6.35112 0.658485 6.74008C0.485617 7.12903 0.400781 7.55136 0.410072 7.97689C0.440083 8.7249 0.742345 9.43616 1.26005 9.97689C1.31919 10.0318 1.36386 10.1005 1.39005 10.1769C1.43482 10.4176 1.45492 10.6621 1.45005 10.9069C1.45308 11.1744 1.43638 11.4418 1.40006 11.7069H1.36008ZM11.9701 8.06689C11.7783 7.68724 11.7051 7.25869 11.76 6.83691C11.7729 6.63782 11.8501 6.44829 11.9801 6.2969C12.5069 5.73078 12.7947 4.9831 12.7835 4.20987C12.7724 3.43663 12.463 2.69757 11.9201 2.14691C11.2754 1.50906 10.4531 1.08087 9.56083 0.918483C8.6686 0.756098 7.74814 0.867097 6.92008 1.2369C6.47183 1.42648 6.06893 1.70902 5.73795 2.06585C5.40698 2.42268 5.15549 2.84569 5.0001 3.30691C4.9301 3.51691 4.89006 3.74691 4.84006 3.96691H5.0001C5.58549 4.01646 6.15758 4.16878 6.6901 4.4169C6.76939 4.44965 6.85431 4.46665 6.9401 4.46691H11.0301C11.0938 4.47179 11.1535 4.49996 11.1978 4.54608C11.2421 4.59219 11.2678 4.65303 11.2701 4.71691C11.2684 4.78038 11.2444 4.84121 11.2024 4.88876C11.1603 4.93631 11.1029 4.96751 11.0401 4.97689H7.60007C8.35912 5.59781 8.8439 6.49202 8.95005 7.46691C8.95875 7.48465 8.97138 7.50016 8.98698 7.51229C9.00257 7.52442 9.02074 7.53283 9.04008 7.53689C9.49761 7.52095 9.94981 7.43323 10.3801 7.27691C10.4624 7.23833 10.5552 7.22819 10.6439 7.2481C10.7326 7.26802 10.8122 7.31683 10.8701 7.3869C11.1693 7.7276 11.5681 7.9655 12.01 8.06689H11.9701Z" fill="#662D91"/>
<path d="M4.51988 8.66699H6.70988C6.77105 8.67603 6.82726 8.70578 6.86912 8.75128C6.91098 8.79679 6.936 8.85529 6.93992 8.91699C6.94271 8.98433 6.9192 9.05013 6.87443 9.10049C6.82966 9.15086 6.76707 9.18185 6.69987 9.18698H2.30992C2.24727 9.17519 2.19082 9.14164 2.15055 9.09222C2.11029 9.04281 2.08878 8.98072 2.08988 8.91699C2.0938 8.85529 2.11876 8.79679 2.16062 8.75128C2.20249 8.70578 2.2587 8.67603 2.31986 8.66699H4.51988Z" fill="#662D91"/>
<path d="M5.0401 7.09689H6.6001C6.68631 7.09889 6.76992 7.12678 6.84009 7.17691C6.87588 7.20863 6.90093 7.2507 6.91168 7.2973C6.92244 7.3439 6.91836 7.39269 6.90009 7.43689C6.88256 7.48461 6.85143 7.52615 6.81055 7.55637C6.76967 7.58658 6.72086 7.60415 6.6701 7.6069H3.36011C3.29285 7.60695 3.22817 7.58095 3.17969 7.53433C3.13121 7.48772 3.10268 7.42411 3.1001 7.3569C3.1001 7.28529 3.12856 7.21662 3.1792 7.16599C3.22983 7.11535 3.29851 7.08691 3.37012 7.08691H5.01007L5.0401 7.09689Z" fill="#662D91"/>
<path d="M2.34008 7.09692C2.40835 7.09674 2.47419 7.12244 2.52428 7.16882C2.57438 7.21521 2.60504 7.27884 2.6101 7.34692C2.61144 7.38107 2.60601 7.41518 2.59417 7.44724C2.58232 7.47929 2.56429 7.50868 2.54107 7.53375C2.51785 7.55883 2.48991 7.57908 2.45885 7.59335C2.4278 7.60763 2.39425 7.61566 2.3601 7.61694C2.32477 7.61981 2.28924 7.61512 2.25585 7.60321C2.22246 7.5913 2.19197 7.57241 2.16643 7.54782C2.1409 7.52323 2.12088 7.49352 2.10772 7.4606C2.09455 7.42769 2.08854 7.39235 2.09008 7.35693C2.09236 7.2904 2.11913 7.22707 2.16527 7.17908C2.21142 7.13109 2.27368 7.10182 2.34008 7.09692Z" fill="#662D91"/>
<path d="M9.38009 2.92696H11.0501C11.1105 2.93766 11.1657 2.96791 11.2073 3.01308C11.2489 3.05825 11.2744 3.11584 11.2801 3.17696C11.2788 3.2416 11.2552 3.3038 11.2133 3.35301C11.1714 3.40223 11.1137 3.43541 11.0501 3.44695H7.73007C7.69465 3.44848 7.65934 3.44247 7.62643 3.42931C7.59352 3.41614 7.56374 3.39613 7.53915 3.37059C7.51456 3.34506 7.4957 3.31459 7.48379 3.28121C7.47188 3.24782 7.46719 3.21229 7.47006 3.17696C7.47003 3.14327 7.47683 3.10991 7.49002 3.0789C7.5032 3.0479 7.52249 3.01989 7.54678 2.99654C7.57106 2.97319 7.59982 2.955 7.63131 2.94304C7.66281 2.93108 7.6964 2.92561 7.73007 2.92696C7.93007 2.92696 8.13004 2.92696 8.33004 2.92696H9.38009Z" fill="#662D91"/>
<path d="M6.67993 3.44699C6.61007 3.4444 6.54391 3.41483 6.49542 3.36447C6.44693 3.31411 6.41987 3.24691 6.41992 3.177C6.42251 3.10979 6.45103 3.04619 6.49951 2.99957C6.54799 2.95296 6.61267 2.92695 6.67993 2.927C6.74719 2.92695 6.81181 2.95296 6.86029 2.99957C6.90877 3.04619 6.93735 3.10979 6.93994 3.177C6.94281 3.21233 6.93812 3.24786 6.92621 3.28125C6.9143 3.31464 6.89538 3.3451 6.87079 3.37064C6.8462 3.39617 6.81648 3.41619 6.78357 3.42935C6.75066 3.44252 6.71535 3.44853 6.67993 3.44699Z" fill="#662D91"/>
</g>
<defs>
<clipPath id="clip0_4711:6395">
<rect width="13.36" height="12" fill="white" transform="translate(0 0.316895)"/>
</clipPath>
</defs>
</svg>
