<svg width="29" height="30" viewBox="0 0 29 30" fill="none" xmlns="http://www.w3.org/2000/svg">
<g clip-path="url(#clip0_5056_6801)">
<path d="M17.2337 27.436C17.1222 27.436 17.0107 27.3926 16.9302 27.3121L3.98637 14.3683C3.88727 14.2692 3.84392 14.1329 3.86869 13.9967L5.36126 4.53344C5.39223 4.34765 5.53467 4.2052 5.72047 4.17424L15.1775 2.68167C15.3138 2.66309 15.45 2.70644 15.5491 2.79934L28.493 15.7432C28.6602 15.9104 28.6602 16.1829 28.493 16.3501L17.5371 27.3059C17.4566 27.3865 17.3451 27.436 17.2337 27.436ZM4.74813 13.91L17.2337 26.3955L27.5825 16.0467L15.097 3.5673L6.16019 4.97316L4.74813 13.91Z" fill="#662D91"/>
<path d="M9.7647 10.77C8.55702 10.77 7.57849 9.7915 7.57849 8.58382C7.57849 7.37614 8.55702 6.39761 9.7647 6.39761C10.9724 6.39761 11.9509 7.37614 11.9509 8.58382C11.9509 9.16599 11.7218 9.71718 11.3068 10.1321C10.9043 10.5409 10.3469 10.77 9.7647 10.77ZM9.7647 7.25228C9.02771 7.25228 8.43316 7.84683 8.43316 8.58382C8.43316 9.32082 9.02771 9.91537 9.7647 9.91537C10.5017 9.91537 11.0962 9.32082 11.0962 8.58382C11.0962 8.23081 10.9538 7.89018 10.7061 7.64245C10.4583 7.39472 10.1177 7.25228 9.7647 7.25228Z" fill="#662D91"/>
<path d="M1.2985 14.3249L0.753492 13.1606C0.697753 13.0367 0.697753 12.8943 0.765878 12.7704L5.4108 4.39719L6.16018 4.81214L1.62674 12.9934L2.07884 13.9595L1.2985 14.3249Z" fill="#662D91"/>
<path d="M8.87916 30C8.71194 30 8.5633 29.9009 8.48899 29.7523L2.0728 15.9847L2.84695 15.6193L9.08354 28.9967L16.1438 25.7081L16.5092 26.4822L9.06496 29.9505C9.00922 29.9814 8.94109 30 8.87916 30Z" fill="#662D91"/>
<path d="M8.71803 9.38895C8.45172 9.38895 8.1916 9.35179 7.93149 9.28986L8.12348 8.45377C8.47649 8.53428 9.12059 8.62099 9.46121 8.28036C9.79565 7.94593 9.79565 7.24609 9.45502 6.36665C8.95956 5.19613 8.22876 4.13709 7.31216 3.25765C5.20027 1.13957 2.97071 0.427344 2.28945 1.1086C1.6082 1.78985 2.32661 4.01942 4.4385 6.13131C4.58095 6.27375 4.72339 6.41 4.86584 6.54006L4.28987 7.17796C4.13504 7.03552 3.98021 6.89308 3.83157 6.73825C1.44098 4.34766 0.518191 1.66599 1.68252 0.501663C2.84684 -0.662664 5.52851 0.260127 7.9191 2.65071C8.9224 3.61686 9.71514 4.77499 10.2539 6.06318C10.7246 7.29564 10.6565 8.29894 10.062 8.89349C9.70894 9.23412 9.21968 9.41372 8.71803 9.38895Z" fill="#662D91"/>
<path d="M17.048 21.0693C18.9679 21.0693 20.7763 20.1342 21.8911 18.5611C22.0273 18.3691 21.9778 18.109 21.792 17.9727C21.6 17.8365 21.3399 17.886 21.2036 18.0718C20.2499 19.4219 18.6954 20.2209 17.048 20.2209C14.2424 20.2209 11.9633 17.9418 11.9633 15.1362C11.9633 12.3307 14.2424 10.0516 17.048 10.0516C19.8535 10.0516 22.1326 12.3307 22.1326 15.1362C22.1326 15.576 22.0769 16.0095 21.9654 16.4306C21.9035 16.6536 22.0397 16.8827 22.2689 16.9447C22.4918 17.0004 22.721 16.8703 22.7829 16.6412C22.913 16.1519 22.9749 15.6441 22.9749 15.1362C22.9749 11.8662 20.318 9.20932 17.048 9.20932C13.7779 9.20932 11.121 11.8662 11.121 15.1362C11.121 18.4063 13.7841 21.0693 17.048 21.0693Z" fill="#662D91"/>
<path d="M19.259 12.1883C18.906 12.2007 18.5839 12.3555 18.3424 12.6094L16.2305 14.9009L15.704 14.3931C15.1838 13.8914 14.3477 13.9038 13.8399 14.424C13.3382 14.9443 13.3506 15.7803 13.8708 16.2882L15.3634 17.7312C15.6111 17.9727 15.9332 18.1028 16.28 18.1028C16.2924 18.1028 16.3048 18.1028 16.3172 18.1028C16.6702 18.0904 17.0108 17.9356 17.2462 17.6817L20.2747 14.3993C20.7701 13.8666 20.733 13.0306 20.2003 12.5413C19.9464 12.2998 19.6058 12.1759 19.259 12.1883ZM19.6615 13.8295L16.633 17.1119C16.4534 17.3101 16.1438 17.3163 15.9518 17.1305L14.4592 15.6875C14.2734 15.5078 14.2672 15.2044 14.4468 15.0186C14.5397 14.9195 14.6636 14.8761 14.7874 14.8761C14.9051 14.8761 15.0228 14.9195 15.1157 15.0124C15.1157 15.0124 15.9456 15.8175 15.9518 15.8175C16.119 15.9785 16.3977 15.9723 16.5525 15.7989C16.5525 15.7989 18.9493 13.204 18.9617 13.1916C19.3643 12.7457 20.0765 13.3712 19.6615 13.8295Z" fill="#662D91"/>
</g>
<defs>
<clipPath id="clip0_5056_6801">
<rect width="27.9005" height="30" fill="white" transform="translate(0.716415)"/>
</clipPath>
</defs>
</svg>
