<svg width="15" height="15" viewBox="0 0 15 15" fill="none" xmlns="http://www.w3.org/2000/svg">
<g clip-path="url(#clip0_3393_3634)">
<path d="M9.69499 1.18274C9.64441 1.14727 9.58124 1.13468 9.52104 1.14818C9.46073 1.16169 9.40901 1.19991 9.37834 1.25347C9.37685 1.2561 9.37502 1.2585 9.37341 1.26091C9.30292 1.36161 9.16365 1.3861 9.06294 1.31572C8.96349 1.24614 8.8265 1.27018 8.75692 1.36962L8.43672 1.82704C8.36714 1.92649 8.39128 2.06348 8.49062 2.13306C8.52907 2.15995 8.57302 2.17288 8.6165 2.17288C8.68574 2.17288 8.75395 2.14015 8.79663 2.07916L9.01235 1.77097C9.21491 1.82739 9.43498 1.7839 9.60092 1.65321L9.92502 1.88014C10.0245 1.94972 10.1613 1.92558 10.231 1.82624C10.3006 1.72679 10.2765 1.58981 10.177 1.52023L9.69499 1.18274Z" fill="#662D91"/>
<path d="M12.1246 3.95049L11.9089 4.25857C11.8393 4.35802 11.8635 4.495 11.9628 4.56458C12.0013 4.59147 12.0452 4.60429 12.0887 4.60429C12.1579 4.60429 12.2262 4.57168 12.2688 4.51056L12.5892 4.05326C12.6587 3.95381 12.6346 3.81683 12.5353 3.74725C12.4346 3.67675 12.4099 3.53748 12.4806 3.43665C12.4823 3.43425 12.4839 3.43185 12.4858 3.42967C12.5256 3.38241 12.5438 3.32073 12.5358 3.2595C12.5279 3.19828 12.4946 3.14312 12.444 3.10775L11.962 2.77027C11.8626 2.70069 11.7256 2.72484 11.656 2.82428C11.5863 2.92362 11.6106 3.06072 11.7099 3.1303L12.034 3.35712C11.9679 3.55785 12.0023 3.7794 12.1246 3.95049Z" fill="#662D91"/>
<path d="M10.9588 8.8869C11.0631 8.8869 11.1601 8.92867 11.2317 9.00466C11.315 9.09278 11.4541 9.09679 11.5423 9.01347C11.6306 8.93016 11.6345 8.79111 11.5512 8.70288C11.398 8.5406 11.182 8.44745 10.9588 8.44745C10.5095 8.44745 10.144 8.81297 10.144 9.26227C10.144 9.71145 10.5095 10.077 10.9588 10.077C11.1764 10.077 11.381 9.99229 11.5349 9.83836C11.6207 9.75253 11.6207 9.61337 11.5349 9.52766C11.4491 9.44183 11.31 9.44183 11.2241 9.52766C11.1533 9.5985 11.059 9.63752 10.9588 9.63752C10.7518 9.63752 10.5835 9.46918 10.5835 9.26227C10.5835 9.05524 10.7518 8.8869 10.9588 8.8869Z" fill="#662D91"/>
<path d="M12.9152 7.71447V5.9546C12.9152 5.3571 12.4291 4.87096 11.8316 4.87096H10.6655C10.7338 4.28182 10.5414 3.76363 10.1356 3.47947C9.79179 3.2388 9.34639 3.19566 8.8813 3.35794C8.44173 3.5114 8.03284 3.8339 7.73025 4.26603C7.59624 4.45726 7.48959 4.66005 7.41222 4.87096H5.98171L9.05651 0.479747L13.3232 3.46723L12.6732 4.39569C12.6036 4.49514 12.6278 4.63212 12.7271 4.7017C12.8265 4.77128 12.9635 4.74713 13.0331 4.64769L13.7417 3.63568C13.8485 3.48359 13.8115 3.27291 13.6592 3.16602L9.22497 0.0612364C9.15127 0.00950914 9.06177 -0.0104036 8.97308 0.00516037C8.88439 0.0208388 8.80714 0.0699339 8.7553 0.143748L7.73827 1.59635V0.720416C7.73827 0.53445 7.58697 0.383159 7.40101 0.383159H2.13078C1.94481 0.383159 1.79352 0.53445 1.79352 0.720416V1.9233C1.79352 2.04473 1.89194 2.14303 2.01324 2.14303C2.13467 2.14303 2.23297 2.04473 2.23297 1.9233V0.822726H2.86961V4.87085H2.28481C2.26753 4.87085 2.25025 4.8713 2.23297 4.8721V2.80221C2.23297 2.6809 2.13467 2.58248 2.01324 2.58248C1.89194 2.58248 1.79352 2.6809 1.79352 2.80221V4.98883C1.4423 5.16828 1.20117 5.5338 1.20117 5.9546V12.5699C1.20117 13.1674 1.68732 13.6535 2.28481 13.6535H3.92544C4.04686 13.6535 4.14516 13.5552 4.14516 13.4338C4.14516 13.3125 4.04686 13.214 3.92544 13.214H2.28481C1.92959 13.214 1.64062 12.9251 1.64062 12.5699V5.9546C1.64062 5.67308 1.82213 5.43321 2.07413 5.34578C2.07973 5.34417 2.08534 5.34234 2.09072 5.34028C2.15206 5.32083 2.21729 5.3103 2.28493 5.3103H11.8316C12.1868 5.3103 12.4759 5.59938 12.4759 5.9546V7.68403H10.9028C10.0326 7.68403 9.32453 8.39196 9.32453 9.26229C9.32453 10.1325 10.0326 10.8404 10.9028 10.8404H12.4759V12.5699C12.4759 12.9251 12.1868 13.214 11.8316 13.214H10.1526C10.0312 13.214 9.9329 13.3125 9.9329 13.4338C9.9329 13.5552 10.0312 13.6535 10.1526 13.6535H11.8316C12.4291 13.6535 12.9153 13.1674 12.9153 12.5699V10.81C13.4125 10.692 13.7834 10.2443 13.7834 9.7117V8.81288C13.7833 8.28016 13.4124 7.83246 12.9152 7.71447ZM8.09017 4.51825C8.59131 3.80254 9.39583 3.49813 9.88357 3.8395C10.1645 4.03623 10.2882 4.42224 10.2224 4.87085H7.88715C7.94289 4.74954 8.01063 4.63155 8.09017 4.51825ZM7.29881 2.22394L5.44533 4.87096H4.3626V0.822612H7.29881V2.22394ZM3.30906 0.822612H3.92315V4.87085H3.30906V0.822612ZM13.3438 9.71158C13.3438 10.0918 13.0346 10.401 12.6544 10.401H10.9028C10.2748 10.401 9.76398 9.89011 9.76398 9.26217C9.76398 8.63435 10.2748 8.12349 10.9028 8.12349H12.6544C13.0346 8.12349 13.3438 8.4327 13.3438 8.81288V9.71158Z" fill="#662D91"/>
<path d="M7.05838 9.69073C5.59468 9.69073 4.40381 10.8816 4.40381 12.3454C4.40381 13.8091 5.59468 15 7.05838 15C8.52219 15 9.71307 13.8091 9.71307 12.3454C9.71307 10.8816 8.52219 9.69073 7.05838 9.69073ZM7.05838 14.5605C5.83695 14.5605 4.84326 13.5668 4.84326 12.3454C4.84326 11.1239 5.83695 10.1302 7.05838 10.1302C8.27992 10.1302 9.27361 11.1239 9.27361 12.3454C9.27361 13.5668 8.27992 14.5605 7.05838 14.5605Z" fill="#662D91"/>
<path d="M7.24548 12.1256H6.87068C6.76025 12.1256 6.67041 12.0358 6.67041 11.9254C6.67041 11.8149 6.76025 11.7251 6.87068 11.7251H7.58788C7.70919 11.7251 7.80761 11.6267 7.80761 11.5054C7.80761 11.3841 7.70919 11.2857 7.58788 11.2857H7.31815V11.0999C7.31815 10.9786 7.21973 10.8802 7.09842 10.8802C6.97711 10.8802 6.87869 10.9786 6.87869 11.0999V11.2857H6.87068C6.51797 11.2857 6.23096 11.5727 6.23096 11.9254C6.23096 12.2781 6.51797 12.5651 6.87068 12.5651H7.24548C7.35591 12.5651 7.44563 12.6548 7.44563 12.7653C7.44563 12.8757 7.35591 12.9655 7.24548 12.9655H6.52827C6.40685 12.9655 6.30855 13.0639 6.30855 13.1853C6.30855 13.3066 6.40685 13.405 6.52827 13.405H6.87869V13.5907C6.87869 13.712 6.97711 13.8104 7.09842 13.8104C7.21984 13.8104 7.31815 13.712 7.31815 13.5907V13.4009C7.63675 13.3646 7.8852 13.0935 7.8852 12.7653C7.88509 12.4126 7.59818 12.1256 7.24548 12.1256Z" fill="#662D91"/>
</g>
<defs>
<clipPath id="clip0_3393_3634">
<rect width="15" height="15" fill="white"/>
</clipPath>
</defs>
</svg>
