<svg width="66" height="60" viewBox="0 0 66 60" fill="none" xmlns="http://www.w3.org/2000/svg">
<path d="M46.1332 0.110584C43.4792 0.566315 40.5304 1.96033 38.2383 3.83688C37.0856 4.78856 2.4766 39.5048 2.02086 40.1616C1.79299 40.4832 1.37747 41.2473 1.09599 41.8504C-0.753753 45.818 -0.244404 50.5094 2.49 54.5976C3.33445 55.871 5.30483 57.7073 6.67203 58.5249C8.44135 59.5705 9.6477 59.919 11.6985 59.986C13.5751 60.053 14.5803 59.8921 16.1218 59.2354C18.0252 58.4445 18.682 57.8547 26.6439 50.0268C41.5893 35.2959 49.9667 26.6906 51.0123 25.0017C52.3392 22.8303 52.5403 19.8948 51.4948 17.7368C50.7174 16.1015 49.1357 14.7745 47.1921 14.1311C45.2083 13.4609 42.7286 13.729 41.2676 14.7745C40.2489 15.4983 34.8471 20.7124 27.5152 28.0444L20.7462 34.8268L22.0866 36.1806C22.8238 36.9178 23.6012 37.655 23.8023 37.8025L24.1776 38.0705L32.1127 30.1756C36.4824 25.8461 40.9593 21.4362 42.0852 20.3773L44.1226 18.474H44.7794C45.6373 18.474 46.7766 19.0503 47.1251 19.6535C47.42 20.1629 47.4602 21.0207 47.2189 21.892C47.0045 22.656 46.0796 23.7015 40.9727 28.9961C34.9275 35.2557 16.3229 53.6057 15.4114 54.2089C13.8967 55.2008 12.5027 55.5225 11.0015 55.2142C7.02053 54.3831 3.88401 49.1422 4.92952 45.0808C5.41206 43.2713 4.75526 43.9817 23.5342 25.1491C34.4986 14.1713 41.4552 7.29509 42.0182 6.90638C43.0771 6.14235 44.8196 5.31131 46.0126 4.98962C47.2189 4.65452 50.1544 4.65452 51.3742 4.97621C53.3982 5.52577 55.1943 6.51767 56.7089 7.95189C60.5961 11.5844 61.789 16.9459 59.7784 21.8652C59.2155 23.2592 58.2504 24.8945 57.2987 26.0874C56.0789 27.6289 51.7495 32.0656 39.5921 44.2498L27.8503 56.005L29.566 57.7207L31.2951 59.423L41.281 49.3701C53.0497 37.521 59.2155 31.1943 60.5961 29.5322C62.4592 27.3072 63.7594 25.0419 64.577 22.589C65.7164 19.1844 65.7566 15.4179 64.6977 12.0133C62.8077 5.90108 57.3791 1.11588 51.1999 0.110584C50.2482 -0.0368614 47.0447 -0.0368614 46.1332 0.110584Z" fill="#662D91"/>
</svg>
