<svg width="27" height="25" viewBox="0 0 27 25" fill="none" xmlns="http://www.w3.org/2000/svg">
<path fill-rule="evenodd" clip-rule="evenodd" d="M7.39724 2.59154C9.05659 0.932179 11.3072 -3.8147e-05 13.6538 -3.8147e-05C16.0005 -3.8147e-05 18.2511 0.932179 19.9105 2.59154C21.5698 4.25089 22.502 6.50146 22.502 8.84815C22.502 11.1948 21.5698 13.4454 19.9105 15.1048C19.0567 15.9585 18.0464 16.6198 16.947 17.0607C18.4374 17.3934 19.875 17.9514 21.2086 18.7211C23.5057 20.0467 25.4136 21.9535 26.7405 24.2498C26.8787 24.4889 26.7969 24.7947 26.5578 24.9329C26.3187 25.071 26.0129 24.9892 25.8747 24.7501C24.6355 22.6057 22.8539 20.8251 20.7088 19.5872C18.5637 18.3492 16.1306 17.6975 13.6538 17.6975C11.1771 17.6975 8.74405 18.3492 6.59892 19.5872C4.45379 20.8251 2.67217 22.6057 1.433 24.7501C1.29484 24.9892 0.989011 25.071 0.749917 24.9329C0.510824 24.7947 0.429004 24.4889 0.567166 24.2498C1.89413 21.9535 3.80198 20.0467 6.09909 18.7211C7.43274 17.9514 8.87033 17.3934 10.3607 17.0607C9.2613 16.6198 8.25101 15.9585 7.39724 15.1048C5.73788 13.4454 4.80566 11.1948 4.80566 8.84815C4.80566 6.50146 5.73788 4.25089 7.39724 2.59154ZM13.6538 0.999962C11.5724 0.999962 9.57616 1.82682 8.10434 3.29864C6.63252 4.77046 5.80566 6.76668 5.80566 8.84815C5.80566 10.9296 6.63252 12.9258 8.10434 14.3977C9.57616 15.8695 11.5724 16.6963 13.6538 16.6963C15.7353 16.6963 17.7315 15.8695 19.2034 14.3977C20.6752 12.9258 21.502 10.9296 21.502 8.84815C21.502 6.76668 20.6752 4.77046 19.2034 3.29864C17.7315 1.82682 15.7353 0.999962 13.6538 0.999962Z" fill="#662D91"/>
</svg>
