<svg width="51" height="48" viewBox="0 0 51 48" fill="none" xmlns="http://www.w3.org/2000/svg">
<path d="M1 47C3.45891 42.7443 6.9942 39.2106 11.2508 36.7538C15.5074 34.297 20.3354 33.0037 25.25 33.0037C30.1646 33.0037 34.9926 34.297 39.2492 36.7538C43.5058 39.2106 47.0411 42.7443 49.5 47M25.25 33.0014C29.4931 33.0014 33.5624 31.3156 36.5628 28.3149C39.5631 25.3142 41.2487 21.2443 41.2487 17.0007C41.2487 12.757 39.5631 8.68721 36.5628 5.6865C33.5624 2.68578 29.4931 1 25.25 1C21.0069 1 16.9376 2.68578 13.9372 5.6865C10.9369 8.68721 9.25132 12.757 9.25132 17.0007C9.25132 21.2443 10.9369 25.3142 13.9372 28.3149C16.9376 31.3156 21.0069 33.0014 25.25 33.0014V33.0014Z" stroke="black" stroke-width="2" stroke-linecap="round" stroke-linejoin="round"/>
</svg>
