<svg width="54" height="46" viewBox="0 0 54 46" fill="none" xmlns="http://www.w3.org/2000/svg">
<path d="M28.5009 44.4065L48.8255 23.9425C53.8174 18.9139 54.5537 10.6426 49.8287 5.35744C48.6448 4.03027 47.2049 2.95987 45.5967 2.21152C43.9884 1.46316 42.2457 1.05255 40.4747 1.00472C38.7037 0.956892 36.9416 1.27285 35.2959 1.93332C33.6502 2.59379 32.1553 3.58494 30.9025 4.84629L27.0824 8.69301L23.7839 5.37158C18.79 0.342967 10.5759 -0.398495 5.32719 4.36141C4.00925 5.55333 2.94628 7.00312 2.20312 8.62234C1.45996 10.2416 1.05219 11.9963 1.00469 13.7794C0.95719 15.5626 1.27095 17.3367 1.92684 18.9938C2.58273 20.6508 3.56699 22.1559 4.81958 23.4172L25.6638 44.4085C26.0401 44.7872 26.5503 45 27.0824 45C27.6144 45 28.1246 44.7872 28.5009 44.4085V44.4065Z" stroke="black" stroke-width="2" stroke-linecap="round" stroke-linejoin="round"/>
</svg>
